if (_typeface_js && _typeface_js.loadFace) _typeface_js.loadFace({"glyphs":{"0":{"ha":819,"x_min":24,"x_max":797,"o":"m 660 771 q 767 578 738 686 q 778 357 797 469 q 689 143 758 240 q 601 58 653 92 q 489 8 549 24 q 366 -3 429 -7 q 246 26 303 1 q 137 107 181 54 q 67 226 93 160 q 32 368 40 293 q 29 514 24 443 q 46 628 33 568 q 83 742 58 688 q 146 841 108 797 q 238 908 183 885 q 353 931 294 933 q 467 906 413 928 q 572 849 522 885 q 660 771 621 813 m 589 310 q 599 465 608 390 q 563 599 590 539 q 496 703 536 660 q 412 768 456 747 q 326 784 368 789 q 252 741 283 779 q 206 629 221 703 q 203 439 192 556 q 213 338 204 388 q 240 244 221 288 q 290 163 258 200 q 369 99 321 125 q 454 88 417 71 q 519 142 492 104 q 563 228 546 181 q 589 310 581 276 z "},"1":{"ha":290,"x_min":57,"x_max":239,"o":"m 225 935 q 226 469 225 701 q 239 0 228 238 l 64 0 q 61 467 57 235 q 69 935 65 700 l 225 935 l 225 935 z "},"2":{"ha":715,"x_min":63,"x_max":668,"o":"m 253 72 q 451 67 351 65 q 668 71 551 68 l 668 15 q 595 6 632 10 q 521 3 558 3 q 422 1 472 3 q 319 0 371 0 q 216 3 267 0 q 118 14 165 6 q 68 35 74 21 q 82 92 63 49 q 154 238 114 161 q 235 395 194 315 q 313 555 276 475 q 374 708 349 635 q 365 805 382 761 q 310 874 349 849 q 272 840 286 860 q 250 797 257 821 q 159 782 204 790 q 68 765 114 774 q 100 867 65 828 q 188 925 135 907 q 303 940 240 943 q 419 915 365 938 q 509 853 472 893 q 547 754 546 813 q 539 697 547 726 q 518 638 531 668 q 491 581 506 608 q 465 528 476 553 q 360 301 417 419 q 253 72 304 182 z "},"3":{"ha":638,"x_min":31,"x_max":624,"o":"m 610 283 q 588 138 624 203 q 531 75 564 100 q 458 35 497 50 q 374 13 418 19 q 288 3 331 6 q 240 1 278 3 q 158 0 201 -1 q 77 6 114 1 q 33 26 40 11 q 31 35 32 28 q 36 75 31 43 q 38 87 36 78 q 41 106 39 96 q 47 121 43 115 q 57 124 51 126 q 120 104 85 111 q 193 96 156 97 q 266 101 231 94 q 331 119 301 108 q 413 197 396 147 q 404 339 440 272 q 338 414 382 382 q 239 461 294 446 q 218 465 236 463 q 176 471 200 468 q 137 474 156 474 q 99 478 118 475 q 95 544 94 525 q 103 569 96 563 q 126 578 110 576 q 167 594 142 581 q 254 642 210 613 q 321 715 299 671 q 337 777 339 749 q 318 826 335 806 q 273 859 301 847 q 208 871 244 871 q 167 870 188 871 q 126 869 146 869 q 77 869 88 869 q 60 871 67 869 q 57 906 58 888 q 51 947 56 924 q 149 956 100 950 q 251 958 199 961 q 408 903 353 954 q 476 778 464 851 q 467 657 488 711 q 386 567 446 603 q 311 528 349 542 q 442 489 383 517 q 542 418 501 461 q 585 356 568 390 q 610 283 603 321 z "},"4":{"ha":617,"x_min":47,"x_max":578,"o":"m 413 893 q 484 908 447 900 q 560 925 521 917 q 569 461 564 689 q 578 0 574 233 l 426 0 q 426 31 426 1 q 426 103 426 61 q 426 190 426 144 q 425 269 426 236 q 424 292 425 279 q 422 317 424 306 q 414 336 419 328 q 396 344 408 344 q 306 347 351 346 q 215 350 260 347 q 183 351 210 350 q 126 353 156 351 q 72 356 96 354 q 47 358 47 357 q 47 490 47 422 q 47 622 47 558 q 49 741 47 686 q 51 835 50 796 q 54 881 53 864 q 63 906 56 897 q 83 917 69 914 q 121 922 96 919 q 160 928 140 925 q 204 935 181 932 q 197 679 201 804 q 190 426 193 554 q 245 426 221 426 q 294 424 269 425 q 348 422 319 424 q 415 421 376 421 q 415 542 415 485 q 414 657 414 600 q 413 772 414 714 q 413 893 413 829 z "},"5":{"ha":638,"x_min":58,"x_max":617,"o":"m 588 379 q 605 247 617 308 q 553 138 593 185 q 453 58 514 90 q 321 13 392 25 q 206 1 265 3 q 78 1 147 0 l 74 111 q 147 113 111 111 q 208 115 178 114 q 258 118 239 115 q 310 127 276 119 q 376 155 344 135 q 429 211 408 175 q 443 307 450 247 q 408 386 436 358 q 347 427 381 414 q 279 442 313 440 q 228 444 246 444 q 163 442 193 444 q 109 444 132 439 q 73 467 86 450 q 60 525 60 485 q 60 663 60 594 q 58 803 61 731 q 60 837 58 819 q 72 865 63 854 q 88 875 76 871 q 139 886 99 879 q 260 906 179 893 q 486 942 342 919 l 486 867 l 486 860 q 335 835 390 844 q 253 820 281 826 q 219 810 226 814 q 208 800 211 806 q 202 755 203 789 q 205 682 201 721 q 216 609 208 643 q 236 565 224 575 q 263 560 247 558 q 290 561 278 563 q 379 545 333 558 q 466 510 425 532 q 539 455 507 488 q 588 379 571 422 z "},"6":{"ha":657,"x_min":33,"x_max":629,"o":"m 590 406 q 626 283 622 351 q 601 157 629 215 q 548 83 581 114 q 475 34 515 53 q 390 7 435 15 q 299 0 344 -1 q 208 8 251 0 q 124 55 158 19 q 70 142 90 90 q 42 259 50 194 q 35 392 33 324 q 48 530 38 461 q 74 660 58 599 q 112 769 90 721 q 157 844 133 817 q 222 897 179 871 q 311 939 264 924 q 405 953 358 954 q 483 924 451 953 q 508 892 500 910 q 522 853 517 874 q 531 813 528 833 q 539 774 533 792 q 540 771 539 772 q 540 768 540 769 l 381 768 q 367 785 374 768 q 356 824 361 803 q 345 862 350 844 q 338 879 340 879 q 284 838 301 863 q 260 785 267 813 q 224 606 236 694 q 214 428 211 518 q 301 476 250 458 q 407 492 353 493 q 510 471 461 492 q 590 406 560 450 m 364 79 q 420 99 399 74 q 450 165 442 125 q 456 253 458 206 q 440 338 453 300 q 406 396 426 376 q 357 400 385 415 q 328 366 340 392 q 309 306 315 340 q 302 233 303 271 q 308 161 301 194 q 328 105 314 128 q 364 79 342 82 z "},"7":{"ha":543,"x_min":14,"x_max":496,"o":"m 476 294 q 480 149 475 222 q 486 4 485 76 q 394 1 438 1 q 303 1 351 1 q 303 210 300 106 q 310 419 306 314 q 319 631 315 524 q 321 847 322 738 q 260 848 299 849 q 177 846 221 847 q 92 843 133 844 q 24 842 50 842 q 18 885 21 861 q 14 928 15 908 q 74 938 35 933 q 159 943 113 942 q 256 944 206 944 q 349 940 306 943 q 424 929 392 936 q 467 911 456 922 q 490 860 485 892 q 494 792 496 828 q 489 722 493 757 q 485 663 485 688 q 480 478 482 571 q 476 294 478 386 z "},"8":{"ha":706,"x_min":32,"x_max":694,"o":"m 675 264 q 672 148 694 197 q 599 66 649 99 q 484 17 550 33 q 351 1 418 1 q 224 16 283 0 q 128 64 164 32 q 83 138 93 94 q 79 226 72 181 q 106 317 86 272 q 151 394 126 361 q 165 412 153 397 q 190 442 176 426 q 215 468 203 457 q 231 478 228 479 q 147 522 185 492 q 83 594 108 553 q 44 683 57 635 q 38 779 32 731 q 61 842 42 815 q 109 888 81 869 q 171 919 138 907 q 238 939 204 932 q 328 951 278 949 q 426 945 378 954 q 513 911 474 936 q 572 840 553 886 q 590 742 592 788 q 572 655 589 696 q 524 576 554 614 q 454 503 493 538 q 522 460 488 485 q 587 403 557 435 q 640 337 617 372 q 675 264 664 301 m 336 849 q 312 860 326 853 q 282 870 297 867 q 251 872 267 874 q 226 861 236 871 q 200 789 197 832 q 224 702 203 746 q 276 620 244 658 q 335 563 307 582 q 397 674 376 613 q 408 772 418 732 q 336 849 399 813 m 299 128 q 384 72 342 76 q 455 92 426 67 q 491 164 483 117 q 474 264 499 211 q 419 347 447 317 q 366 381 392 378 q 318 357 340 383 q 279 271 296 331 q 269 200 268 236 q 299 128 269 164 z "},"9":{"ha":622,"x_min":14,"x_max":590,"o":"m 588 600 q 590 452 590 529 q 585 298 589 375 q 574 145 581 221 q 558 0 567 69 l 497 0 q 446 -1 472 0 q 404 0 419 -1 q 414 67 410 26 q 421 156 418 108 q 426 255 424 203 q 428 354 428 307 q 429 442 429 401 q 429 510 429 483 q 343 461 396 479 q 235 444 290 443 q 131 465 181 444 q 54 532 81 486 q 18 659 22 589 q 42 788 14 729 q 95 863 63 832 q 169 915 128 894 q 255 943 210 935 q 346 950 300 951 q 501 904 440 954 q 575 749 563 854 q 588 600 583 675 m 339 699 q 337 746 339 714 q 326 808 335 778 q 301 857 318 839 q 253 864 283 875 q 208 807 224 849 q 189 715 192 765 q 197 619 186 665 q 232 550 208 572 q 283 535 263 522 q 315 578 303 547 q 333 644 328 608 q 339 699 339 681 z "},"\u0000":{"ha":0,"x_min":0,"x_max":0,"o":""},"\r":{"ha":374,"x_min":0,"x_max":0,"o":""}," ":{"ha":374,"x_min":0,"x_max":0,"o":""},"E":{"ha":646,"x_min":-3,"x_max":586,"o":"m 226 67 q 267 63 226 64 q 364 62 307 63 q 483 61 421 61 q 586 60 544 61 l 586 0 q 490 -5 547 -3 q 370 -8 433 -7 q 244 -8 307 -8 q 131 -6 182 -7 q 46 -2 79 -4 q 10 3 13 0 q 4 46 7 6 q 0 150 1 86 q -2 295 -1 214 q -3 462 -3 376 q -2 628 -3 547 q 1 775 -1 710 q 5 881 3 840 q 11 926 7 922 q 60 947 22 939 q 151 958 99 954 q 264 963 203 963 q 382 963 325 964 q 487 962 439 963 q 563 961 535 961 q 563 929 563 949 q 560 890 564 910 q 521 889 560 888 q 426 891 482 890 q 306 890 369 892 q 190 878 242 888 q 196 766 193 815 q 201 674 199 717 q 205 591 203 632 q 210 503 207 550 q 247 500 210 500 q 338 500 285 500 q 447 500 390 500 q 542 496 504 500 l 542 446 q 373 438 449 440 q 214 432 297 435 q 220 249 214 336 q 226 67 226 161 z "},"F":{"ha":515,"x_min":-3,"x_max":594,"o":"m 588 899 q 592 888 590 899 q 594 865 594 878 q 593 842 594 853 q 590 832 592 832 q 556 831 588 831 q 480 830 525 831 q 384 828 435 829 q 290 827 333 828 q 216 824 246 826 q 186 819 186 822 q 183 791 185 817 q 178 728 181 765 q 175 647 176 690 q 175 566 174 603 q 181 505 176 529 q 197 481 186 481 q 289 483 240 481 q 386 489 338 485 q 481 498 435 493 q 564 507 526 503 l 564 457 q 403 440 481 449 q 246 425 325 432 q 199 415 218 422 q 182 379 181 407 q 182 334 182 367 q 182 259 182 301 q 182 171 182 217 q 181 88 182 125 q 180 25 181 50 q 179 0 179 0 q 133 0 163 0 q 75 0 104 0 q 24 1 46 0 q 3 4 3 1 q 2 183 3 88 q 0 372 1 278 q -2 555 -1 467 q -3 714 -3 643 q -2 833 -3 785 q 3 894 -1 881 q 202 897 117 896 q 356 899 288 899 q 479 900 424 900 q 588 899 535 900 z "},"G":{"ha":725,"x_min":-8,"x_max":653,"o":"m 653 3 q 634 0 653 0 q 594 1 615 0 q 553 3 572 1 q 535 4 535 4 q 535 56 535 25 q 534 122 535 88 q 532 188 533 156 q 528 242 531 219 q 440 81 499 142 q 286 0 382 19 q 236 -6 264 -4 q 179 -5 208 -7 q 123 3 150 -3 q 75 21 96 10 q 31 67 46 38 q 10 132 17 97 q 3 202 4 167 q 1 265 3 238 q 21 601 -8 432 q 51 739 35 678 q 101 844 68 800 q 188 915 133 889 q 332 947 242 942 q 422 925 379 951 q 483 844 464 899 q 479 805 492 819 q 444 783 467 790 q 396 775 422 776 q 349 775 369 774 q 323 786 333 775 q 304 813 313 797 q 288 845 296 829 q 271 872 279 861 q 235 799 251 846 q 208 698 219 751 q 188 592 196 644 q 176 501 181 539 q 172 448 175 486 q 169 363 169 410 q 173 264 169 315 q 186 171 176 213 q 214 103 196 129 q 261 79 232 76 q 338 113 306 86 q 393 176 371 140 q 430 254 415 213 q 454 333 444 296 q 469 397 464 369 q 481 432 475 424 q 585 440 540 440 q 632 433 631 440 q 640 370 636 410 q 645 285 643 331 q 649 191 647 239 q 651 103 650 143 q 653 35 653 63 q 653 3 653 8 z "},"H":{"ha":722,"x_min":-3,"x_max":660,"o":"m 600 911 q 619 684 613 797 q 630 458 625 571 q 641 231 635 344 q 660 4 647 118 q 619 -1 643 1 q 570 -3 596 -3 q 518 -3 544 -4 q 469 -3 492 -3 q 467 22 468 0 q 467 76 467 44 q 466 147 467 108 q 464 219 465 185 q 460 282 463 254 q 453 322 457 310 q 326 329 386 326 q 196 328 267 332 q 198 144 203 222 q 197 1 193 67 q 151 -3 176 -3 q 99 -3 125 -3 q 48 -2 72 -3 q 6 -3 24 -1 q 1 44 3 -3 q -1 167 0 92 q -2 336 -1 242 q -3 525 -3 431 q -3 703 -3 619 q -3 844 -3 788 q -3 917 -3 900 q -3 896 -3 935 q 35 896 -3 894 q 171 900 74 897 q 183 653 178 774 q 196 408 189 532 q 258 406 229 406 q 317 406 288 406 q 378 406 347 406 q 446 403 410 406 q 443 529 443 472 q 443 642 443 586 q 442 758 443 699 q 435 892 440 818 q 515 906 475 901 q 600 911 556 911 z "},"I":{"ha":650,"x_min":-1,"x_max":608,"o":"m 607 872 q 554 870 593 869 q 474 871 515 871 q 401 867 433 871 q 369 856 369 864 q 380 658 379 764 q 379 447 381 553 q 376 240 378 340 q 381 58 375 139 q 431 59 401 60 q 494 57 461 58 q 556 56 526 56 q 607 58 586 56 q 606 31 607 46 q 604 4 604 17 q 462 -3 539 -3 q 305 -3 385 -4 q 147 -1 225 -3 q 4 0 69 1 q 4 16 4 8 q 3 32 4 24 q 52 39 24 36 q 112 44 81 42 q 173 49 143 46 q 225 56 203 51 q 222 233 221 144 q 224 410 222 321 q 223 588 225 499 q 211 771 221 678 q 206 817 208 800 q 198 844 204 835 q 176 856 192 853 q 132 857 161 858 q 107 856 126 857 q 65 856 88 856 q 24 856 43 856 q 0 856 4 856 q 0 877 -1 861 q 0 899 1 893 q 155 910 76 907 q 311 916 233 914 q 464 919 389 918 q 608 925 539 921 q 608 898 608 914 q 607 872 607 882 z "},"J":{"ha":618,"x_min":3,"x_max":792,"o":"m 146 899 q 306 912 225 908 q 467 917 386 915 q 628 921 547 918 q 792 932 710 924 l 792 878 q 723 867 767 869 q 638 860 679 865 q 567 838 596 854 q 543 788 539 822 q 570 488 561 636 q 564 188 579 339 q 508 75 557 118 q 392 14 458 32 q 256 3 326 -4 q 138 46 186 11 q 90 85 114 63 q 47 134 67 107 q 15 190 26 161 q 4 250 3 219 q 5 260 4 256 q 6 268 6 264 l 181 268 q 233 156 196 204 q 336 81 269 108 q 372 128 363 100 q 385 189 382 157 q 394 440 397 315 q 372 689 390 564 q 367 747 368 718 q 357 804 365 776 q 318 834 350 828 q 250 839 286 840 q 184 833 214 838 q 151 833 154 829 q 147 861 147 839 q 146 899 146 883 z "},"K":{"ha":711,"x_min":-1,"x_max":688,"o":"m 626 89 q 671 32 654 50 q 677 8 688 14 q 622 1 667 1 q 481 -1 576 1 q 417 83 449 40 q 353 165 386 125 q 283 243 321 206 q 201 310 246 281 q 188 253 192 286 q 183 185 183 221 q 185 113 183 149 q 188 47 186 76 q 184 17 188 29 q 169 -1 181 6 l 0 -1 q -1 8 0 3 q -1 19 -1 13 q 3 458 6 228 q -1 914 0 688 q 93 917 43 914 q 190 919 143 919 l 190 513 q 258 601 229 549 q 309 709 286 653 q 353 821 332 765 q 399 919 374 876 l 558 919 q 506 791 535 860 q 444 653 476 722 q 378 518 413 585 q 311 396 344 451 q 475 256 397 328 q 626 89 553 183 z "},"L":{"ha":642,"x_min":-1,"x_max":594,"o":"m 588 75 q 589 27 594 50 q 560 3 583 4 q 440 -2 500 -1 q 317 -1 379 -3 q 190 0 256 0 q 56 -3 125 0 q 14 3 28 -6 q 0 46 0 13 q 1 340 0 193 q 0 635 3 488 q -1 700 -1 664 q 1 773 0 736 q 2 845 1 810 q 3 910 3 881 q 8 911 3 911 q 31 911 13 911 q 86 911 50 911 q 186 913 122 911 q 190 704 190 810 q 188 492 189 599 q 187 278 188 385 q 190 71 186 172 q 381 69 286 71 q 588 75 476 68 z "},"M":{"ha":981,"x_min":1,"x_max":929,"o":"m 926 3 q 904 1 926 1 q 853 1 882 1 q 799 3 825 1 q 763 7 772 4 q 747 58 756 8 q 730 183 739 108 q 711 343 721 257 q 692 503 701 429 q 675 628 683 578 q 660 681 667 678 q 633 638 644 686 q 612 515 621 590 q 596 351 603 440 q 583 185 589 263 q 569 56 576 108 q 556 4 563 4 q 514 3 540 4 q 459 1 488 1 q 406 0 431 0 q 369 3 381 0 q 348 36 360 4 q 322 118 336 68 q 293 231 308 168 q 263 358 278 294 q 235 480 249 421 q 209 581 221 539 q 188 644 197 624 q 172 653 178 665 q 162 578 164 633 q 162 451 160 524 q 167 301 164 379 q 174 157 171 222 q 176 49 176 92 q 172 6 176 6 q 146 5 169 6 q 95 3 122 4 q 44 3 68 3 q 14 6 19 3 q 9 47 11 7 q 6 150 7 86 q 3 296 4 214 q 1 463 1 378 q 1 630 1 549 q 2 776 1 711 q 4 879 3 840 q 7 919 6 918 q 42 923 10 921 q 113 926 75 925 q 183 925 150 926 q 218 919 215 924 q 245 863 229 904 q 281 764 261 821 q 320 641 300 707 q 360 511 340 575 q 398 391 381 447 q 428 296 415 335 q 449 242 442 257 q 457 249 457 228 q 463 310 457 260 q 479 431 469 361 q 501 581 489 500 q 526 733 514 661 q 548 858 538 804 q 564 931 558 913 q 597 938 565 933 q 666 943 628 942 q 736 943 704 944 q 771 933 768 942 q 799 819 782 899 q 835 638 817 739 q 871 427 853 536 q 902 226 889 318 q 922 72 915 133 q 926 3 929 10 z "},"N":{"ha":840,"x_min":4,"x_max":771,"o":"m 771 11 q 756 7 771 10 q 719 1 742 4 q 668 -3 696 -1 q 615 -5 640 -6 q 572 -1 590 -4 q 546 10 553 1 q 485 93 517 43 q 420 202 453 143 q 354 324 388 261 q 289 444 321 386 q 227 551 257 503 q 171 632 197 600 q 173 482 172 561 q 174 322 174 403 q 175 160 175 240 q 176 6 175 81 q 131 1 160 3 q 74 1 103 0 q 25 3 46 1 q 4 7 4 4 q 4 103 4 33 q 4 264 4 174 q 4 455 4 354 q 4 644 4 556 q 5 799 4 733 q 6 886 6 865 q 108 892 61 892 q 211 893 154 892 q 302 737 254 822 q 401 561 350 651 q 505 382 453 471 q 607 217 557 293 q 605 360 607 278 q 599 533 603 442 q 590 717 594 624 q 583 893 586 810 q 674 894 629 893 q 764 896 719 896 q 763 715 763 822 q 766 487 764 608 q 769 241 768 365 q 771 11 771 117 z "},"O":{"ha":808,"x_min":-4,"x_max":769,"o":"m 632 771 q 740 578 710 686 q 750 357 769 469 q 661 143 731 240 q 573 58 625 92 q 461 8 521 24 q 338 -3 401 -7 q 218 26 275 1 q 109 107 153 54 q 39 226 65 160 q 4 368 13 293 q 1 514 -4 443 q 18 628 6 568 q 56 742 31 688 q 118 841 81 797 q 210 908 156 885 q 326 931 267 933 q 440 906 385 928 q 544 849 494 885 q 632 771 593 813 m 561 310 q 572 465 581 390 q 535 599 563 539 q 468 703 508 660 q 384 768 428 747 q 298 784 340 789 q 224 741 256 779 q 178 629 193 703 q 175 439 164 556 q 185 338 176 388 q 212 244 193 288 q 262 163 231 200 q 342 99 293 125 q 426 88 389 71 q 491 142 464 104 q 535 228 518 181 q 561 310 553 276 z "},"P":{"ha":394,"x_min":-1,"x_max":572,"o":"m 561 793 q 566 704 572 749 q 539 621 560 660 q 485 551 518 582 q 411 503 453 519 q 290 457 360 479 q 163 415 221 435 q 165 294 164 349 q 169 191 167 239 q 173 97 171 143 q 179 4 175 51 q 142 1 171 3 q 83 0 114 0 q 28 0 53 0 q 4 0 4 0 q 3 136 4 51 q 1 318 3 221 q -1 515 0 415 q -1 694 -1 614 q -1 826 -1 775 q 1 881 -1 878 q 92 928 31 911 q 224 949 154 944 q 359 944 293 953 q 464 919 425 936 q 526 867 501 901 q 561 793 551 833 m 390 610 q 411 674 406 636 q 411 749 417 711 q 388 818 406 786 q 342 864 371 850 q 296 874 322 874 q 242 870 269 875 q 191 853 215 865 q 153 826 167 842 q 147 798 149 822 q 146 740 146 774 q 147 667 146 706 q 149 595 147 628 q 152 540 150 563 q 156 518 154 518 q 200 514 168 511 q 269 528 232 517 q 340 561 306 540 q 390 610 374 582 z "},"Q":{"ha":822,"x_min":-1,"x_max":767,"o":"m 688 181 q 672 134 672 154 q 684 98 672 114 q 715 69 696 82 q 760 44 735 57 q 692 -10 726 14 q 618 -58 657 -35 q 566 -23 585 -44 q 527 15 547 -1 q 479 35 507 31 q 400 21 451 39 q 312 3 357 6 q 223 10 267 0 q 140 42 179 19 q 72 101 101 65 q 21 200 36 146 q 3 311 6 254 q 13 490 -1 397 q 67 663 28 583 q 187 824 117 765 q 332 901 257 882 q 482 900 407 919 q 618 828 557 881 q 719 694 679 776 q 764 506 758 613 q 760 392 767 449 q 733 283 753 336 q 688 181 717 229 m 563 254 q 605 449 604 360 q 578 605 606 538 q 504 717 551 672 q 403 776 457 761 q 294 776 349 792 q 200 708 240 760 q 141 567 160 657 q 139 346 122 478 q 231 149 154 217 q 442 88 307 81 q 424 115 439 93 q 394 164 408 138 q 374 214 381 190 q 382 244 367 238 q 451 279 415 264 q 522 311 486 294 q 541 275 533 289 q 556 247 549 261 q 563 254 563 254 z "},"R":{"ha":753,"x_min":-3,"x_max":738,"o":"m 371 436 q 399 383 371 421 q 469 298 428 346 q 559 199 511 250 q 647 106 607 149 q 713 34 688 63 q 732 4 738 6 q 693 -1 724 0 q 628 -3 663 -3 q 565 -1 594 -3 q 531 3 536 0 q 499 33 518 7 q 452 97 479 60 q 392 178 425 135 q 323 260 360 221 q 245 328 286 299 q 163 367 204 357 q 169 193 169 283 q 175 7 169 103 q 151 3 174 4 q 101 1 129 1 q 47 3 72 1 q 14 10 22 6 q 8 115 10 47 q 6 265 6 183 q 6 435 6 347 q 7 601 7 524 q 6 738 7 679 q 3 819 6 796 q 28 885 -3 857 q 111 928 60 913 q 226 945 163 943 q 348 932 289 947 q 453 884 407 917 q 519 797 500 851 q 533 721 532 761 q 523 642 533 681 q 491 568 513 603 q 439 508 469 533 q 422 494 433 504 q 399 474 411 485 q 379 453 388 464 q 371 436 371 442 m 158 508 q 242 526 201 513 q 313 563 282 539 q 365 622 344 588 q 392 706 386 657 q 367 793 397 760 q 295 837 338 826 q 212 834 253 847 q 154 783 171 821 l 158 508 z "},"S":{"ha":671,"x_min":-33,"x_max":613,"o":"m 596 257 q 577 119 613 176 q 478 29 542 61 q 338 -9 415 -3 q 190 6 260 -15 q 70 76 119 28 q 17 204 21 125 l 189 204 q 213 150 193 182 q 263 92 233 118 q 325 53 292 65 q 388 61 358 42 q 428 109 418 81 q 433 170 438 138 q 412 236 428 203 q 376 300 396 269 q 333 355 356 331 q 294 393 311 379 q 185 466 244 432 q 75 542 125 500 q -4 641 25 585 q -22 781 -33 697 q 24 871 -15 832 q 117 932 63 910 q 231 958 171 954 q 341 942 292 961 q 419 879 390 922 q 439 764 447 836 l 272 764 q 257 793 267 774 q 236 831 247 813 q 212 866 225 850 q 186 886 199 882 q 144 812 153 856 q 151 719 135 768 q 208 626 171 665 q 291 556 246 588 q 385 497 336 525 q 476 435 433 468 q 551 360 518 403 q 596 257 583 317 z "},"T":{"ha":492,"x_min":-65,"x_max":644,"o":"m 610 874 q 565 871 592 872 q 510 868 539 869 q 451 865 481 867 q 400 861 422 863 q 399 656 400 765 q 399 436 397 547 q 409 215 401 325 q 436 4 417 104 q 394 2 411 3 q 358 1 376 1 q 315 1 339 1 q 254 0 292 1 q 242 42 246 0 q 237 153 239 83 q 235 313 235 224 q 234 497 235 403 q 232 683 233 592 q 226 849 231 775 q 160 853 193 854 q 94 851 128 853 q 25 847 61 849 q -54 849 -11 846 q -60 864 -57 854 q -64 884 -62 874 q -63 902 -65 894 q -54 910 -61 910 q 128 921 32 918 q 316 925 224 924 q 493 929 408 926 q 643 939 578 932 l 644 876 l 610 874 z "},"U":{"ha":840,"x_min":0,"x_max":794,"o":"m 671 300 q 713 143 678 219 q 794 0 749 67 q 691 4 732 3 q 607 3 650 6 q 592 14 599 3 q 581 40 586 25 q 571 70 576 56 q 560 90 565 85 q 496 47 528 63 q 433 21 464 31 q 370 7 401 11 q 310 -1 339 3 q 209 6 260 -8 q 115 48 158 19 q 44 117 72 76 q 10 207 15 158 q 1 381 1 286 q 1 575 0 476 q 3 769 1 674 q 0 942 4 864 l 161 942 q 163 894 163 928 q 164 822 164 860 q 163 751 164 785 q 163 704 163 718 q 165 519 164 607 q 175 360 165 432 q 207 235 185 289 q 274 153 229 182 q 373 118 332 114 q 440 151 414 122 q 478 224 465 179 q 493 314 490 269 q 495 454 496 378 q 492 613 494 531 q 488 780 490 694 q 486 947 486 865 l 649 947 q 652 776 651 864 q 653 604 653 689 q 658 442 654 519 q 671 300 663 364 z "},"V":{"ha":600,"x_min":-108,"x_max":643,"o":"m 643 914 q 582 696 607 806 q 532 474 557 586 q 479 246 507 361 q 411 10 451 131 q 361 3 388 4 q 303 3 335 3 q 276 40 297 3 q 224 140 254 78 q 156 281 193 201 q 83 445 119 361 q 10 610 46 529 q -51 756 -25 690 q -93 865 -78 822 q -106 914 -108 907 l 63 914 q 89 840 69 889 q 135 733 108 792 q 192 610 163 674 q 251 492 222 547 q 301 399 279 438 q 335 350 324 360 q 352 435 340 382 q 378 548 364 488 q 408 672 393 608 q 435 787 422 735 q 457 874 449 839 q 467 914 465 908 l 643 914 z "},"W":{"ha":1043,"x_min":-17,"x_max":919,"o":"m -15 932 q 6 942 -14 939 q 53 946 26 946 q 108 943 81 946 q 149 935 135 940 q 164 882 156 932 q 181 758 172 832 q 200 598 190 683 q 219 438 210 513 q 236 314 228 364 q 251 261 244 264 q 272 283 263 257 q 290 356 282 310 q 305 462 299 401 q 317 586 311 522 q 327 712 322 650 q 337 823 332 774 q 346 903 342 872 q 356 938 350 935 q 399 949 374 946 q 452 951 425 953 q 504 946 479 950 q 544 935 529 942 q 565 898 553 931 q 590 815 576 865 q 619 703 604 765 q 647 577 633 640 q 675 456 661 514 q 701 356 689 397 q 722 294 713 314 q 738 286 732 274 q 748 358 746 304 q 749 483 750 413 q 744 631 747 554 q 738 774 740 708 q 734 882 735 839 q 738 928 733 925 q 771 939 747 933 q 822 947 794 944 q 873 945 849 949 q 907 931 897 942 q 910 888 908 928 q 915 785 913 849 q 918 641 917 722 q 919 476 919 560 q 919 310 919 392 q 917 164 919 229 q 913 57 915 99 q 904 10 910 15 q 865 1 896 3 q 801 1 835 0 q 739 6 767 3 q 710 11 711 8 q 679 69 697 28 q 640 168 661 111 q 597 291 619 225 q 553 421 575 357 q 513 542 532 485 q 481 637 494 599 q 459 690 467 675 q 451 683 451 704 q 447 621 451 671 q 435 501 443 571 q 417 351 428 431 q 395 201 407 272 q 371 78 383 131 q 347 11 358 25 q 313 5 344 8 q 244 -1 282 1 q 175 -1 207 -3 q 140 8 143 0 q 120 87 132 35 q 96 207 108 139 q 70 353 83 275 q 44 510 57 432 q 19 663 31 589 q 1 794 8 736 q -12 889 -7 851 q -15 932 -17 926 z "},"X":{"ha":811,"x_min":-11,"x_max":767,"o":"m 465 458 q 615 228 540 347 q 767 0 690 108 q 664 0 717 -3 q 560 0 611 3 q 460 165 511 81 q 346 326 410 249 q 274 163 308 242 q 204 6 240 85 q 200 -1 201 0 q 108 -2 154 -1 q 17 -3 63 -3 q 18 1 17 0 q 52 74 35 38 q 88 146 69 110 q 171 304 129 225 q 257 467 213 383 q 191 570 224 513 q 125 687 158 628 q 58 803 92 746 q -11 910 24 861 l 194 910 q 230 847 211 883 q 267 770 249 810 q 307 692 286 731 q 349 624 328 654 q 377 692 364 654 q 402 769 390 731 q 425 845 414 808 q 447 910 436 882 l 615 910 q 586 826 603 874 q 549 729 569 779 q 508 631 529 679 q 465 544 486 583 q 451 502 453 521 q 465 458 449 483 z "},"Y":{"ha":543,"x_min":-117,"x_max":485,"o":"m 325 943 q 406 942 365 943 q 485 940 446 940 q 458 717 471 825 q 433 496 444 608 q 410 262 421 383 q 392 -1 400 140 q 350 -3 368 -4 q 313 -2 332 -3 q 272 0 294 -1 q 215 0 249 1 q 234 137 228 83 q 244 233 240 190 q 250 318 247 276 q 257 421 253 360 l -117 940 l 85 940 q 194 776 138 868 q 306 593 250 683 q 313 682 311 639 q 316 767 315 725 q 319 851 317 808 q 325 943 321 894 z "},"Z":{"ha":643,"x_min":4,"x_max":604,"o":"m 189 63 q 390 59 289 58 q 604 63 492 60 l 604 6 q 477 1 539 3 q 355 -1 415 0 q 232 -1 294 -1 q 101 1 169 0 q 56 3 78 1 q 22 12 35 4 q 6 35 8 19 q 18 82 4 51 q 199 480 108 276 q 388 875 290 683 q 235 869 310 879 q 86 863 160 858 q 82 919 82 892 q 193 928 142 925 q 297 935 244 932 q 410 940 350 938 q 547 946 469 943 q 585 935 572 946 q 582 897 597 924 q 469 696 521 799 q 372 488 418 593 q 280 276 325 383 q 189 63 235 168 z "},"a":{"ha":594,"x_min":-1,"x_max":583,"o":"m 583 3 q 549 -1 575 0 q 493 -1 524 -1 q 433 0 463 -1 q 390 4 404 1 q 386 15 389 6 q 381 36 383 25 q 376 57 379 47 q 372 69 374 67 q 341 47 353 57 q 319 29 329 38 q 297 14 308 21 q 267 0 286 7 q 207 -10 242 -8 q 138 -5 172 -12 q 72 19 103 3 q 24 65 42 36 q 3 126 7 92 q 3 194 -1 160 q 21 260 8 228 q 51 318 33 293 q 149 410 89 371 q 269 459 208 449 q 385 445 331 469 q 465 347 439 421 q 493 267 478 311 q 524 176 508 222 q 556 85 540 131 q 583 3 571 40 m 288 117 q 297 158 293 129 q 301 222 301 188 q 295 290 300 257 q 280 344 290 324 q 253 368 269 365 q 211 344 236 371 q 178 298 193 325 q 156 242 164 271 q 150 184 149 213 q 167 132 151 156 q 190 107 174 119 q 224 90 206 94 q 260 90 243 85 q 288 117 278 94 z "},"b":{"ha":567,"x_min":-1,"x_max":536,"o":"m 272 463 q 378 456 329 475 q 463 400 428 438 q 517 311 499 363 q 534 206 536 260 q 507 101 532 151 q 428 14 482 50 q 374 -3 411 3 q 289 -12 336 -10 q 192 -15 242 -15 q 100 -11 142 -14 q 31 -3 58 -8 q 4 7 4 1 q 3 222 4 108 q 2 453 3 335 q 0 692 1 572 q -1 925 -1 811 l 167 925 q 171 893 169 925 q 173 813 172 861 q 174 706 174 764 q 175 594 175 647 q 176 501 175 540 q 179 449 178 461 q 193 447 179 444 q 224 451 207 449 q 255 458 240 454 q 272 463 269 463 m 404 181 q 411 229 411 201 q 403 284 411 257 q 381 333 396 311 q 342 367 365 356 q 277 378 306 385 q 228 353 249 372 q 194 306 207 333 q 181 253 182 278 q 200 133 175 183 q 262 65 225 82 q 339 74 299 49 q 404 181 379 99 z "},"c":{"ha":500,"x_min":-3,"x_max":458,"o":"m 415 88 q 436 60 425 72 q 458 38 447 49 q 343 11 406 24 q 219 0 281 -1 q 106 25 158 1 q 22 107 53 49 q 2 164 7 133 q -1 225 -3 194 q 10 285 1 256 q 32 342 19 315 q 108 428 60 397 q 215 472 156 460 q 305 478 258 481 q 392 458 351 476 q 418 438 406 451 q 439 408 431 425 q 452 374 447 392 q 458 342 457 357 q 369 340 408 342 q 297 342 329 339 q 277 353 285 342 q 263 377 269 364 q 250 401 257 390 q 232 413 243 413 q 206 395 217 413 q 190 355 196 378 q 181 310 183 332 q 176 278 178 288 q 177 205 174 244 q 201 136 181 165 q 243 101 215 117 q 302 76 271 85 q 364 69 333 68 q 415 88 394 71 z "},"d":{"ha":535,"x_min":-1,"x_max":472,"o":"m 460 811 q 458 744 458 792 q 458 628 457 696 q 459 481 458 561 q 462 317 460 400 q 467 152 464 233 q 472 3 469 71 l 311 3 q 310 34 308 14 q 310 64 313 54 q 256 32 279 43 q 211 15 232 21 q 169 6 190 8 q 122 1 147 4 q 70 9 93 -1 q 31 38 47 19 q 7 83 15 57 q 0 138 -1 108 q 20 258 1 207 q 75 347 39 310 q 164 411 111 385 q 285 457 217 438 q 289 544 288 503 q 291 628 290 586 q 292 717 292 671 q 294 821 293 764 q 348 821 319 819 q 401 822 376 822 q 443 820 426 822 q 460 811 460 818 m 282 190 q 288 240 289 215 q 283 289 286 264 q 278 326 281 307 q 267 358 275 346 q 245 371 260 369 q 206 354 231 372 q 148 281 167 324 q 131 190 129 239 q 147 135 131 157 q 179 111 161 115 q 215 113 197 107 q 247 134 232 119 q 272 165 263 149 q 277 178 275 172 q 282 190 279 183 m 163 429 q 159 433 160 432 q 161 432 158 435 q 159 433 157 435 q 164 431 161 432 l 163 429 z "},"e":{"ha":507,"x_min":-7,"x_max":483,"o":"m 481 122 q 481 92 481 107 q 483 61 482 76 q 399 31 443 44 q 308 8 354 17 q 217 0 263 0 q 129 13 172 0 q 50 59 81 25 q 6 138 19 93 q -3 231 -7 182 q 17 321 0 279 q 60 388 31 357 q 125 442 89 419 q 202 477 161 465 q 281 485 243 489 q 352 461 319 482 q 406 397 385 440 q 416 371 410 388 q 427 336 422 354 q 433 301 432 318 q 426 276 433 285 q 393 256 417 261 q 341 250 369 251 q 282 248 313 249 q 228 242 251 247 q 191 222 204 236 q 183 181 178 208 q 243 85 194 111 q 358 83 292 60 q 419 105 389 94 q 481 122 449 115 m 254 342 q 229 381 243 375 q 204 377 215 388 q 187 344 193 367 q 185 300 181 322 q 185 299 185 299 q 186 297 186 299 q 197 284 189 288 q 213 281 204 281 q 231 286 222 282 q 246 296 240 290 q 254 342 261 315 z "},"f":{"ha":394,"x_min":-4,"x_max":449,"o":"m 276 804 q 240 701 251 750 q 227 603 229 651 q 229 507 225 556 q 238 406 233 458 q 303 408 274 408 q 367 410 333 407 l 367 354 q 301 349 326 350 q 263 349 276 349 q 243 348 249 349 q 238 342 238 347 q 238 291 238 324 q 240 221 239 258 q 242 144 242 183 q 244 74 243 106 q 244 22 244 43 q 244 0 244 1 q 160 -1 196 0 q 82 -3 125 -3 q 81 30 81 4 q 81 91 81 56 q 83 167 82 126 q 85 244 85 208 q 83 306 85 279 q 79 339 82 332 q 69 340 78 340 q 50 338 61 339 q 26 335 39 336 q 3 335 13 333 q 0 358 4 346 q 3 378 -4 371 q 16 382 4 379 q 41 388 28 385 q 65 392 54 390 q 76 392 76 393 q 76 521 76 457 q 79 656 76 585 q 117 801 82 739 q 224 892 153 864 q 317 907 278 914 q 382 873 356 900 q 424 801 408 846 q 449 703 440 757 l 332 703 q 317 728 325 713 q 303 758 310 743 q 289 785 296 772 q 276 804 282 797 z "},"g":{"ha":507,"x_min":-6,"x_max":460,"o":"m 421 424 q 452 369 444 400 q 458 307 460 339 q 453 106 454 213 q 449 -111 453 0 q 442 -196 447 -154 q 426 -276 438 -237 q 394 -351 415 -315 q 339 -421 374 -387 q 274 -453 315 -444 q 188 -458 232 -461 q 101 -440 143 -454 q 35 -406 60 -426 q -6 -350 0 -375 q 58 -305 25 -326 q 122 -264 90 -283 q 165 -310 144 -287 q 208 -357 185 -332 q 249 -262 238 -310 q 264 -167 261 -214 q 264 -72 267 -119 q 261 24 261 -25 q 191 11 222 17 q 129 -1 160 6 q 40 8 69 -14 q 6 74 11 31 q 15 173 0 117 q 60 285 29 229 q 132 388 90 340 q 222 459 174 435 q 322 478 271 483 q 421 424 372 474 m 264 133 q 264 276 265 206 q 248 351 261 333 q 217 358 235 368 q 183 319 200 349 q 154 251 165 289 q 142 176 143 214 q 158 114 142 139 q 190 88 168 99 q 231 75 211 76 q 250 81 243 75 q 260 94 257 86 q 263 113 263 103 q 264 133 264 124 z "},"h":{"ha":578,"x_min":0,"x_max":549,"o":"m 533 228 q 544 113 542 171 q 549 0 546 56 l 372 0 l 369 0 q 375 27 372 0 q 376 92 378 54 q 367 172 375 131 q 344 243 360 214 q 303 282 329 272 q 239 265 278 292 q 194 216 211 246 q 166 149 176 186 q 153 74 156 113 q 151 0 150 35 l 3 0 q 0 207 0 110 q 1 399 0 304 q 1 590 1 493 q 1 794 1 686 q 34 799 11 797 q 81 799 57 800 q 126 798 106 799 q 154 796 147 797 q 159 699 158 746 q 158 603 160 651 q 156 504 157 556 q 158 394 156 453 q 226 415 189 403 q 301 433 263 426 q 375 438 339 440 q 440 415 411 436 q 504 331 485 382 q 533 228 524 281 z "},"i":{"ha":232,"x_min":-4,"x_max":194,"o":"m 175 374 l 3 374 q -1 178 -1 267 q 3 -3 -1 89 l 186 -3 q 183 86 183 43 q 181 174 182 129 q 178 267 179 218 q 175 374 176 317 m 186 693 q 188 672 194 683 q 164 650 181 661 q 124 631 147 639 q 78 619 101 622 q 35 617 54 615 q 6 629 15 618 q 2 655 -4 642 q 25 679 8 668 q 65 698 42 690 q 111 708 88 706 q 155 708 135 711 q 186 693 175 704 z "},"j":{"ha":307,"x_min":-139,"x_max":247,"o":"m -139 -282 q -62 -247 -100 -264 q 13 -211 -24 -229 q 25 -235 18 -221 q 40 -260 32 -249 q 58 -279 49 -272 q 81 -282 68 -286 q 70 45 82 -115 q 58 365 58 206 q 84 371 58 368 q 140 375 110 374 q 197 376 171 376 q 224 374 224 376 q 228 310 226 356 q 233 206 231 264 q 237 82 235 147 q 240 -41 239 17 q 242 -143 242 -99 q 244 -204 243 -187 q 226 -297 247 -256 q 168 -365 204 -337 q 86 -403 132 -392 q -3 -406 40 -414 q -84 -367 -47 -397 q -139 -282 -121 -336 m 211 678 q 213 657 219 668 q 189 635 206 646 q 149 615 172 624 q 103 603 126 607 q 60 601 79 600 q 31 614 40 603 q 27 640 21 626 q 50 664 33 653 q 90 683 67 675 q 136 693 113 690 q 180 692 160 696 q 211 678 200 689 z "},"k":{"ha":578,"x_min":0,"x_max":560,"o":"m 324 292 q 387 223 353 256 q 453 156 421 190 q 513 83 485 121 q 560 3 542 46 q 461 -2 511 -4 q 358 1 411 0 q 318 49 339 22 q 276 105 297 76 q 235 161 256 133 q 193 211 214 189 q 174 203 188 208 q 176 164 174 192 q 182 106 179 136 q 186 49 185 75 q 185 14 188 22 q 94 1 142 4 q 3 -1 47 -1 q 2 7 3 3 q 1 17 1 11 q 1 399 1 211 q 0 788 0 586 q 83 791 44 788 q 167 794 122 794 q 175 621 171 706 q 183 453 179 536 l 196 449 q 245 522 225 481 q 292 596 265 564 l 449 596 q 381 485 415 540 q 310 369 346 429 q 301 328 296 346 q 324 292 306 311 z "},"l":{"ha":232,"x_min":-6,"x_max":178,"o":"m 164 821 q 165 417 164 618 q 178 0 167 215 l 1 0 q -2 403 -6 204 q 0 819 1 601 q 83 820 40 819 q 164 821 125 821 z "},"m":{"ha":822,"x_min":-3,"x_max":765,"o":"m 750 439 q 759 388 756 425 q 764 303 763 351 q 765 203 765 256 q 763 108 764 151 q 758 35 761 64 q 753 4 756 6 q 733 2 750 3 q 691 1 715 1 q 641 0 667 0 q 596 0 615 0 q 597 114 593 50 q 603 234 601 178 q 600 330 606 290 q 569 372 594 369 q 502 347 522 378 q 476 266 482 315 q 473 158 471 217 q 472 53 475 100 l 311 53 q 317 145 313 93 q 324 244 322 197 q 320 325 325 290 q 297 367 315 360 q 233 371 257 382 q 194 331 208 360 q 176 260 181 303 q 171 172 171 218 q 172 81 171 126 q 174 0 174 36 q 86 1 132 0 q 0 3 40 3 q -1 189 -3 92 q 1 404 1 286 q 1 444 1 429 q 6 467 1 458 q 22 481 10 476 q 58 490 33 486 q 111 498 82 496 q 167 507 140 500 q 176 476 172 490 q 183 450 181 461 q 234 494 211 481 q 290 511 257 508 q 344 513 321 514 q 385 506 367 513 q 419 486 404 500 q 451 450 435 472 q 488 474 472 464 q 521 491 504 483 q 556 504 538 499 q 601 514 575 510 q 644 511 621 517 q 688 495 667 506 q 726 469 710 485 q 750 439 743 454 z "},"n":{"ha":571,"x_min":0,"x_max":532,"o":"m 493 363 q 503 319 497 350 q 514 251 508 289 q 524 171 519 213 q 530 94 528 129 q 531 35 532 60 q 525 6 531 10 q 507 0 521 1 q 474 -2 493 -1 q 431 -2 454 -3 q 385 0 407 -1 q 386 59 383 21 q 390 142 389 97 q 386 229 390 186 q 367 302 382 272 q 323 343 351 332 q 246 335 294 354 q 215 294 226 326 q 198 220 203 263 q 192 133 193 178 q 194 55 192 89 q 198 4 196 21 q 200 3 200 -12 q 169 1 200 3 q 101 -3 139 -1 q 33 -3 64 -4 q 3 8 3 -1 q 2 106 3 50 q 1 223 1 163 q 0 342 0 283 q 3 450 0 401 q 88 461 43 457 q 174 472 133 465 q 179 446 176 457 q 185 421 182 435 q 277 478 231 460 q 365 492 324 497 q 440 455 407 486 q 493 363 474 424 z "},"o":{"ha":535,"x_min":-4,"x_max":486,"o":"m 31 346 q 154 472 90 438 q 276 497 218 506 q 380 449 333 489 q 453 352 426 408 q 483 233 481 296 q 455 117 486 169 q 355 31 424 65 q 171 0 286 -3 q 59 35 97 1 q 8 119 21 68 q 3 229 -4 169 q 31 346 11 289 m 328 268 q 311 367 333 336 q 260 392 289 397 q 204 350 231 388 q 176 246 178 313 q 178 204 176 231 q 187 151 181 178 q 204 103 193 124 q 235 79 215 82 q 282 97 264 75 q 310 149 300 118 q 323 215 319 181 q 328 268 326 249 z "},"p":{"ha":549,"x_min":-1,"x_max":513,"o":"m 333 446 q 430 422 389 449 q 492 353 471 396 q 511 258 513 311 q 481 156 510 206 q 377 44 439 85 q 231 4 315 4 q 197 -6 211 4 q 172 -29 182 -15 q 158 -60 163 -43 q 153 -90 153 -76 q 155 -190 156 -142 q 156 -292 154 -239 q 155 -319 156 -311 q 149 -329 154 -326 q 134 -331 144 -332 q 106 -329 124 -329 q 54 -328 79 -329 q 3 -328 29 -328 q 0 31 1 -144 q 6 396 -1 206 q 40 407 15 401 q 96 418 64 413 q 164 428 128 424 q 233 437 200 433 q 293 442 267 440 q 333 446 319 444 m 318 194 q 325 258 326 221 q 311 325 324 294 q 272 372 299 356 q 204 372 246 388 q 182 344 192 368 q 166 286 172 319 q 158 215 160 253 q 158 144 156 176 q 168 90 161 113 q 189 67 175 68 q 228 77 207 64 q 267 110 249 90 q 299 153 285 131 q 318 194 313 176 z "},"q":{"ha":608,"x_min":-10,"x_max":658,"o":"m 651 -122 q 647 -129 658 -115 q 612 -169 635 -143 q 561 -226 589 -194 q 508 -285 533 -257 q 465 -333 483 -314 q 447 -351 447 -351 q 419 -352 436 -351 q 383 -353 401 -353 q 352 -353 365 -353 q 339 -351 339 -353 q 338 -321 338 -350 q 337 -249 338 -292 q 335 -157 336 -207 q 333 -65 335 -107 q 328 6 331 -22 q 321 33 325 33 q 286 27 299 31 q 262 19 274 24 q 238 11 250 15 q 203 4 225 7 q 161 3 186 1 q 110 10 136 4 q 63 24 85 15 q 28 49 40 33 q -7 154 -10 93 q 23 276 -4 215 q 92 386 50 336 q 178 460 135 436 q 288 502 232 488 q 392 508 344 517 q 474 464 440 500 q 513 356 507 428 q 515 303 514 344 q 516 207 515 263 q 517 90 517 151 q 516 -21 517 29 q 513 -103 515 -71 q 508 -132 511 -135 q 529 -131 507 -132 q 579 -126 551 -129 q 651 -122 611 -124 m 244 90 q 288 145 269 106 q 317 233 307 185 q 329 326 328 281 q 321 399 331 372 q 289 422 311 425 q 231 369 267 419 q 193 295 207 335 q 176 214 179 256 q 175 173 175 200 q 181 122 175 146 q 202 85 188 97 q 244 90 217 74 z "},"r":{"ha":501,"x_min":0,"x_max":451,"o":"m 158 390 q 268 452 221 443 q 349 444 315 461 q 403 394 382 428 q 435 325 424 360 q 449 265 446 290 q 449 239 451 239 q 380 238 418 238 q 307 235 342 238 q 293 298 307 271 q 259 332 279 325 q 217 321 239 339 q 181 249 196 303 q 174 197 176 215 q 170 156 171 178 q 169 100 169 135 q 169 0 169 65 q 85 -1 122 0 q 0 -1 49 -1 q 0 99 0 42 q 0 218 0 157 q 1 337 0 279 q 1 439 1 394 q 14 448 1 444 q 47 453 26 451 q 92 456 67 454 q 140 458 117 457 q 144 441 142 454 q 148 415 146 428 q 153 394 150 403 q 158 390 156 386 z "},"s":{"ha":446,"x_min":3,"x_max":401,"o":"m 390 168 q 378 60 401 101 q 315 -1 356 18 q 222 -17 274 -19 q 124 9 171 -14 q 42 73 76 32 q 3 172 8 114 q 19 175 3 174 q 53 177 35 176 q 88 178 72 178 q 106 175 104 178 q 158 111 126 125 q 215 106 190 97 q 246 136 239 114 q 225 179 253 158 q 161 215 200 197 q 88 258 122 233 q 34 315 54 282 q 29 397 14 347 q 69 461 40 435 q 135 500 99 488 q 214 510 172 513 q 290 491 256 508 q 347 441 324 474 q 374 358 371 408 q 326 356 350 356 q 256 358 303 356 q 230 406 246 393 q 200 419 214 419 q 176 406 186 418 q 166 378 165 394 q 181 342 167 361 q 231 311 196 324 q 340 249 299 285 q 390 168 382 214 z "},"t":{"ha":450,"x_min":0,"x_max":431,"o":"m 275 460 q 325 464 304 461 q 363 468 346 467 q 396 470 381 469 q 431 471 411 471 q 430 422 431 447 q 426 392 429 396 q 397 391 418 392 q 353 390 376 390 q 310 386 331 389 q 283 378 290 383 q 279 349 279 375 q 281 283 279 322 q 288 199 283 244 q 294 113 292 153 q 299 42 297 72 q 300 3 301 11 q 264 1 290 1 q 208 1 238 0 q 156 3 179 1 q 129 7 132 4 q 125 21 125 11 q 117 197 118 115 q 115 374 115 279 q 92 374 108 374 q 58 373 76 374 q 24 372 40 372 q 0 372 8 372 l 0 443 q 55 445 29 444 q 117 451 81 446 q 110 644 111 542 q 101 849 108 746 l 267 849 q 270 653 267 753 q 275 460 274 554 z "},"u":{"ha":586,"x_min":-4,"x_max":542,"o":"m 500 486 q 506 445 501 479 q 514 363 510 411 q 523 258 518 314 q 532 151 528 201 q 539 60 536 100 q 542 4 542 19 q 524 1 542 1 q 483 0 507 0 q 431 1 458 0 q 385 1 404 1 q 380 49 382 24 q 374 75 378 75 q 314 49 340 67 q 259 16 288 31 q 198 -1 231 1 q 119 19 165 -4 q 44 99 71 44 q 6 217 17 153 q 0 348 -4 282 q 18 463 4 414 q 88 465 57 464 q 165 464 118 465 q 159 417 158 453 q 165 335 160 381 q 181 243 171 290 q 205 163 192 196 q 235 119 218 131 q 269 132 251 107 q 300 203 289 160 q 317 297 311 247 q 325 394 322 346 q 332 481 328 443 q 375 483 347 482 q 431 486 403 485 q 479 488 458 488 q 500 486 500 488 z "},"v":{"ha":557,"x_min":-3,"x_max":554,"o":"m 554 503 q 532 451 549 493 q 493 354 515 410 q 446 236 471 299 q 399 122 421 174 q 361 35 378 69 q 339 0 344 0 l 153 0 q 114 115 133 49 q 75 249 94 181 q 36 385 56 318 q -3 503 17 451 l 172 503 q 195 425 185 465 q 215 347 206 385 q 235 280 225 310 q 257 235 244 250 q 273 227 265 224 q 288 241 281 231 q 301 265 296 251 q 310 286 307 278 q 327 333 314 299 q 356 406 340 368 q 383 473 371 443 q 399 503 396 503 q 476 506 436 510 q 554 503 515 503 z "},"w":{"ha":933,"x_min":-3,"x_max":971,"o":"m 808 476 q 856 475 828 475 q 909 476 883 475 q 953 476 935 476 q 971 476 971 476 q 941 392 960 440 q 900 294 922 344 q 856 193 878 243 q 813 102 833 143 q 778 33 793 61 q 757 0 763 6 q 721 1 735 0 q 695 1 707 1 q 669 2 683 1 q 635 3 656 3 q 611 56 622 24 q 588 122 600 88 q 563 189 576 157 q 532 242 549 221 q 508 246 521 256 q 483 213 496 236 q 457 159 469 190 q 435 97 444 128 q 418 39 425 65 q 408 0 411 13 l 222 0 q 174 113 199 60 q 121 219 149 165 q 63 335 93 274 q -3 472 32 396 q 69 474 43 474 q 113 475 94 475 q 146 476 131 475 q 188 476 161 476 q 224 416 206 450 q 260 345 243 382 q 296 272 278 308 q 332 207 314 236 q 352 267 340 233 q 375 336 364 300 q 398 408 386 372 q 418 476 410 444 q 504 476 465 475 q 590 476 543 478 q 610 413 599 447 q 635 344 622 379 q 660 274 649 308 q 681 211 672 240 q 749 349 719 279 q 808 476 778 419 z "},"x":{"ha":556,"x_min":-7,"x_max":514,"o":"m 325 249 q 340 229 325 247 q 376 184 354 211 q 423 126 397 157 q 469 67 449 94 q 501 22 489 40 q 511 3 514 3 q 479 1 503 1 q 428 -1 456 0 q 376 -1 401 -1 q 342 -1 351 -1 q 331 13 340 -1 q 309 47 322 26 q 282 90 296 67 q 256 132 268 113 q 237 95 244 110 q 221 67 229 81 q 202 39 213 54 q 176 0 192 24 q 129 1 150 0 q 89 1 108 1 q 48 2 69 1 q 0 3 26 3 q 30 51 10 24 q 74 110 50 79 q 124 175 99 142 q 168 242 149 208 q 157 267 171 246 q 122 319 143 289 q 77 383 101 350 q 33 445 53 417 q 3 491 14 474 q 0 506 -7 508 q 40 506 3 504 q 149 508 78 508 q 168 476 156 497 q 194 433 181 456 q 220 391 207 411 q 242 360 233 371 q 288 451 268 418 q 315 508 307 483 q 361 509 335 508 q 412 510 388 510 q 453 510 436 510 q 468 508 469 510 q 446 474 465 506 q 403 401 426 443 q 357 317 379 360 q 325 249 335 274 z "},"y":{"ha":549,"x_min":-7,"x_max":493,"o":"m 339 463 q 409 460 379 463 q 479 458 439 458 q 486 231 479 350 q 490 4 493 111 q 467 -185 488 -103 q 394 -300 447 -267 q 258 -340 321 -346 q 148 -301 194 -333 q 74 -224 101 -268 q 46 -149 47 -179 q 135 -153 100 -151 q 171 -156 169 -154 q 253 -228 219 -222 q 307 -201 288 -235 q 332 -101 326 -167 q 328 42 338 -36 q 240 7 289 19 q 144 -3 190 -6 q 62 17 97 -1 q 14 75 26 35 q -1 153 4 108 q -6 248 -6 197 q -4 353 -7 299 q 3 463 -1 408 q 71 461 35 463 q 138 460 107 460 q 136 392 138 428 q 135 325 135 357 q 138 240 135 285 q 155 163 142 194 q 194 122 168 131 q 267 144 221 113 q 313 206 299 167 q 332 291 326 246 q 337 382 338 336 q 339 463 336 428 z "},"z":{"ha":486,"x_min":8,"x_max":426,"o":"m 214 114 q 308 115 261 113 q 425 118 356 118 q 426 94 425 110 q 426 62 426 79 q 426 28 426 44 q 425 0 426 11 q 342 -3 379 -3 q 271 -2 306 -3 q 199 -1 236 -1 q 117 0 163 0 q 56 1 82 0 q 19 10 31 1 q 14 40 8 19 q 46 100 19 61 q 65 128 51 107 q 95 177 78 149 q 131 238 113 206 q 167 302 150 271 q 198 358 185 333 q 217 396 211 383 q 166 397 194 396 q 112 397 138 397 q 65 397 86 397 q 39 394 44 396 q 39 415 39 399 q 40 451 39 432 q 40 486 40 469 q 40 507 40 503 q 163 510 96 510 q 286 510 229 511 q 381 509 343 510 q 421 508 419 508 q 336 344 376 421 q 301 278 319 311 q 267 213 283 244 q 238 156 251 182 q 214 114 224 131 z "},".":{"ha":272,"x_min":40,"x_max":239,"o":"m 231 75 q 232 54 239 65 q 208 32 225 43 q 169 13 192 21 q 122 1 146 4 q 79 -1 99 -3 q 50 11 60 1 q 47 37 40 24 q 69 61 53 50 q 109 80 86 72 q 156 90 132 88 q 199 90 179 93 q 231 75 219 86 z "},"D":{"ha":715,"x_min":0,"x_max":682,"o":"m 60 899 q 225 924 143 929 q 380 886 307 918 q 512 799 453 854 q 610 672 571 743 q 666 519 650 601 q 667 353 682 438 q 624 225 656 286 q 544 115 592 164 q 422 39 492 61 q 279 7 353 17 q 253 5 275 7 q 199 1 231 3 q 133 0 168 0 q 69 1 99 0 q 19 7 39 3 q 0 19 0 11 l 0 256 q 1 533 0 394 q 1 810 3 671 q 1 847 1 833 q 7 870 1 861 q 24 885 13 879 q 60 899 36 890 m 438 188 q 490 343 482 258 q 481 507 497 428 q 440 624 468 568 q 371 726 411 679 q 349 749 365 733 q 313 781 333 764 q 271 813 293 797 q 228 838 249 829 q 194 843 208 846 q 175 821 179 840 q 173 789 175 819 q 169 708 171 758 q 164 594 167 658 q 160 461 161 529 q 161 326 160 393 q 167 204 163 260 q 179 111 171 149 q 200 63 188 74 q 209 56 204 58 q 219 51 214 54 q 287 51 254 40 q 347 83 319 61 q 399 133 375 104 q 438 188 422 161 z "},"?":{"ha":622,"x_min":29,"x_max":618,"o":"m 39 693 q 273 701 186 678 q 392 781 360 725 q 416 842 407 807 q 424 910 425 876 q 410 973 424 944 q 367 1015 396 1001 q 317 1022 347 1025 q 258 1005 288 1018 q 207 970 229 992 q 181 922 185 949 l 38 922 q 65 1026 29 979 q 158 1101 100 1072 q 289 1141 217 1131 q 426 1138 361 1151 q 540 1083 492 1124 q 600 969 588 1042 q 588 803 618 878 q 500 674 558 728 q 363 589 442 619 q 207 556 285 558 q 209 440 208 489 q 210 349 210 390 q 213 267 211 307 q 218 181 214 228 q 181 178 210 179 q 122 176 153 176 q 67 176 92 176 q 43 176 43 176 q 42 273 43 214 q 41 402 42 332 q 40 547 40 472 q 39 693 39 622 m 219 88 q 221 67 228 78 q 197 44 214 56 q 158 25 181 33 q 111 13 135 17 q 68 12 88 10 q 39 24 49 14 q 35 49 29 36 q 58 74 42 63 q 98 92 75 85 q 144 103 121 100 q 188 102 168 106 q 219 88 208 99 z "},"!":{"ha":279,"x_min":42,"x_max":240,"o":"m 215 1001 q 217 597 215 799 q 229 181 218 396 l 53 181 q 49 583 46 385 q 51 1000 53 782 q 134 1001 92 1000 q 215 1001 176 1001 m 232 75 q 233 54 240 65 q 210 32 226 43 q 170 13 193 21 q 124 1 147 4 q 81 -1 100 -3 q 51 11 61 1 q 48 37 42 24 q 71 61 54 50 q 110 80 88 72 q 157 90 133 88 q 201 90 181 93 q 232 75 221 86 z "},"A":{"ha":732,"x_min":11,"x_max":708,"o":"m 442 943 q 572 487 504 728 q 708 3 640 246 q 664 -2 685 -1 q 623 -3 643 -3 q 580 -3 603 -3 q 529 -6 557 -4 q 501 100 514 49 q 474 203 488 151 q 447 310 461 256 q 414 425 432 364 l 233 424 q 217 327 226 382 q 198 214 207 272 q 183 100 189 156 q 176 3 176 44 q 152 -3 176 0 q 97 -6 128 -6 q 41 -4 67 -7 q 11 10 15 -1 q 45 222 26 103 q 84 465 64 340 q 126 712 104 590 q 169 933 149 833 q 191 941 171 938 q 241 947 211 944 q 306 949 271 949 q 370 949 340 950 q 420 947 400 949 q 442 943 440 946 m 401 478 q 392 524 401 485 q 369 615 382 564 q 341 719 356 665 q 317 807 326 772 q 294 804 308 807 l 243 478 l 401 478 z "},"B":{"ha":781,"x_min":-1,"x_max":743,"o":"m 343 536 q 502 524 424 544 q 638 460 581 503 q 719 353 694 417 q 715 211 743 290 q 645 110 693 150 q 535 48 597 71 q 400 16 472 25 q 256 5 328 7 q 118 6 185 3 q 1 10 51 8 q 0 438 0 225 q -1 865 0 650 q 23 926 -1 903 q 85 961 47 950 q 169 974 122 972 q 261 971 215 976 q 346 954 307 965 q 408 929 385 943 q 492 837 468 894 q 508 719 517 779 q 456 608 499 660 q 343 536 414 557 m 188 906 q 162 855 167 896 q 160 765 157 814 q 168 669 163 715 q 175 604 174 624 q 190 580 175 582 q 228 590 206 578 q 278 626 251 603 q 326 678 304 650 q 361 735 347 706 q 374 789 375 764 q 353 846 371 819 q 310 889 336 872 q 251 910 283 906 q 188 906 219 915 m 549 236 q 534 349 558 294 q 463 435 510 403 q 407 462 436 454 q 346 471 378 469 q 283 475 318 474 q 218 469 247 476 q 179 431 189 465 q 169 354 169 397 q 174 269 169 311 q 179 207 179 228 q 233 80 179 107 q 392 76 286 53 q 494 133 450 92 q 549 236 539 174 z "},"C":{"ha":569,"x_min":-3,"x_max":528,"o":"m 528 200 q 501 125 525 160 q 443 63 478 90 q 310 6 386 18 q 165 10 233 -6 q 81 60 114 21 q 28 153 47 99 q 3 273 10 208 q -2 401 -3 338 q 5 519 -1 464 q 18 610 11 574 q 50 737 31 674 q 114 850 69 800 q 177 903 136 876 q 266 944 218 929 q 360 958 314 960 q 440 929 407 957 q 483 865 472 901 q 494 779 494 829 q 492 777 494 778 q 476 776 490 776 q 428 774 461 775 q 336 772 396 774 q 324 790 331 772 q 313 829 318 808 q 302 867 307 850 q 294 885 297 885 q 228 815 256 867 q 185 691 201 763 q 165 538 169 619 q 167 381 161 457 q 190 244 174 306 q 234 153 207 183 q 297 130 261 122 q 379 200 333 138 l 528 200 z "},"&":{"ha":1157,"x_min":32,"x_max":1110,"o":"m 571 -3 q 361 39 461 -3 q 190 154 267 81 q 75 325 114 231 q 43 428 54 376 q 32 535 32 481 q 43 642 32 590 q 75 746 54 694 q 190 917 114 840 q 361 1031 268 992 q 571 1074 460 1074 q 781 1031 682 1074 q 951 917 878 990 q 1067 746 1028 840 q 1099 642 1088 694 q 1110 535 1110 590 q 1099 428 1110 481 q 1067 325 1088 376 q 951 154 1028 231 q 781 39 879 82 q 571 -3 681 -3 m 571 1054 q 369 1014 467 1054 q 281 967 322 994 q 203 903 240 939 q 93 738 131 828 q 63 638 74 689 q 51 535 51 588 q 63 432 51 482 q 93 333 74 382 q 140 245 113 286 q 203 168 167 204 q 369 57 276 96 q 571 17 467 17 q 772 57 676 17 q 939 168 868 97 q 1002 245 975 204 q 1049 333 1029 286 q 1090 535 1090 429 q 1049 738 1090 642 q 939 903 1011 828 q 772 1014 865 975 q 571 1054 676 1054 m 318 628 q 315 604 322 614 q 299 589 308 593 q 272 581 289 583 q 260 581 265 581 q 247 583 254 581 q 236 589 240 586 q 226 596 232 592 q 217 618 217 606 l 247 618 q 251 608 247 614 q 260 599 253 606 q 271 592 264 593 q 282 593 278 589 q 289 601 288 599 q 290 613 290 606 q 286 624 290 617 q 281 636 283 628 q 272 646 275 642 q 265 651 268 650 q 256 658 261 656 q 246 665 251 661 q 226 678 236 671 q 220 685 224 682 q 214 696 217 689 q 210 719 207 704 q 218 736 211 726 q 226 742 222 739 q 233 746 229 744 q 254 750 246 750 q 274 747 264 751 q 288 736 281 746 q 292 717 292 732 l 263 717 q 260 722 263 717 q 256 728 258 725 q 251 735 253 733 q 246 738 249 738 q 239 725 240 732 q 240 708 239 715 q 245 700 243 704 q 251 693 247 696 q 258 686 254 689 q 265 681 261 683 q 282 669 272 675 q 290 664 286 667 q 297 658 293 661 q 304 652 300 656 q 311 646 308 649 q 318 628 317 635 m 433 583 q 431 583 432 583 q 428 582 431 582 l 418 582 l 408 582 q 400 583 404 583 l 400 586 q 399 589 399 589 q 397 593 399 592 l 397 594 q 394 592 394 593 q 390 590 393 592 q 388 589 389 589 l 383 585 q 379 582 382 585 q 374 581 376 582 q 368 581 371 581 q 356 582 360 581 q 350 583 353 582 q 344 586 347 585 q 336 594 338 590 q 332 606 332 599 q 332 617 329 610 q 335 628 332 622 q 340 638 336 633 q 358 654 347 649 q 379 664 369 663 q 400 661 388 665 q 413 643 410 654 q 415 637 414 640 q 418 629 417 633 q 420 622 419 626 q 424 614 421 617 q 426 606 425 610 q 429 599 428 601 q 433 583 431 592 m 382 603 q 383 606 382 604 q 383 610 383 607 q 384 615 383 613 q 385 621 385 618 q 384 628 385 625 q 383 633 383 631 q 382 638 382 636 q 381 643 382 640 q 376 647 378 647 q 369 643 371 647 q 363 635 364 638 q 360 625 360 629 q 358 615 358 621 q 359 610 358 613 q 360 606 360 608 q 365 601 363 603 q 371 599 368 599 l 378 599 q 382 603 379 599 m 526 671 q 522 661 526 669 q 519 654 521 658 q 517 644 518 650 q 512 634 514 639 q 507 624 510 629 q 499 604 501 610 q 496 596 497 600 q 493 589 494 592 q 488 582 489 582 l 457 582 l 449 603 q 446 614 447 608 q 442 626 444 619 q 436 650 439 640 q 429 671 432 661 l 458 671 q 464 657 461 665 q 466 650 465 654 q 468 643 467 646 q 469 638 468 640 q 469 632 469 635 q 475 624 471 628 q 478 622 475 622 q 479 625 478 624 q 482 629 482 628 q 483 633 483 631 q 488 640 485 635 q 492 654 488 646 q 494 660 493 657 q 497 667 496 664 l 497 669 q 499 671 497 671 q 513 671 506 672 l 526 671 m 635 583 q 632 583 633 583 q 628 582 631 582 l 618 582 l 607 582 q 600 583 604 583 q 599 586 600 585 l 599 589 q 597 593 597 590 q 596 594 596 594 l 592 590 q 588 589 590 589 q 586 587 586 588 q 583 585 586 586 q 578 582 583 585 q 574 581 576 582 q 567 581 571 581 q 556 582 560 581 q 550 583 553 582 q 544 586 547 585 q 536 594 538 590 q 532 606 532 599 l 532 617 q 536 628 535 626 q 540 638 536 635 q 548 647 544 643 q 557 654 551 651 q 569 660 564 657 q 578 664 574 663 q 599 661 589 665 q 614 643 608 656 q 615 637 615 640 q 618 629 615 633 q 621 622 619 626 q 624 614 622 617 q 629 599 626 603 q 635 583 631 589 m 582 603 q 583 610 583 604 q 585 621 585 614 q 583 633 585 629 q 581 643 583 638 q 576 647 578 647 q 568 643 571 647 q 565 639 565 640 q 563 635 565 638 q 560 630 561 632 q 558 625 560 628 q 557 615 557 621 q 561 606 557 610 q 565 601 561 603 q 571 599 568 599 l 576 599 q 582 603 579 599 m 728 647 q 728 642 728 644 q 729 638 729 640 q 732 628 732 635 l 732 613 q 733 599 733 608 q 735 589 735 596 q 734 585 735 586 q 733 583 733 585 q 731 582 732 583 l 724 582 l 717 582 l 708 582 q 710 593 708 589 l 710 608 l 710 622 q 706 636 708 628 q 702 640 703 639 q 699 643 701 642 q 683 642 692 646 q 682 639 683 640 q 679 635 681 638 q 676 621 676 626 q 675 607 675 617 l 675 592 q 676 583 675 586 q 660 582 669 582 l 647 582 q 642 585 642 582 l 642 601 l 642 622 l 642 643 l 642 661 q 649 663 644 663 q 657 664 653 663 q 665 665 661 664 q 672 665 668 665 q 673 663 672 664 q 674 661 674 663 l 674 657 q 690 667 685 665 q 706 668 700 669 q 718 663 713 668 q 728 647 724 657 m 843 583 q 841 583 842 583 q 838 582 840 582 l 828 582 l 818 582 q 810 583 814 583 l 810 586 q 808 589 808 589 q 807 593 808 592 l 807 594 q 801 590 804 593 q 797 589 800 589 l 793 585 q 789 582 794 585 q 783 581 786 582 q 778 581 781 581 q 765 582 769 581 q 760 583 763 582 q 754 586 757 585 q 749 590 751 589 q 746 594 747 592 q 742 606 742 599 l 742 617 q 744 628 742 622 q 751 638 747 635 q 768 654 756 646 q 789 664 778 661 q 810 661 797 665 q 817 654 814 658 q 822 643 821 650 q 825 637 824 640 q 828 629 826 633 q 831 622 831 626 q 833 614 831 617 q 836 606 835 610 q 839 599 838 601 q 843 583 840 592 m 792 603 q 792 606 792 604 q 793 610 793 607 q 794 615 793 613 q 794 621 794 618 q 794 628 794 625 q 793 633 793 631 q 792 643 792 638 q 786 647 789 647 q 779 643 782 647 q 772 635 774 638 q 769 625 772 631 q 768 615 768 621 q 771 606 768 611 q 772 603 772 604 q 775 601 772 603 q 782 599 778 599 l 788 599 q 792 603 792 599 m 919 613 q 920 601 921 606 q 918 593 919 597 q 907 582 914 586 q 899 580 903 581 q 890 579 896 579 q 882 581 886 579 q 872 585 878 582 q 866 590 869 588 q 860 596 863 592 q 854 603 856 599 q 851 613 853 608 q 854 614 853 614 l 860 614 l 867 614 l 869 614 q 879 601 874 604 q 889 601 885 600 q 894 607 892 601 q 890 614 897 610 q 879 619 889 617 l 867 628 q 858 638 861 631 q 857 653 853 646 q 864 664 858 658 q 875 669 867 667 q 889 672 879 672 q 901 668 897 672 q 908 665 906 667 q 913 660 910 663 q 917 646 917 656 l 908 646 l 896 646 q 892 654 896 650 q 889 656 889 656 q 886 657 889 657 q 882 654 885 657 q 881 649 878 650 q 883 643 881 646 q 892 638 886 638 q 911 626 906 632 q 919 613 917 622 m 132 558 q 161 561 149 563 q 188 556 176 561 q 211 540 200 549 q 228 518 222 529 q 238 490 235 507 q 238 461 242 475 q 231 440 236 454 q 217 421 225 429 q 194 407 210 413 q 169 401 183 403 l 165 401 l 156 401 q 150 401 153 401 q 144 400 147 400 q 139 401 142 400 q 133 401 136 401 l 125 401 q 122 403 122 403 l 121 403 l 121 444 l 121 493 q 121 542 124 518 l 121 549 q 122 551 121 550 q 122 553 122 551 q 125 556 125 556 q 132 558 126 556 m 197 432 q 207 461 204 444 q 204 489 208 475 q 199 510 201 503 q 193 519 196 515 q 186 528 190 524 q 183 531 183 531 q 179 534 181 533 q 175 538 178 535 q 172 540 174 539 q 168 543 171 540 q 165 545 165 544 q 161 547 164 546 q 154 549 158 549 l 153 547 q 152 546 153 546 q 151 544 151 546 l 151 539 l 151 524 q 150 515 150 521 q 150 504 150 510 q 149 493 150 499 q 149 481 149 488 l 149 457 q 150 446 150 451 q 150 436 150 440 q 151 427 151 432 q 153 419 151 422 q 156 411 156 411 l 157 411 q 160 410 158 410 q 172 410 165 408 q 177 412 175 411 q 182 414 179 413 q 187 419 185 417 q 192 424 189 421 q 197 432 194 429 m 328 422 q 328 419 328 421 q 329 417 329 418 l 329 411 q 322 408 325 410 q 314 406 318 407 q 299 403 303 403 q 290 401 293 401 q 282 400 286 400 q 274 401 278 400 q 267 403 271 401 q 253 411 258 403 q 244 424 246 417 q 243 442 243 431 q 247 457 243 449 q 250 463 249 460 q 254 468 251 465 q 260 473 257 471 q 265 478 263 475 q 279 483 274 482 q 293 485 288 486 q 306 481 299 485 q 315 471 310 479 q 316 468 315 469 q 317 465 317 467 q 319 460 319 460 q 320 456 319 457 q 321 453 321 454 q 320 451 321 451 q 319 449 319 450 q 313 444 318 447 q 303 443 307 444 l 293 443 q 283 442 286 443 q 278 439 279 442 q 276 432 275 436 q 286 415 278 421 q 307 414 293 411 q 318 419 313 418 q 323 421 321 421 q 328 422 325 421 m 289 461 q 283 467 286 467 q 281 467 282 468 q 278 464 279 465 q 276 461 278 463 q 276 457 276 458 q 276 453 275 456 l 276 451 q 279 450 278 451 l 282 450 q 285 451 283 450 l 288 451 q 289 461 290 457 m 400 431 q 400 411 403 421 q 389 400 397 406 q 371 397 378 397 q 354 403 365 397 q 340 413 347 404 q 333 431 333 422 q 336 432 335 432 l 342 432 l 349 432 l 350 432 q 355 424 353 426 q 360 419 357 422 q 369 419 367 417 q 376 424 372 419 q 372 432 376 428 q 367 435 369 433 q 360 438 364 436 q 354 442 357 440 q 349 446 351 443 q 339 456 340 451 q 338 471 336 461 q 341 476 340 474 q 344 481 342 478 q 350 485 347 483 q 357 488 353 486 q 369 490 360 490 q 383 486 376 490 q 393 478 388 483 q 399 463 399 472 l 389 463 l 378 463 q 372 471 375 471 q 368 474 369 474 q 364 471 367 474 q 361 467 361 471 q 364 461 361 464 q 372 454 369 456 q 392 443 388 449 q 400 431 400 439 m 450 447 l 450 431 q 451 415 451 425 l 451 400 l 419 400 l 419 432 l 419 465 l 450 465 l 450 447 m 447 524 q 439 524 443 525 q 431 522 433 524 q 424 519 428 519 q 419 515 419 517 l 419 510 q 422 509 421 510 q 425 508 424 508 q 433 510 429 508 l 440 510 q 444 512 443 511 q 449 514 446 513 q 451 518 451 517 q 451 521 453 519 q 447 524 449 524 m 540 474 q 546 465 546 468 l 546 454 l 546 419 l 546 381 q 545 373 546 376 q 544 365 544 369 q 542 353 544 358 q 539 345 540 349 q 536 339 538 342 q 531 332 533 335 q 526 326 529 329 q 515 321 524 324 q 499 321 508 319 q 485 324 493 321 q 478 325 481 324 q 472 329 475 326 q 465 339 468 333 q 471 343 468 342 q 478 347 474 344 q 488 353 483 353 q 496 346 490 351 q 503 338 497 343 q 510 354 507 343 q 513 371 513 365 q 513 388 515 381 l 513 404 q 500 403 507 403 q 489 400 497 403 q 474 403 481 399 q 468 413 468 404 l 468 431 q 478 450 472 440 q 489 468 481 457 q 506 481 497 476 q 524 483 515 485 q 540 474 532 483 m 513 424 l 513 449 q 510 461 513 458 q 506 463 508 465 q 499 456 500 460 q 493 444 497 450 q 492 438 492 442 q 492 432 492 435 q 494 421 492 422 q 500 415 496 417 q 507 413 506 413 q 510 414 510 414 l 513 417 l 513 421 l 513 424 m 644 464 q 646 456 644 460 q 647 450 646 453 q 647 444 647 447 q 649 438 649 442 q 650 431 649 433 q 651 423 650 426 q 651 417 651 419 l 651 406 q 650 401 651 403 l 649 401 q 647 401 647 401 q 646 400 647 400 l 642 400 l 633 400 l 625 400 l 625 411 q 626 418 625 414 q 626 425 626 422 q 626 433 626 429 q 625 440 625 436 q 622 453 625 450 q 615 461 621 458 q 601 460 607 461 q 596 451 599 458 q 593 439 593 446 q 592 431 593 435 q 592 424 592 428 l 592 410 q 593 401 593 406 q 576 400 586 400 l 564 400 q 558 403 558 400 l 558 419 l 558 440 q 558 449 558 444 q 557 461 557 454 q 558 470 557 465 q 558 479 558 475 q 574 481 564 481 q 581 481 578 481 q 588 482 585 482 q 589 479 589 481 q 590 474 590 478 q 606 483 597 481 q 622 486 617 488 q 635 481 629 486 q 644 464 643 472 m 699 413 q 699 410 701 413 l 694 406 q 688 403 692 403 q 679 401 685 401 q 672 400 676 400 q 667 403 667 403 q 665 407 665 403 q 671 411 668 410 q 676 414 671 411 q 685 415 681 415 q 693 415 689 417 q 699 413 696 415 m 779 415 q 782 411 782 413 l 786 407 q 776 404 782 406 q 765 403 771 403 q 755 401 760 401 q 743 400 750 400 q 724 404 738 401 q 710 419 714 408 q 706 429 707 425 l 706 440 q 707 451 706 447 q 711 461 708 453 q 717 469 714 465 q 724 475 721 472 q 733 479 729 478 q 743 482 738 481 q 751 484 747 483 q 760 483 754 485 q 774 481 765 483 q 779 478 776 481 q 782 471 782 472 q 785 465 782 471 l 785 463 q 786 461 785 461 q 771 460 775 461 q 758 461 763 460 l 754 461 q 753 467 753 463 q 751 469 751 468 q 750 471 751 469 q 748 472 749 471 q 746 472 747 472 q 742 469 744 472 q 739 463 742 468 q 738 458 739 460 q 738 454 738 457 q 737 451 738 451 q 736 449 736 450 l 736 436 q 742 424 739 428 q 749 418 742 421 q 758 413 756 414 l 769 413 q 779 415 776 413 m 799 461 q 809 474 804 468 q 821 482 814 479 q 842 488 831 490 q 860 479 851 486 q 867 472 864 475 q 872 461 869 468 q 878 442 878 454 q 872 421 879 431 q 856 406 868 413 q 841 401 849 403 q 822 400 833 400 q 803 406 810 401 q 798 413 800 410 q 794 422 796 417 q 793 440 793 426 q 799 461 796 454 m 850 447 q 849 464 851 457 q 839 469 844 469 q 829 461 833 468 q 824 443 824 453 q 825 436 824 439 q 826 426 825 431 q 829 418 826 424 q 835 414 831 414 q 842 417 839 411 q 847 426 847 422 q 850 438 850 435 l 850 447 m 1018 478 q 1019 473 1018 475 q 1019 468 1019 471 q 1020 462 1019 465 q 1021 453 1021 458 l 1021 436 l 1021 419 q 1020 412 1021 415 q 1019 406 1019 408 q 1018 401 1019 401 l 1015 401 l 1007 401 q 999 400 1006 400 l 992 400 q 992 421 989 408 q 992 431 992 426 q 993 442 993 436 q 992 458 993 453 q 988 465 992 465 q 975 461 981 467 q 972 454 972 458 q 969 447 971 450 l 969 428 l 969 410 l 942 410 q 943 425 942 419 l 943 443 q 944 451 944 447 q 943 457 943 454 q 939 464 940 464 q 928 465 933 468 q 921 458 924 463 q 919 453 919 456 q 918 446 918 450 q 917 439 918 443 q 917 431 917 435 q 917 422 917 426 q 918 414 918 418 l 918 400 q 910 401 914 400 q 901 401 907 401 l 888 401 l 888 433 l 888 471 l 888 478 q 889 482 888 481 q 890 485 889 483 q 893 485 892 485 q 897 486 894 486 q 907 488 900 488 q 912 488 910 488 q 917 489 914 489 q 917 486 917 488 q 918 483 918 485 l 918 479 q 928 488 922 482 q 939 490 933 490 l 947 490 q 954 489 953 490 q 960 485 957 489 q 963 482 963 483 q 967 479 964 481 q 969 481 968 481 q 972 483 971 482 q 978 486 978 486 q 985 489 981 489 q 992 490 988 490 l 1000 490 q 1007 488 1004 490 q 1014 482 1013 485 q 1017 480 1017 481 q 1018 478 1017 479 z "},"":{"ha":367,"x_min":-50,"x_max":388,"o":"m 147 1111 q 211 1137 179 1124 q 275 1163 243 1150 q 336 1018 310 1083 q 388 883 363 953 q 318 855 351 868 q 251 829 285 842 q 203 961 228 897 q 147 1111 178 1025 m -50 1106 q 14 1131 -18 1118 q 78 1157 46 1144 q 139 1013 113 1078 q 190 878 165 947 q 121 849 154 863 q 54 824 88 836 q 6 956 31 892 q -50 1106 -19 1019 z "},"":{"ha":381,"x_min":-50,"x_max":388,"o":"m 190 1111 q 161 1031 175 1068 q 135 961 147 994 q 110 896 122 928 q 86 829 99 864 q 19 855 53 842 q -50 883 -14 868 q 1 1018 -25 953 q 63 1163 28 1083 q 126 1137 94 1150 q 190 1111 158 1124 m 388 1106 q 358 1026 372 1063 q 332 956 344 989 q 308 890 319 922 q 283 824 296 858 q 217 849 250 836 q 147 878 183 863 q 199 1013 172 947 q 260 1157 225 1078 q 324 1131 292 1144 q 388 1106 356 1118 z "},"":{"ha":163,"x_min":-50,"x_max":190,"o":"m 190 1111 q 161 1031 175 1068 q 135 961 147 994 q 110 896 122 928 q 86 829 99 864 q 19 855 53 842 q -50 883 -14 868 q 1 1018 -25 953 q 63 1163 28 1083 q 126 1137 94 1150 q 190 1111 158 1124 z "},"":{"ha":149,"x_min":-50,"x_max":190,"o":"m -50 1111 q 14 1137 -18 1124 q 78 1163 46 1150 q 139 1018 113 1083 q 190 883 165 953 q 121 855 154 868 q 54 829 88 842 q 6 961 31 897 q -50 1111 -19 1025 z "},")":{"ha":1157,"x_min":32,"x_max":1110,"o":"m 571 -3 q 361 39 461 -3 q 190 154 267 81 q 75 325 114 231 q 43 428 54 376 q 32 535 32 481 q 43 642 32 590 q 75 746 54 694 q 190 917 114 840 q 361 1031 268 992 q 571 1074 460 1074 q 781 1031 682 1074 q 951 917 878 990 q 1067 746 1028 840 q 1099 642 1088 694 q 1110 535 1110 590 q 1099 428 1110 481 q 1067 325 1088 376 q 951 154 1028 231 q 781 39 879 82 q 571 -3 681 -3 m 571 1054 q 369 1014 467 1054 q 281 967 322 994 q 203 903 240 939 q 93 738 131 828 q 63 638 74 689 q 51 535 51 588 q 63 432 51 482 q 93 333 74 382 q 140 245 113 286 q 203 168 167 204 q 369 57 276 96 q 571 17 467 17 q 772 57 676 17 q 939 168 868 97 q 1002 245 975 204 q 1049 333 1029 286 q 1090 535 1090 429 q 1049 738 1090 642 q 939 903 1011 828 q 772 1014 865 975 q 571 1054 676 1054 m 318 628 q 315 604 322 614 q 299 589 308 593 q 272 581 289 583 q 260 581 265 581 q 247 583 254 581 q 236 589 240 586 q 226 596 232 592 q 217 618 217 606 l 247 618 q 251 608 247 614 q 260 599 253 606 q 271 592 264 593 q 282 593 278 589 q 289 601 288 599 q 290 613 290 606 q 286 624 290 617 q 281 636 283 628 q 272 646 275 642 q 265 651 268 650 q 256 658 261 656 q 246 665 251 661 q 226 678 236 671 q 220 685 224 682 q 214 696 217 689 q 210 719 207 704 q 218 736 211 726 q 226 742 222 739 q 233 746 229 744 q 254 750 246 750 q 274 747 264 751 q 288 736 281 746 q 292 717 292 732 l 263 717 q 260 722 263 717 q 256 728 258 725 q 251 735 253 733 q 246 738 249 738 q 239 725 240 732 q 240 708 239 715 q 245 700 243 704 q 251 693 247 696 q 258 686 254 689 q 265 681 261 683 q 282 669 272 675 q 290 664 286 667 q 297 658 293 661 q 304 652 300 656 q 311 646 308 649 q 318 628 317 635 m 433 583 q 431 583 432 583 q 428 582 431 582 l 418 582 l 408 582 q 400 583 404 583 l 400 586 q 399 589 399 589 q 397 593 399 592 l 397 594 q 394 592 394 593 q 390 590 393 592 q 388 589 389 589 l 383 585 q 379 582 382 585 q 374 581 376 582 q 368 581 371 581 q 356 582 360 581 q 350 583 353 582 q 344 586 347 585 q 336 594 338 590 q 332 606 332 599 q 332 617 329 610 q 335 628 332 622 q 340 638 336 633 q 358 654 347 649 q 379 664 369 663 q 400 661 388 665 q 413 643 410 654 q 415 637 414 640 q 418 629 417 633 q 420 622 419 626 q 424 614 421 617 q 426 606 425 610 q 429 599 428 601 q 433 583 431 592 m 382 603 q 383 606 382 604 q 383 610 383 607 q 384 615 383 613 q 385 621 385 618 q 384 628 385 625 q 383 633 383 631 q 382 638 382 636 q 381 643 382 640 q 376 647 378 647 q 369 643 371 647 q 363 635 364 638 q 360 625 360 629 q 358 615 358 621 q 359 610 358 613 q 360 606 360 608 q 365 601 363 603 q 371 599 368 599 l 378 599 q 382 603 379 599 m 526 671 q 522 661 526 669 q 519 654 521 658 q 517 644 518 650 q 512 634 514 639 q 507 624 510 629 q 499 604 501 610 q 496 596 497 600 q 493 589 494 592 q 488 582 489 582 l 457 582 l 449 603 q 446 614 447 608 q 442 626 444 619 q 436 650 439 640 q 429 671 432 661 l 458 671 q 464 657 461 665 q 466 650 465 654 q 468 643 467 646 q 469 638 468 640 q 469 632 469 635 q 475 624 471 628 q 478 622 475 622 q 479 625 478 624 q 482 629 482 628 q 483 633 483 631 q 488 640 485 635 q 492 654 488 646 q 494 660 493 657 q 497 667 496 664 l 497 669 q 499 671 497 671 q 513 671 506 672 l 526 671 m 635 583 q 632 583 633 583 q 628 582 631 582 l 618 582 l 607 582 q 600 583 604 583 q 599 586 600 585 l 599 589 q 597 593 597 590 q 596 594 596 594 l 592 590 q 588 589 590 589 q 586 587 586 588 q 583 585 586 586 q 578 582 583 585 q 574 581 576 582 q 567 581 571 581 q 556 582 560 581 q 550 583 553 582 q 544 586 547 585 q 536 594 538 590 q 532 606 532 599 l 532 617 q 536 628 535 626 q 540 638 536 635 q 548 647 544 643 q 557 654 551 651 q 569 660 564 657 q 578 664 574 663 q 599 661 589 665 q 614 643 608 656 q 615 637 615 640 q 618 629 615 633 q 621 622 619 626 q 624 614 622 617 q 629 599 626 603 q 635 583 631 589 m 582 603 q 583 610 583 604 q 585 621 585 614 q 583 633 585 629 q 581 643 583 638 q 576 647 578 647 q 568 643 571 647 q 565 639 565 640 q 563 635 565 638 q 560 630 561 632 q 558 625 560 628 q 557 615 557 621 q 561 606 557 610 q 565 601 561 603 q 571 599 568 599 l 576 599 q 582 603 579 599 m 728 647 q 728 642 728 644 q 729 638 729 640 q 732 628 732 635 l 732 613 q 733 599 733 608 q 735 589 735 596 q 734 585 735 586 q 733 583 733 585 q 731 582 732 583 l 724 582 l 717 582 l 708 582 q 710 593 708 589 l 710 608 l 710 622 q 706 636 708 628 q 702 640 703 639 q 699 643 701 642 q 683 642 692 646 q 682 639 683 640 q 679 635 681 638 q 676 621 676 626 q 675 607 675 617 l 675 592 q 676 583 675 586 q 660 582 669 582 l 647 582 q 642 585 642 582 l 642 601 l 642 622 l 642 643 l 642 661 q 649 663 644 663 q 657 664 653 663 q 665 665 661 664 q 672 665 668 665 q 673 663 672 664 q 674 661 674 663 l 674 657 q 690 667 685 665 q 706 668 700 669 q 718 663 713 668 q 728 647 724 657 m 843 583 q 841 583 842 583 q 838 582 840 582 l 828 582 l 818 582 q 810 583 814 583 l 810 586 q 808 589 808 589 q 807 593 808 592 l 807 594 q 801 590 804 593 q 797 589 800 589 l 793 585 q 789 582 794 585 q 783 581 786 582 q 778 581 781 581 q 765 582 769 581 q 760 583 763 582 q 754 586 757 585 q 749 590 751 589 q 746 594 747 592 q 742 606 742 599 l 742 617 q 744 628 742 622 q 751 638 747 635 q 768 654 756 646 q 789 664 778 661 q 810 661 797 665 q 817 654 814 658 q 822 643 821 650 q 825 637 824 640 q 828 629 826 633 q 831 622 831 626 q 833 614 831 617 q 836 606 835 610 q 839 599 838 601 q 843 583 840 592 m 792 603 q 792 606 792 604 q 793 610 793 607 q 794 615 793 613 q 794 621 794 618 q 794 628 794 625 q 793 633 793 631 q 792 643 792 638 q 786 647 789 647 q 779 643 782 647 q 772 635 774 638 q 769 625 772 631 q 768 615 768 621 q 771 606 768 611 q 772 603 772 604 q 775 601 772 603 q 782 599 778 599 l 788 599 q 792 603 792 599 m 919 613 q 920 601 921 606 q 918 593 919 597 q 907 582 914 586 q 899 580 903 581 q 890 579 896 579 q 882 581 886 579 q 872 585 878 582 q 866 590 869 588 q 860 596 863 592 q 854 603 856 599 q 851 613 853 608 q 854 614 853 614 l 860 614 l 867 614 l 869 614 q 879 601 874 604 q 889 601 885 600 q 894 607 892 601 q 890 614 897 610 q 879 619 889 617 l 867 628 q 858 638 861 631 q 857 653 853 646 q 864 664 858 658 q 875 669 867 667 q 889 672 879 672 q 901 668 897 672 q 908 665 906 667 q 913 660 910 663 q 917 646 917 656 l 908 646 l 896 646 q 892 654 896 650 q 889 656 889 656 q 886 657 889 657 q 882 654 885 657 q 881 649 878 650 q 883 643 881 646 q 892 638 886 638 q 911 626 906 632 q 919 613 917 622 m 132 558 q 161 561 149 563 q 188 556 176 561 q 211 540 200 549 q 228 518 222 529 q 238 490 235 507 q 238 461 242 475 q 231 440 236 454 q 217 421 225 429 q 194 407 210 413 q 169 401 183 403 l 165 401 l 156 401 q 150 401 153 401 q 144 400 147 400 q 139 401 142 400 q 133 401 136 401 l 125 401 q 122 403 122 403 l 121 403 l 121 444 l 121 493 q 121 542 124 518 l 121 549 q 122 551 121 550 q 122 553 122 551 q 125 556 125 556 q 132 558 126 556 m 197 432 q 207 461 204 444 q 204 489 208 475 q 199 510 201 503 q 193 519 196 515 q 186 528 190 524 q 183 531 183 531 q 179 534 181 533 q 175 538 178 535 q 172 540 174 539 q 168 543 171 540 q 165 545 165 544 q 161 547 164 546 q 154 549 158 549 l 153 547 q 152 546 153 546 q 151 544 151 546 l 151 539 l 151 524 q 150 515 150 521 q 150 504 150 510 q 149 493 150 499 q 149 481 149 488 l 149 457 q 150 446 150 451 q 150 436 150 440 q 151 427 151 432 q 153 419 151 422 q 156 411 156 411 l 157 411 q 160 410 158 410 q 172 410 165 408 q 177 412 175 411 q 182 414 179 413 q 187 419 185 417 q 192 424 189 421 q 197 432 194 429 m 328 422 q 328 419 328 421 q 329 417 329 418 l 329 411 q 322 408 325 410 q 314 406 318 407 q 299 403 303 403 q 290 401 293 401 q 282 400 286 400 q 274 401 278 400 q 267 403 271 401 q 253 411 258 403 q 244 424 246 417 q 243 442 243 431 q 247 457 243 449 q 250 463 249 460 q 254 468 251 465 q 260 473 257 471 q 265 478 263 475 q 279 483 274 482 q 293 485 288 486 q 306 481 299 485 q 315 471 310 479 q 316 468 315 469 q 317 465 317 467 q 319 460 319 460 q 320 456 319 457 q 321 453 321 454 q 320 451 321 451 q 319 449 319 450 q 313 444 318 447 q 303 443 307 444 l 293 443 q 283 442 286 443 q 278 439 279 442 q 276 432 275 436 q 286 415 278 421 q 307 414 293 411 q 318 419 313 418 q 323 421 321 421 q 328 422 325 421 m 289 461 q 283 467 286 467 q 281 467 282 468 q 278 464 279 465 q 276 461 278 463 q 276 457 276 458 q 276 453 275 456 l 276 451 q 279 450 278 451 l 282 450 q 285 451 283 450 l 288 451 q 289 461 290 457 m 400 431 q 400 411 403 421 q 389 400 397 406 q 371 397 378 397 q 354 403 365 397 q 340 413 347 404 q 333 431 333 422 q 336 432 335 432 l 342 432 l 349 432 l 350 432 q 355 424 353 426 q 360 419 357 422 q 369 419 367 417 q 376 424 372 419 q 372 432 376 428 q 367 435 369 433 q 360 438 364 436 q 354 442 357 440 q 349 446 351 443 q 339 456 340 451 q 338 471 336 461 q 341 476 340 474 q 344 481 342 478 q 350 485 347 483 q 357 488 353 486 q 369 490 360 490 q 383 486 376 490 q 393 478 388 483 q 399 463 399 472 l 389 463 l 378 463 q 372 471 375 471 q 368 474 369 474 q 364 471 367 474 q 361 467 361 471 q 364 461 361 464 q 372 454 369 456 q 392 443 388 449 q 400 431 400 439 m 450 447 l 450 431 q 451 415 451 425 l 451 400 l 419 400 l 419 432 l 419 465 l 450 465 l 450 447 m 447 524 q 439 524 443 525 q 431 522 433 524 q 424 519 428 519 q 419 515 419 517 l 419 510 q 422 509 421 510 q 425 508 424 508 q 433 510 429 508 l 440 510 q 444 512 443 511 q 449 514 446 513 q 451 518 451 517 q 451 521 453 519 q 447 524 449 524 m 540 474 q 546 465 546 468 l 546 454 l 546 419 l 546 381 q 545 373 546 376 q 544 365 544 369 q 542 353 544 358 q 539 345 540 349 q 536 339 538 342 q 531 332 533 335 q 526 326 529 329 q 515 321 524 324 q 499 321 508 319 q 485 324 493 321 q 478 325 481 324 q 472 329 475 326 q 465 339 468 333 q 471 343 468 342 q 478 347 474 344 q 488 353 483 353 q 496 346 490 351 q 503 338 497 343 q 510 354 507 343 q 513 371 513 365 q 513 388 515 381 l 513 404 q 500 403 507 403 q 489 400 497 403 q 474 403 481 399 q 468 413 468 404 l 468 431 q 478 450 472 440 q 489 468 481 457 q 506 481 497 476 q 524 483 515 485 q 540 474 532 483 m 513 424 l 513 449 q 510 461 513 458 q 506 463 508 465 q 499 456 500 460 q 493 444 497 450 q 492 438 492 442 q 492 432 492 435 q 494 421 492 422 q 500 415 496 417 q 507 413 506 413 q 510 414 510 414 l 513 417 l 513 421 l 513 424 m 644 464 q 646 456 644 460 q 647 450 646 453 q 647 444 647 447 q 649 438 649 442 q 650 431 649 433 q 651 423 650 426 q 651 417 651 419 l 651 406 q 650 401 651 403 l 649 401 q 647 401 647 401 q 646 400 647 400 l 642 400 l 633 400 l 625 400 l 625 411 q 626 418 625 414 q 626 425 626 422 q 626 433 626 429 q 625 440 625 436 q 622 453 625 450 q 615 461 621 458 q 601 460 607 461 q 596 451 599 458 q 593 439 593 446 q 592 431 593 435 q 592 424 592 428 l 592 410 q 593 401 593 406 q 576 400 586 400 l 564 400 q 558 403 558 400 l 558 419 l 558 440 q 558 449 558 444 q 557 461 557 454 q 558 470 557 465 q 558 479 558 475 q 574 481 564 481 q 581 481 578 481 q 588 482 585 482 q 589 479 589 481 q 590 474 590 478 q 606 483 597 481 q 622 486 617 488 q 635 481 629 486 q 644 464 643 472 m 699 413 q 699 410 701 413 l 694 406 q 688 403 692 403 q 679 401 685 401 q 672 400 676 400 q 667 403 667 403 q 665 407 665 403 q 671 411 668 410 q 676 414 671 411 q 685 415 681 415 q 693 415 689 417 q 699 413 696 415 m 779 415 q 782 411 782 413 l 786 407 q 776 404 782 406 q 765 403 771 403 q 755 401 760 401 q 743 400 750 400 q 724 404 738 401 q 710 419 714 408 q 706 429 707 425 l 706 440 q 707 451 706 447 q 711 461 708 453 q 717 469 714 465 q 724 475 721 472 q 733 479 729 478 q 743 482 738 481 q 751 484 747 483 q 760 483 754 485 q 774 481 765 483 q 779 478 776 481 q 782 471 782 472 q 785 465 782 471 l 785 463 q 786 461 785 461 q 771 460 775 461 q 758 461 763 460 l 754 461 q 753 467 753 463 q 751 469 751 468 q 750 471 751 469 q 748 472 749 471 q 746 472 747 472 q 742 469 744 472 q 739 463 742 468 q 738 458 739 460 q 738 454 738 457 q 737 451 738 451 q 736 449 736 450 l 736 436 q 742 424 739 428 q 749 418 742 421 q 758 413 756 414 l 769 413 q 779 415 776 413 m 799 461 q 809 474 804 468 q 821 482 814 479 q 842 488 831 490 q 860 479 851 486 q 867 472 864 475 q 872 461 869 468 q 878 442 878 454 q 872 421 879 431 q 856 406 868 413 q 841 401 849 403 q 822 400 833 400 q 803 406 810 401 q 798 413 800 410 q 794 422 796 417 q 793 440 793 426 q 799 461 796 454 m 850 447 q 849 464 851 457 q 839 469 844 469 q 829 461 833 468 q 824 443 824 453 q 825 436 824 439 q 826 426 825 431 q 829 418 826 424 q 835 414 831 414 q 842 417 839 411 q 847 426 847 422 q 850 438 850 435 l 850 447 m 1018 478 q 1019 473 1018 475 q 1019 468 1019 471 q 1020 462 1019 465 q 1021 453 1021 458 l 1021 436 l 1021 419 q 1020 412 1021 415 q 1019 406 1019 408 q 1018 401 1019 401 l 1015 401 l 1007 401 q 999 400 1006 400 l 992 400 q 992 421 989 408 q 992 431 992 426 q 993 442 993 436 q 992 458 993 453 q 988 465 992 465 q 975 461 981 467 q 972 454 972 458 q 969 447 971 450 l 969 428 l 969 410 l 942 410 q 943 425 942 419 l 943 443 q 944 451 944 447 q 943 457 943 454 q 939 464 940 464 q 928 465 933 468 q 921 458 924 463 q 919 453 919 456 q 918 446 918 450 q 917 439 918 443 q 917 431 917 435 q 917 422 917 426 q 918 414 918 418 l 918 400 q 910 401 914 400 q 901 401 907 401 l 888 401 l 888 433 l 888 471 l 888 478 q 889 482 888 481 q 890 485 889 483 q 893 485 892 485 q 897 486 894 486 q 907 488 900 488 q 912 488 910 488 q 917 489 914 489 q 917 486 917 488 q 918 483 918 485 l 918 479 q 928 488 922 482 q 939 490 933 490 l 947 490 q 954 489 953 490 q 960 485 957 489 q 963 482 963 483 q 967 479 964 481 q 969 481 968 481 q 972 483 971 482 q 978 486 978 486 q 985 489 981 489 q 992 490 988 490 l 1000 490 q 1007 488 1004 490 q 1014 482 1013 485 q 1017 480 1017 481 q 1018 478 1017 479 z "},"(":{"ha":1157,"x_min":32,"x_max":1110,"o":"m 571 -3 q 361 39 461 -3 q 190 154 267 81 q 75 325 114 231 q 43 428 54 376 q 32 535 32 481 q 43 642 32 590 q 75 746 54 694 q 190 917 114 840 q 361 1031 268 992 q 571 1074 460 1074 q 781 1031 682 1074 q 951 917 878 990 q 1067 746 1028 840 q 1099 642 1088 694 q 1110 535 1110 590 q 1099 428 1110 481 q 1067 325 1088 376 q 951 154 1028 231 q 781 39 879 82 q 571 -3 681 -3 m 571 1054 q 369 1014 467 1054 q 281 967 322 994 q 203 903 240 939 q 93 738 131 828 q 63 638 74 689 q 51 535 51 588 q 63 432 51 482 q 93 333 74 382 q 140 245 113 286 q 203 168 167 204 q 369 57 276 96 q 571 17 467 17 q 772 57 676 17 q 939 168 868 97 q 1002 245 975 204 q 1049 333 1029 286 q 1090 535 1090 429 q 1049 738 1090 642 q 939 903 1011 828 q 772 1014 865 975 q 571 1054 676 1054 m 318 628 q 315 604 322 614 q 299 589 308 593 q 272 581 289 583 q 260 581 265 581 q 247 583 254 581 q 236 589 240 586 q 226 596 232 592 q 217 618 217 606 l 247 618 q 251 608 247 614 q 260 599 253 606 q 271 592 264 593 q 282 593 278 589 q 289 601 288 599 q 290 613 290 606 q 286 624 290 617 q 281 636 283 628 q 272 646 275 642 q 265 651 268 650 q 256 658 261 656 q 246 665 251 661 q 226 678 236 671 q 220 685 224 682 q 214 696 217 689 q 210 719 207 704 q 218 736 211 726 q 226 742 222 739 q 233 746 229 744 q 254 750 246 750 q 274 747 264 751 q 288 736 281 746 q 292 717 292 732 l 263 717 q 260 722 263 717 q 256 728 258 725 q 251 735 253 733 q 246 738 249 738 q 239 725 240 732 q 240 708 239 715 q 245 700 243 704 q 251 693 247 696 q 258 686 254 689 q 265 681 261 683 q 282 669 272 675 q 290 664 286 667 q 297 658 293 661 q 304 652 300 656 q 311 646 308 649 q 318 628 317 635 m 433 583 q 431 583 432 583 q 428 582 431 582 l 418 582 l 408 582 q 400 583 404 583 l 400 586 q 399 589 399 589 q 397 593 399 592 l 397 594 q 394 592 394 593 q 390 590 393 592 q 388 589 389 589 l 383 585 q 379 582 382 585 q 374 581 376 582 q 368 581 371 581 q 356 582 360 581 q 350 583 353 582 q 344 586 347 585 q 336 594 338 590 q 332 606 332 599 q 332 617 329 610 q 335 628 332 622 q 340 638 336 633 q 358 654 347 649 q 379 664 369 663 q 400 661 388 665 q 413 643 410 654 q 415 637 414 640 q 418 629 417 633 q 420 622 419 626 q 424 614 421 617 q 426 606 425 610 q 429 599 428 601 q 433 583 431 592 m 382 603 q 383 606 382 604 q 383 610 383 607 q 384 615 383 613 q 385 621 385 618 q 384 628 385 625 q 383 633 383 631 q 382 638 382 636 q 381 643 382 640 q 376 647 378 647 q 369 643 371 647 q 363 635 364 638 q 360 625 360 629 q 358 615 358 621 q 359 610 358 613 q 360 606 360 608 q 365 601 363 603 q 371 599 368 599 l 378 599 q 382 603 379 599 m 526 671 q 522 661 526 669 q 519 654 521 658 q 517 644 518 650 q 512 634 514 639 q 507 624 510 629 q 499 604 501 610 q 496 596 497 600 q 493 589 494 592 q 488 582 489 582 l 457 582 l 449 603 q 446 614 447 608 q 442 626 444 619 q 436 650 439 640 q 429 671 432 661 l 458 671 q 464 657 461 665 q 466 650 465 654 q 468 643 467 646 q 469 638 468 640 q 469 632 469 635 q 475 624 471 628 q 478 622 475 622 q 479 625 478 624 q 482 629 482 628 q 483 633 483 631 q 488 640 485 635 q 492 654 488 646 q 494 660 493 657 q 497 667 496 664 l 497 669 q 499 671 497 671 q 513 671 506 672 l 526 671 m 635 583 q 632 583 633 583 q 628 582 631 582 l 618 582 l 607 582 q 600 583 604 583 q 599 586 600 585 l 599 589 q 597 593 597 590 q 596 594 596 594 l 592 590 q 588 589 590 589 q 586 587 586 588 q 583 585 586 586 q 578 582 583 585 q 574 581 576 582 q 567 581 571 581 q 556 582 560 581 q 550 583 553 582 q 544 586 547 585 q 536 594 538 590 q 532 606 532 599 l 532 617 q 536 628 535 626 q 540 638 536 635 q 548 647 544 643 q 557 654 551 651 q 569 660 564 657 q 578 664 574 663 q 599 661 589 665 q 614 643 608 656 q 615 637 615 640 q 618 629 615 633 q 621 622 619 626 q 624 614 622 617 q 629 599 626 603 q 635 583 631 589 m 582 603 q 583 610 583 604 q 585 621 585 614 q 583 633 585 629 q 581 643 583 638 q 576 647 578 647 q 568 643 571 647 q 565 639 565 640 q 563 635 565 638 q 560 630 561 632 q 558 625 560 628 q 557 615 557 621 q 561 606 557 610 q 565 601 561 603 q 571 599 568 599 l 576 599 q 582 603 579 599 m 728 647 q 728 642 728 644 q 729 638 729 640 q 732 628 732 635 l 732 613 q 733 599 733 608 q 735 589 735 596 q 734 585 735 586 q 733 583 733 585 q 731 582 732 583 l 724 582 l 717 582 l 708 582 q 710 593 708 589 l 710 608 l 710 622 q 706 636 708 628 q 702 640 703 639 q 699 643 701 642 q 683 642 692 646 q 682 639 683 640 q 679 635 681 638 q 676 621 676 626 q 675 607 675 617 l 675 592 q 676 583 675 586 q 660 582 669 582 l 647 582 q 642 585 642 582 l 642 601 l 642 622 l 642 643 l 642 661 q 649 663 644 663 q 657 664 653 663 q 665 665 661 664 q 672 665 668 665 q 673 663 672 664 q 674 661 674 663 l 674 657 q 690 667 685 665 q 706 668 700 669 q 718 663 713 668 q 728 647 724 657 m 843 583 q 841 583 842 583 q 838 582 840 582 l 828 582 l 818 582 q 810 583 814 583 l 810 586 q 808 589 808 589 q 807 593 808 592 l 807 594 q 801 590 804 593 q 797 589 800 589 l 793 585 q 789 582 794 585 q 783 581 786 582 q 778 581 781 581 q 765 582 769 581 q 760 583 763 582 q 754 586 757 585 q 749 590 751 589 q 746 594 747 592 q 742 606 742 599 l 742 617 q 744 628 742 622 q 751 638 747 635 q 768 654 756 646 q 789 664 778 661 q 810 661 797 665 q 817 654 814 658 q 822 643 821 650 q 825 637 824 640 q 828 629 826 633 q 831 622 831 626 q 833 614 831 617 q 836 606 835 610 q 839 599 838 601 q 843 583 840 592 m 792 603 q 792 606 792 604 q 793 610 793 607 q 794 615 793 613 q 794 621 794 618 q 794 628 794 625 q 793 633 793 631 q 792 643 792 638 q 786 647 789 647 q 779 643 782 647 q 772 635 774 638 q 769 625 772 631 q 768 615 768 621 q 771 606 768 611 q 772 603 772 604 q 775 601 772 603 q 782 599 778 599 l 788 599 q 792 603 792 599 m 919 613 q 920 601 921 606 q 918 593 919 597 q 907 582 914 586 q 899 580 903 581 q 890 579 896 579 q 882 581 886 579 q 872 585 878 582 q 866 590 869 588 q 860 596 863 592 q 854 603 856 599 q 851 613 853 608 q 854 614 853 614 l 860 614 l 867 614 l 869 614 q 879 601 874 604 q 889 601 885 600 q 894 607 892 601 q 890 614 897 610 q 879 619 889 617 l 867 628 q 858 638 861 631 q 857 653 853 646 q 864 664 858 658 q 875 669 867 667 q 889 672 879 672 q 901 668 897 672 q 908 665 906 667 q 913 660 910 663 q 917 646 917 656 l 908 646 l 896 646 q 892 654 896 650 q 889 656 889 656 q 886 657 889 657 q 882 654 885 657 q 881 649 878 650 q 883 643 881 646 q 892 638 886 638 q 911 626 906 632 q 919 613 917 622 m 132 558 q 161 561 149 563 q 188 556 176 561 q 211 540 200 549 q 228 518 222 529 q 238 490 235 507 q 238 461 242 475 q 231 440 236 454 q 217 421 225 429 q 194 407 210 413 q 169 401 183 403 l 165 401 l 156 401 q 150 401 153 401 q 144 400 147 400 q 139 401 142 400 q 133 401 136 401 l 125 401 q 122 403 122 403 l 121 403 l 121 444 l 121 493 q 121 542 124 518 l 121 549 q 122 551 121 550 q 122 553 122 551 q 125 556 125 556 q 132 558 126 556 m 197 432 q 207 461 204 444 q 204 489 208 475 q 199 510 201 503 q 193 519 196 515 q 186 528 190 524 q 183 531 183 531 q 179 534 181 533 q 175 538 178 535 q 172 540 174 539 q 168 543 171 540 q 165 545 165 544 q 161 547 164 546 q 154 549 158 549 l 153 547 q 152 546 153 546 q 151 544 151 546 l 151 539 l 151 524 q 150 515 150 521 q 150 504 150 510 q 149 493 150 499 q 149 481 149 488 l 149 457 q 150 446 150 451 q 150 436 150 440 q 151 427 151 432 q 153 419 151 422 q 156 411 156 411 l 157 411 q 160 410 158 410 q 172 410 165 408 q 177 412 175 411 q 182 414 179 413 q 187 419 185 417 q 192 424 189 421 q 197 432 194 429 m 328 422 q 328 419 328 421 q 329 417 329 418 l 329 411 q 322 408 325 410 q 314 406 318 407 q 299 403 303 403 q 290 401 293 401 q 282 400 286 400 q 274 401 278 400 q 267 403 271 401 q 253 411 258 403 q 244 424 246 417 q 243 442 243 431 q 247 457 243 449 q 250 463 249 460 q 254 468 251 465 q 260 473 257 471 q 265 478 263 475 q 279 483 274 482 q 293 485 288 486 q 306 481 299 485 q 315 471 310 479 q 316 468 315 469 q 317 465 317 467 q 319 460 319 460 q 320 456 319 457 q 321 453 321 454 q 320 451 321 451 q 319 449 319 450 q 313 444 318 447 q 303 443 307 444 l 293 443 q 283 442 286 443 q 278 439 279 442 q 276 432 275 436 q 286 415 278 421 q 307 414 293 411 q 318 419 313 418 q 323 421 321 421 q 328 422 325 421 m 289 461 q 283 467 286 467 q 281 467 282 468 q 278 464 279 465 q 276 461 278 463 q 276 457 276 458 q 276 453 275 456 l 276 451 q 279 450 278 451 l 282 450 q 285 451 283 450 l 288 451 q 289 461 290 457 m 400 431 q 400 411 403 421 q 389 400 397 406 q 371 397 378 397 q 354 403 365 397 q 340 413 347 404 q 333 431 333 422 q 336 432 335 432 l 342 432 l 349 432 l 350 432 q 355 424 353 426 q 360 419 357 422 q 369 419 367 417 q 376 424 372 419 q 372 432 376 428 q 367 435 369 433 q 360 438 364 436 q 354 442 357 440 q 349 446 351 443 q 339 456 340 451 q 338 471 336 461 q 341 476 340 474 q 344 481 342 478 q 350 485 347 483 q 357 488 353 486 q 369 490 360 490 q 383 486 376 490 q 393 478 388 483 q 399 463 399 472 l 389 463 l 378 463 q 372 471 375 471 q 368 474 369 474 q 364 471 367 474 q 361 467 361 471 q 364 461 361 464 q 372 454 369 456 q 392 443 388 449 q 400 431 400 439 m 450 447 l 450 431 q 451 415 451 425 l 451 400 l 419 400 l 419 432 l 419 465 l 450 465 l 450 447 m 447 524 q 439 524 443 525 q 431 522 433 524 q 424 519 428 519 q 419 515 419 517 l 419 510 q 422 509 421 510 q 425 508 424 508 q 433 510 429 508 l 440 510 q 444 512 443 511 q 449 514 446 513 q 451 518 451 517 q 451 521 453 519 q 447 524 449 524 m 540 474 q 546 465 546 468 l 546 454 l 546 419 l 546 381 q 545 373 546 376 q 544 365 544 369 q 542 353 544 358 q 539 345 540 349 q 536 339 538 342 q 531 332 533 335 q 526 326 529 329 q 515 321 524 324 q 499 321 508 319 q 485 324 493 321 q 478 325 481 324 q 472 329 475 326 q 465 339 468 333 q 471 343 468 342 q 478 347 474 344 q 488 353 483 353 q 496 346 490 351 q 503 338 497 343 q 510 354 507 343 q 513 371 513 365 q 513 388 515 381 l 513 404 q 500 403 507 403 q 489 400 497 403 q 474 403 481 399 q 468 413 468 404 l 468 431 q 478 450 472 440 q 489 468 481 457 q 506 481 497 476 q 524 483 515 485 q 540 474 532 483 m 513 424 l 513 449 q 510 461 513 458 q 506 463 508 465 q 499 456 500 460 q 493 444 497 450 q 492 438 492 442 q 492 432 492 435 q 494 421 492 422 q 500 415 496 417 q 507 413 506 413 q 510 414 510 414 l 513 417 l 513 421 l 513 424 m 644 464 q 646 456 644 460 q 647 450 646 453 q 647 444 647 447 q 649 438 649 442 q 650 431 649 433 q 651 423 650 426 q 651 417 651 419 l 651 406 q 650 401 651 403 l 649 401 q 647 401 647 401 q 646 400 647 400 l 642 400 l 633 400 l 625 400 l 625 411 q 626 418 625 414 q 626 425 626 422 q 626 433 626 429 q 625 440 625 436 q 622 453 625 450 q 615 461 621 458 q 601 460 607 461 q 596 451 599 458 q 593 439 593 446 q 592 431 593 435 q 592 424 592 428 l 592 410 q 593 401 593 406 q 576 400 586 400 l 564 400 q 558 403 558 400 l 558 419 l 558 440 q 558 449 558 444 q 557 461 557 454 q 558 470 557 465 q 558 479 558 475 q 574 481 564 481 q 581 481 578 481 q 588 482 585 482 q 589 479 589 481 q 590 474 590 478 q 606 483 597 481 q 622 486 617 488 q 635 481 629 486 q 644 464 643 472 m 699 413 q 699 410 701 413 l 694 406 q 688 403 692 403 q 679 401 685 401 q 672 400 676 400 q 667 403 667 403 q 665 407 665 403 q 671 411 668 410 q 676 414 671 411 q 685 415 681 415 q 693 415 689 417 q 699 413 696 415 m 779 415 q 782 411 782 413 l 786 407 q 776 404 782 406 q 765 403 771 403 q 755 401 760 401 q 743 400 750 400 q 724 404 738 401 q 710 419 714 408 q 706 429 707 425 l 706 440 q 707 451 706 447 q 711 461 708 453 q 717 469 714 465 q 724 475 721 472 q 733 479 729 478 q 743 482 738 481 q 751 484 747 483 q 760 483 754 485 q 774 481 765 483 q 779 478 776 481 q 782 471 782 472 q 785 465 782 471 l 785 463 q 786 461 785 461 q 771 460 775 461 q 758 461 763 460 l 754 461 q 753 467 753 463 q 751 469 751 468 q 750 471 751 469 q 748 472 749 471 q 746 472 747 472 q 742 469 744 472 q 739 463 742 468 q 738 458 739 460 q 738 454 738 457 q 737 451 738 451 q 736 449 736 450 l 736 436 q 742 424 739 428 q 749 418 742 421 q 758 413 756 414 l 769 413 q 779 415 776 413 m 799 461 q 809 474 804 468 q 821 482 814 479 q 842 488 831 490 q 860 479 851 486 q 867 472 864 475 q 872 461 869 468 q 878 442 878 454 q 872 421 879 431 q 856 406 868 413 q 841 401 849 403 q 822 400 833 400 q 803 406 810 401 q 798 413 800 410 q 794 422 796 417 q 793 440 793 426 q 799 461 796 454 m 850 447 q 849 464 851 457 q 839 469 844 469 q 829 461 833 468 q 824 443 824 453 q 825 436 824 439 q 826 426 825 431 q 829 418 826 424 q 835 414 831 414 q 842 417 839 411 q 847 426 847 422 q 850 438 850 435 l 850 447 m 1018 478 q 1019 473 1018 475 q 1019 468 1019 471 q 1020 462 1019 465 q 1021 453 1021 458 l 1021 436 l 1021 419 q 1020 412 1021 415 q 1019 406 1019 408 q 1018 401 1019 401 l 1015 401 l 1007 401 q 999 400 1006 400 l 992 400 q 992 421 989 408 q 992 431 992 426 q 993 442 993 436 q 992 458 993 453 q 988 465 992 465 q 975 461 981 467 q 972 454 972 458 q 969 447 971 450 l 969 428 l 969 410 l 942 410 q 943 425 942 419 l 943 443 q 944 451 944 447 q 943 457 943 454 q 939 464 940 464 q 928 465 933 468 q 921 458 924 463 q 919 453 919 456 q 918 446 918 450 q 917 439 918 443 q 917 431 917 435 q 917 422 917 426 q 918 414 918 418 l 918 400 q 910 401 914 400 q 901 401 907 401 l 888 401 l 888 433 l 888 471 l 888 478 q 889 482 888 481 q 890 485 889 483 q 893 485 892 485 q 897 486 894 486 q 907 488 900 488 q 912 488 910 488 q 917 489 914 489 q 917 486 917 488 q 918 483 918 485 l 918 479 q 928 488 922 482 q 939 490 933 490 l 947 490 q 954 489 953 490 q 960 485 957 489 q 963 482 963 483 q 967 479 964 481 q 969 481 968 481 q 972 483 971 482 q 978 486 978 486 q 985 489 981 489 q 992 490 988 490 l 1000 490 q 1007 488 1004 490 q 1014 482 1013 485 q 1017 480 1017 481 q 1018 478 1017 479 z "},"@":{"ha":1157,"x_min":32,"x_max":1110,"o":"m 571 -3 q 361 39 461 -3 q 190 154 267 81 q 75 325 114 231 q 43 428 54 376 q 32 535 32 481 q 43 642 32 590 q 75 746 54 694 q 190 917 114 840 q 361 1031 268 992 q 571 1074 460 1074 q 781 1031 682 1074 q 951 917 878 990 q 1067 746 1028 840 q 1099 642 1088 694 q 1110 535 1110 590 q 1099 428 1110 481 q 1067 325 1088 376 q 951 154 1028 231 q 781 39 879 82 q 571 -3 681 -3 m 571 1054 q 369 1014 467 1054 q 281 967 322 994 q 203 903 240 939 q 93 738 131 828 q 63 638 74 689 q 51 535 51 588 q 63 432 51 482 q 93 333 74 382 q 140 245 113 286 q 203 168 167 204 q 369 57 276 96 q 571 17 467 17 q 772 57 676 17 q 939 168 868 97 q 1002 245 975 204 q 1049 333 1029 286 q 1090 535 1090 429 q 1049 738 1090 642 q 939 903 1011 828 q 772 1014 865 975 q 571 1054 676 1054 m 318 628 q 315 604 322 614 q 299 589 308 593 q 272 581 289 583 q 260 581 265 581 q 247 583 254 581 q 236 589 240 586 q 226 596 232 592 q 217 618 217 606 l 247 618 q 251 608 247 614 q 260 599 253 606 q 271 592 264 593 q 282 593 278 589 q 289 601 288 599 q 290 613 290 606 q 286 624 290 617 q 281 636 283 628 q 272 646 275 642 q 265 651 268 650 q 256 658 261 656 q 246 665 251 661 q 226 678 236 671 q 220 685 224 682 q 214 696 217 689 q 210 719 207 704 q 218 736 211 726 q 226 742 222 739 q 233 746 229 744 q 254 750 246 750 q 274 747 264 751 q 288 736 281 746 q 292 717 292 732 l 263 717 q 260 722 263 717 q 256 728 258 725 q 251 735 253 733 q 246 738 249 738 q 239 725 240 732 q 240 708 239 715 q 245 700 243 704 q 251 693 247 696 q 258 686 254 689 q 265 681 261 683 q 282 669 272 675 q 290 664 286 667 q 297 658 293 661 q 304 652 300 656 q 311 646 308 649 q 318 628 317 635 m 433 583 q 431 583 432 583 q 428 582 431 582 l 418 582 l 408 582 q 400 583 404 583 l 400 586 q 399 589 399 589 q 397 593 399 592 l 397 594 q 394 592 394 593 q 390 590 393 592 q 388 589 389 589 l 383 585 q 379 582 382 585 q 374 581 376 582 q 368 581 371 581 q 356 582 360 581 q 350 583 353 582 q 344 586 347 585 q 336 594 338 590 q 332 606 332 599 q 332 617 329 610 q 335 628 332 622 q 340 638 336 633 q 358 654 347 649 q 379 664 369 663 q 400 661 388 665 q 413 643 410 654 q 415 637 414 640 q 418 629 417 633 q 420 622 419 626 q 424 614 421 617 q 426 606 425 610 q 429 599 428 601 q 433 583 431 592 m 382 603 q 383 606 382 604 q 383 610 383 607 q 384 615 383 613 q 385 621 385 618 q 384 628 385 625 q 383 633 383 631 q 382 638 382 636 q 381 643 382 640 q 376 647 378 647 q 369 643 371 647 q 363 635 364 638 q 360 625 360 629 q 358 615 358 621 q 359 610 358 613 q 360 606 360 608 q 365 601 363 603 q 371 599 368 599 l 378 599 q 382 603 379 599 m 526 671 q 522 661 526 669 q 519 654 521 658 q 517 644 518 650 q 512 634 514 639 q 507 624 510 629 q 499 604 501 610 q 496 596 497 600 q 493 589 494 592 q 488 582 489 582 l 457 582 l 449 603 q 446 614 447 608 q 442 626 444 619 q 436 650 439 640 q 429 671 432 661 l 458 671 q 464 657 461 665 q 466 650 465 654 q 468 643 467 646 q 469 638 468 640 q 469 632 469 635 q 475 624 471 628 q 478 622 475 622 q 479 625 478 624 q 482 629 482 628 q 483 633 483 631 q 488 640 485 635 q 492 654 488 646 q 494 660 493 657 q 497 667 496 664 l 497 669 q 499 671 497 671 q 513 671 506 672 l 526 671 m 635 583 q 632 583 633 583 q 628 582 631 582 l 618 582 l 607 582 q 600 583 604 583 q 599 586 600 585 l 599 589 q 597 593 597 590 q 596 594 596 594 l 592 590 q 588 589 590 589 q 586 587 586 588 q 583 585 586 586 q 578 582 583 585 q 574 581 576 582 q 567 581 571 581 q 556 582 560 581 q 550 583 553 582 q 544 586 547 585 q 536 594 538 590 q 532 606 532 599 l 532 617 q 536 628 535 626 q 540 638 536 635 q 548 647 544 643 q 557 654 551 651 q 569 660 564 657 q 578 664 574 663 q 599 661 589 665 q 614 643 608 656 q 615 637 615 640 q 618 629 615 633 q 621 622 619 626 q 624 614 622 617 q 629 599 626 603 q 635 583 631 589 m 582 603 q 583 610 583 604 q 585 621 585 614 q 583 633 585 629 q 581 643 583 638 q 576 647 578 647 q 568 643 571 647 q 565 639 565 640 q 563 635 565 638 q 560 630 561 632 q 558 625 560 628 q 557 615 557 621 q 561 606 557 610 q 565 601 561 603 q 571 599 568 599 l 576 599 q 582 603 579 599 m 728 647 q 728 642 728 644 q 729 638 729 640 q 732 628 732 635 l 732 613 q 733 599 733 608 q 735 589 735 596 q 734 585 735 586 q 733 583 733 585 q 731 582 732 583 l 724 582 l 717 582 l 708 582 q 710 593 708 589 l 710 608 l 710 622 q 706 636 708 628 q 702 640 703 639 q 699 643 701 642 q 683 642 692 646 q 682 639 683 640 q 679 635 681 638 q 676 621 676 626 q 675 607 675 617 l 675 592 q 676 583 675 586 q 660 582 669 582 l 647 582 q 642 585 642 582 l 642 601 l 642 622 l 642 643 l 642 661 q 649 663 644 663 q 657 664 653 663 q 665 665 661 664 q 672 665 668 665 q 673 663 672 664 q 674 661 674 663 l 674 657 q 690 667 685 665 q 706 668 700 669 q 718 663 713 668 q 728 647 724 657 m 843 583 q 841 583 842 583 q 838 582 840 582 l 828 582 l 818 582 q 810 583 814 583 l 810 586 q 808 589 808 589 q 807 593 808 592 l 807 594 q 801 590 804 593 q 797 589 800 589 l 793 585 q 789 582 794 585 q 783 581 786 582 q 778 581 781 581 q 765 582 769 581 q 760 583 763 582 q 754 586 757 585 q 749 590 751 589 q 746 594 747 592 q 742 606 742 599 l 742 617 q 744 628 742 622 q 751 638 747 635 q 768 654 756 646 q 789 664 778 661 q 810 661 797 665 q 817 654 814 658 q 822 643 821 650 q 825 637 824 640 q 828 629 826 633 q 831 622 831 626 q 833 614 831 617 q 836 606 835 610 q 839 599 838 601 q 843 583 840 592 m 792 603 q 792 606 792 604 q 793 610 793 607 q 794 615 793 613 q 794 621 794 618 q 794 628 794 625 q 793 633 793 631 q 792 643 792 638 q 786 647 789 647 q 779 643 782 647 q 772 635 774 638 q 769 625 772 631 q 768 615 768 621 q 771 606 768 611 q 772 603 772 604 q 775 601 772 603 q 782 599 778 599 l 788 599 q 792 603 792 599 m 919 613 q 920 601 921 606 q 918 593 919 597 q 907 582 914 586 q 899 580 903 581 q 890 579 896 579 q 882 581 886 579 q 872 585 878 582 q 866 590 869 588 q 860 596 863 592 q 854 603 856 599 q 851 613 853 608 q 854 614 853 614 l 860 614 l 867 614 l 869 614 q 879 601 874 604 q 889 601 885 600 q 894 607 892 601 q 890 614 897 610 q 879 619 889 617 l 867 628 q 858 638 861 631 q 857 653 853 646 q 864 664 858 658 q 875 669 867 667 q 889 672 879 672 q 901 668 897 672 q 908 665 906 667 q 913 660 910 663 q 917 646 917 656 l 908 646 l 896 646 q 892 654 896 650 q 889 656 889 656 q 886 657 889 657 q 882 654 885 657 q 881 649 878 650 q 883 643 881 646 q 892 638 886 638 q 911 626 906 632 q 919 613 917 622 m 132 558 q 161 561 149 563 q 188 556 176 561 q 211 540 200 549 q 228 518 222 529 q 238 490 235 507 q 238 461 242 475 q 231 440 236 454 q 217 421 225 429 q 194 407 210 413 q 169 401 183 403 l 165 401 l 156 401 q 150 401 153 401 q 144 400 147 400 q 139 401 142 400 q 133 401 136 401 l 125 401 q 122 403 122 403 l 121 403 l 121 444 l 121 493 q 121 542 124 518 l 121 549 q 122 551 121 550 q 122 553 122 551 q 125 556 125 556 q 132 558 126 556 m 197 432 q 207 461 204 444 q 204 489 208 475 q 199 510 201 503 q 193 519 196 515 q 186 528 190 524 q 183 531 183 531 q 179 534 181 533 q 175 538 178 535 q 172 540 174 539 q 168 543 171 540 q 165 545 165 544 q 161 547 164 546 q 154 549 158 549 l 153 547 q 152 546 153 546 q 151 544 151 546 l 151 539 l 151 524 q 150 515 150 521 q 150 504 150 510 q 149 493 150 499 q 149 481 149 488 l 149 457 q 150 446 150 451 q 150 436 150 440 q 151 427 151 432 q 153 419 151 422 q 156 411 156 411 l 157 411 q 160 410 158 410 q 172 410 165 408 q 177 412 175 411 q 182 414 179 413 q 187 419 185 417 q 192 424 189 421 q 197 432 194 429 m 328 422 q 328 419 328 421 q 329 417 329 418 l 329 411 q 322 408 325 410 q 314 406 318 407 q 299 403 303 403 q 290 401 293 401 q 282 400 286 400 q 274 401 278 400 q 267 403 271 401 q 253 411 258 403 q 244 424 246 417 q 243 442 243 431 q 247 457 243 449 q 250 463 249 460 q 254 468 251 465 q 260 473 257 471 q 265 478 263 475 q 279 483 274 482 q 293 485 288 486 q 306 481 299 485 q 315 471 310 479 q 316 468 315 469 q 317 465 317 467 q 319 460 319 460 q 320 456 319 457 q 321 453 321 454 q 320 451 321 451 q 319 449 319 450 q 313 444 318 447 q 303 443 307 444 l 293 443 q 283 442 286 443 q 278 439 279 442 q 276 432 275 436 q 286 415 278 421 q 307 414 293 411 q 318 419 313 418 q 323 421 321 421 q 328 422 325 421 m 289 461 q 283 467 286 467 q 281 467 282 468 q 278 464 279 465 q 276 461 278 463 q 276 457 276 458 q 276 453 275 456 l 276 451 q 279 450 278 451 l 282 450 q 285 451 283 450 l 288 451 q 289 461 290 457 m 400 431 q 400 411 403 421 q 389 400 397 406 q 371 397 378 397 q 354 403 365 397 q 340 413 347 404 q 333 431 333 422 q 336 432 335 432 l 342 432 l 349 432 l 350 432 q 355 424 353 426 q 360 419 357 422 q 369 419 367 417 q 376 424 372 419 q 372 432 376 428 q 367 435 369 433 q 360 438 364 436 q 354 442 357 440 q 349 446 351 443 q 339 456 340 451 q 338 471 336 461 q 341 476 340 474 q 344 481 342 478 q 350 485 347 483 q 357 488 353 486 q 369 490 360 490 q 383 486 376 490 q 393 478 388 483 q 399 463 399 472 l 389 463 l 378 463 q 372 471 375 471 q 368 474 369 474 q 364 471 367 474 q 361 467 361 471 q 364 461 361 464 q 372 454 369 456 q 392 443 388 449 q 400 431 400 439 m 450 447 l 450 431 q 451 415 451 425 l 451 400 l 419 400 l 419 432 l 419 465 l 450 465 l 450 447 m 447 524 q 439 524 443 525 q 431 522 433 524 q 424 519 428 519 q 419 515 419 517 l 419 510 q 422 509 421 510 q 425 508 424 508 q 433 510 429 508 l 440 510 q 444 512 443 511 q 449 514 446 513 q 451 518 451 517 q 451 521 453 519 q 447 524 449 524 m 540 474 q 546 465 546 468 l 546 454 l 546 419 l 546 381 q 545 373 546 376 q 544 365 544 369 q 542 353 544 358 q 539 345 540 349 q 536 339 538 342 q 531 332 533 335 q 526 326 529 329 q 515 321 524 324 q 499 321 508 319 q 485 324 493 321 q 478 325 481 324 q 472 329 475 326 q 465 339 468 333 q 471 343 468 342 q 478 347 474 344 q 488 353 483 353 q 496 346 490 351 q 503 338 497 343 q 510 354 507 343 q 513 371 513 365 q 513 388 515 381 l 513 404 q 500 403 507 403 q 489 400 497 403 q 474 403 481 399 q 468 413 468 404 l 468 431 q 478 450 472 440 q 489 468 481 457 q 506 481 497 476 q 524 483 515 485 q 540 474 532 483 m 513 424 l 513 449 q 510 461 513 458 q 506 463 508 465 q 499 456 500 460 q 493 444 497 450 q 492 438 492 442 q 492 432 492 435 q 494 421 492 422 q 500 415 496 417 q 507 413 506 413 q 510 414 510 414 l 513 417 l 513 421 l 513 424 m 644 464 q 646 456 644 460 q 647 450 646 453 q 647 444 647 447 q 649 438 649 442 q 650 431 649 433 q 651 423 650 426 q 651 417 651 419 l 651 406 q 650 401 651 403 l 649 401 q 647 401 647 401 q 646 400 647 400 l 642 400 l 633 400 l 625 400 l 625 411 q 626 418 625 414 q 626 425 626 422 q 626 433 626 429 q 625 440 625 436 q 622 453 625 450 q 615 461 621 458 q 601 460 607 461 q 596 451 599 458 q 593 439 593 446 q 592 431 593 435 q 592 424 592 428 l 592 410 q 593 401 593 406 q 576 400 586 400 l 564 400 q 558 403 558 400 l 558 419 l 558 440 q 558 449 558 444 q 557 461 557 454 q 558 470 557 465 q 558 479 558 475 q 574 481 564 481 q 581 481 578 481 q 588 482 585 482 q 589 479 589 481 q 590 474 590 478 q 606 483 597 481 q 622 486 617 488 q 635 481 629 486 q 644 464 643 472 m 699 413 q 699 410 701 413 l 694 406 q 688 403 692 403 q 679 401 685 401 q 672 400 676 400 q 667 403 667 403 q 665 407 665 403 q 671 411 668 410 q 676 414 671 411 q 685 415 681 415 q 693 415 689 417 q 699 413 696 415 m 779 415 q 782 411 782 413 l 786 407 q 776 404 782 406 q 765 403 771 403 q 755 401 760 401 q 743 400 750 400 q 724 404 738 401 q 710 419 714 408 q 706 429 707 425 l 706 440 q 707 451 706 447 q 711 461 708 453 q 717 469 714 465 q 724 475 721 472 q 733 479 729 478 q 743 482 738 481 q 751 484 747 483 q 760 483 754 485 q 774 481 765 483 q 779 478 776 481 q 782 471 782 472 q 785 465 782 471 l 785 463 q 786 461 785 461 q 771 460 775 461 q 758 461 763 460 l 754 461 q 753 467 753 463 q 751 469 751 468 q 750 471 751 469 q 748 472 749 471 q 746 472 747 472 q 742 469 744 472 q 739 463 742 468 q 738 458 739 460 q 738 454 738 457 q 737 451 738 451 q 736 449 736 450 l 736 436 q 742 424 739 428 q 749 418 742 421 q 758 413 756 414 l 769 413 q 779 415 776 413 m 799 461 q 809 474 804 468 q 821 482 814 479 q 842 488 831 490 q 860 479 851 486 q 867 472 864 475 q 872 461 869 468 q 878 442 878 454 q 872 421 879 431 q 856 406 868 413 q 841 401 849 403 q 822 400 833 400 q 803 406 810 401 q 798 413 800 410 q 794 422 796 417 q 793 440 793 426 q 799 461 796 454 m 850 447 q 849 464 851 457 q 839 469 844 469 q 829 461 833 468 q 824 443 824 453 q 825 436 824 439 q 826 426 825 431 q 829 418 826 424 q 835 414 831 414 q 842 417 839 411 q 847 426 847 422 q 850 438 850 435 l 850 447 m 1018 478 q 1019 473 1018 475 q 1019 468 1019 471 q 1020 462 1019 465 q 1021 453 1021 458 l 1021 436 l 1021 419 q 1020 412 1021 415 q 1019 406 1019 408 q 1018 401 1019 401 l 1015 401 l 1007 401 q 999 400 1006 400 l 992 400 q 992 421 989 408 q 992 431 992 426 q 993 442 993 436 q 992 458 993 453 q 988 465 992 465 q 975 461 981 467 q 972 454 972 458 q 969 447 971 450 l 969 428 l 969 410 l 942 410 q 943 425 942 419 l 943 443 q 944 451 944 447 q 943 457 943 454 q 939 464 940 464 q 928 465 933 468 q 921 458 924 463 q 919 453 919 456 q 918 446 918 450 q 917 439 918 443 q 917 431 917 435 q 917 422 917 426 q 918 414 918 418 l 918 400 q 910 401 914 400 q 901 401 907 401 l 888 401 l 888 433 l 888 471 l 888 478 q 889 482 888 481 q 890 485 889 483 q 893 485 892 485 q 897 486 894 486 q 907 488 900 488 q 912 488 910 488 q 917 489 914 489 q 917 486 917 488 q 918 483 918 485 l 918 479 q 928 488 922 482 q 939 490 933 490 l 947 490 q 954 489 953 490 q 960 485 957 489 q 963 482 963 483 q 967 479 964 481 q 969 481 968 481 q 972 483 971 482 q 978 486 978 486 q 985 489 981 489 q 992 490 988 490 l 1000 490 q 1007 488 1004 490 q 1014 482 1013 485 q 1017 480 1017 481 q 1018 478 1017 479 z "},":":{"ha":288,"x_min":40,"x_max":246,"o":"m 231 75 q 232 54 239 65 q 208 32 225 43 q 169 13 192 21 q 122 1 146 4 q 79 -1 99 -3 q 50 11 60 1 q 47 37 40 24 q 69 61 53 50 q 109 80 86 72 q 156 90 132 88 q 199 90 179 93 q 231 75 219 86 m 238 422 q 239 401 246 413 q 215 379 232 390 q 176 360 199 368 q 129 348 153 351 q 86 347 106 344 q 57 358 67 349 q 53 384 47 371 q 76 408 60 397 q 116 427 93 419 q 163 438 139 435 q 206 437 186 440 q 238 422 226 433 z "},";":{"ha":301,"x_min":-15,"x_max":246,"o":"m 238 422 q 239 401 246 413 q 215 379 232 390 q 176 360 199 368 q 129 348 153 351 q 86 347 106 344 q 57 358 67 349 q 53 384 47 371 q 76 408 60 397 q 116 427 93 419 q 163 438 139 435 q 206 437 186 440 q 238 422 226 433 m 225 149 q 161 174 193 161 q 97 200 129 188 q 36 56 63 121 q -15 -79 10 -10 q 54 -108 21 -94 q 121 -133 88 -121 q 145 -67 133 -99 q 169 -1 157 -35 q 196 69 182 32 q 225 149 210 106 z "},"-":{"ha":469,"x_min":46,"x_max":422,"o":"m 422 325 q 316 322 365 322 q 222 319 267 321 q 135 317 178 318 q 46 314 92 315 l 46 497 q 226 501 138 501 q 422 497 315 501 l 422 325 l 422 325 z "},"*":{"ha":1157,"x_min":32,"x_max":1110,"o":"m 571 -3 q 361 39 461 -3 q 190 154 267 81 q 75 325 114 231 q 43 428 54 376 q 32 535 32 481 q 43 642 32 590 q 75 746 54 694 q 190 917 114 840 q 361 1031 268 992 q 571 1074 460 1074 q 781 1031 682 1074 q 951 917 878 990 q 1067 746 1028 840 q 1099 642 1088 694 q 1110 535 1110 590 q 1099 428 1110 481 q 1067 325 1088 376 q 951 154 1028 231 q 781 39 879 82 q 571 -3 681 -3 m 571 1054 q 369 1014 467 1054 q 281 967 322 994 q 203 903 240 939 q 93 738 131 828 q 63 638 74 689 q 51 535 51 588 q 63 432 51 482 q 93 333 74 382 q 140 245 113 286 q 203 168 167 204 q 369 57 276 96 q 571 17 467 17 q 772 57 676 17 q 939 168 868 97 q 1002 245 975 204 q 1049 333 1029 286 q 1090 535 1090 429 q 1049 738 1090 642 q 939 903 1011 828 q 772 1014 865 975 q 571 1054 676 1054 m 318 628 q 315 604 322 614 q 299 589 308 593 q 272 581 289 583 q 260 581 265 581 q 247 583 254 581 q 236 589 240 586 q 226 596 232 592 q 217 618 217 606 l 247 618 q 251 608 247 614 q 260 599 253 606 q 271 592 264 593 q 282 593 278 589 q 289 601 288 599 q 290 613 290 606 q 286 624 290 617 q 281 636 283 628 q 272 646 275 642 q 265 651 268 650 q 256 658 261 656 q 246 665 251 661 q 226 678 236 671 q 220 685 224 682 q 214 696 217 689 q 210 719 207 704 q 218 736 211 726 q 226 742 222 739 q 233 746 229 744 q 254 750 246 750 q 274 747 264 751 q 288 736 281 746 q 292 717 292 732 l 263 717 q 260 722 263 717 q 256 728 258 725 q 251 735 253 733 q 246 738 249 738 q 239 725 240 732 q 240 708 239 715 q 245 700 243 704 q 251 693 247 696 q 258 686 254 689 q 265 681 261 683 q 282 669 272 675 q 290 664 286 667 q 297 658 293 661 q 304 652 300 656 q 311 646 308 649 q 318 628 317 635 m 433 583 q 431 583 432 583 q 428 582 431 582 l 418 582 l 408 582 q 400 583 404 583 l 400 586 q 399 589 399 589 q 397 593 399 592 l 397 594 q 394 592 394 593 q 390 590 393 592 q 388 589 389 589 l 383 585 q 379 582 382 585 q 374 581 376 582 q 368 581 371 581 q 356 582 360 581 q 350 583 353 582 q 344 586 347 585 q 336 594 338 590 q 332 606 332 599 q 332 617 329 610 q 335 628 332 622 q 340 638 336 633 q 358 654 347 649 q 379 664 369 663 q 400 661 388 665 q 413 643 410 654 q 415 637 414 640 q 418 629 417 633 q 420 622 419 626 q 424 614 421 617 q 426 606 425 610 q 429 599 428 601 q 433 583 431 592 m 382 603 q 383 606 382 604 q 383 610 383 607 q 384 615 383 613 q 385 621 385 618 q 384 628 385 625 q 383 633 383 631 q 382 638 382 636 q 381 643 382 640 q 376 647 378 647 q 369 643 371 647 q 363 635 364 638 q 360 625 360 629 q 358 615 358 621 q 359 610 358 613 q 360 606 360 608 q 365 601 363 603 q 371 599 368 599 l 378 599 q 382 603 379 599 m 526 671 q 522 661 526 669 q 519 654 521 658 q 517 644 518 650 q 512 634 514 639 q 507 624 510 629 q 499 604 501 610 q 496 596 497 600 q 493 589 494 592 q 488 582 489 582 l 457 582 l 449 603 q 446 614 447 608 q 442 626 444 619 q 436 650 439 640 q 429 671 432 661 l 458 671 q 464 657 461 665 q 466 650 465 654 q 468 643 467 646 q 469 638 468 640 q 469 632 469 635 q 475 624 471 628 q 478 622 475 622 q 479 625 478 624 q 482 629 482 628 q 483 633 483 631 q 488 640 485 635 q 492 654 488 646 q 494 660 493 657 q 497 667 496 664 l 497 669 q 499 671 497 671 q 513 671 506 672 l 526 671 m 635 583 q 632 583 633 583 q 628 582 631 582 l 618 582 l 607 582 q 600 583 604 583 q 599 586 600 585 l 599 589 q 597 593 597 590 q 596 594 596 594 l 592 590 q 588 589 590 589 q 586 587 586 588 q 583 585 586 586 q 578 582 583 585 q 574 581 576 582 q 567 581 571 581 q 556 582 560 581 q 550 583 553 582 q 544 586 547 585 q 536 594 538 590 q 532 606 532 599 l 532 617 q 536 628 535 626 q 540 638 536 635 q 548 647 544 643 q 557 654 551 651 q 569 660 564 657 q 578 664 574 663 q 599 661 589 665 q 614 643 608 656 q 615 637 615 640 q 618 629 615 633 q 621 622 619 626 q 624 614 622 617 q 629 599 626 603 q 635 583 631 589 m 582 603 q 583 610 583 604 q 585 621 585 614 q 583 633 585 629 q 581 643 583 638 q 576 647 578 647 q 568 643 571 647 q 565 639 565 640 q 563 635 565 638 q 560 630 561 632 q 558 625 560 628 q 557 615 557 621 q 561 606 557 610 q 565 601 561 603 q 571 599 568 599 l 576 599 q 582 603 579 599 m 728 647 q 728 642 728 644 q 729 638 729 640 q 732 628 732 635 l 732 613 q 733 599 733 608 q 735 589 735 596 q 734 585 735 586 q 733 583 733 585 q 731 582 732 583 l 724 582 l 717 582 l 708 582 q 710 593 708 589 l 710 608 l 710 622 q 706 636 708 628 q 702 640 703 639 q 699 643 701 642 q 683 642 692 646 q 682 639 683 640 q 679 635 681 638 q 676 621 676 626 q 675 607 675 617 l 675 592 q 676 583 675 586 q 660 582 669 582 l 647 582 q 642 585 642 582 l 642 601 l 642 622 l 642 643 l 642 661 q 649 663 644 663 q 657 664 653 663 q 665 665 661 664 q 672 665 668 665 q 673 663 672 664 q 674 661 674 663 l 674 657 q 690 667 685 665 q 706 668 700 669 q 718 663 713 668 q 728 647 724 657 m 843 583 q 841 583 842 583 q 838 582 840 582 l 828 582 l 818 582 q 810 583 814 583 l 810 586 q 808 589 808 589 q 807 593 808 592 l 807 594 q 801 590 804 593 q 797 589 800 589 l 793 585 q 789 582 794 585 q 783 581 786 582 q 778 581 781 581 q 765 582 769 581 q 760 583 763 582 q 754 586 757 585 q 749 590 751 589 q 746 594 747 592 q 742 606 742 599 l 742 617 q 744 628 742 622 q 751 638 747 635 q 768 654 756 646 q 789 664 778 661 q 810 661 797 665 q 817 654 814 658 q 822 643 821 650 q 825 637 824 640 q 828 629 826 633 q 831 622 831 626 q 833 614 831 617 q 836 606 835 610 q 839 599 838 601 q 843 583 840 592 m 792 603 q 792 606 792 604 q 793 610 793 607 q 794 615 793 613 q 794 621 794 618 q 794 628 794 625 q 793 633 793 631 q 792 643 792 638 q 786 647 789 647 q 779 643 782 647 q 772 635 774 638 q 769 625 772 631 q 768 615 768 621 q 771 606 768 611 q 772 603 772 604 q 775 601 772 603 q 782 599 778 599 l 788 599 q 792 603 792 599 m 919 613 q 920 601 921 606 q 918 593 919 597 q 907 582 914 586 q 899 580 903 581 q 890 579 896 579 q 882 581 886 579 q 872 585 878 582 q 866 590 869 588 q 860 596 863 592 q 854 603 856 599 q 851 613 853 608 q 854 614 853 614 l 860 614 l 867 614 l 869 614 q 879 601 874 604 q 889 601 885 600 q 894 607 892 601 q 890 614 897 610 q 879 619 889 617 l 867 628 q 858 638 861 631 q 857 653 853 646 q 864 664 858 658 q 875 669 867 667 q 889 672 879 672 q 901 668 897 672 q 908 665 906 667 q 913 660 910 663 q 917 646 917 656 l 908 646 l 896 646 q 892 654 896 650 q 889 656 889 656 q 886 657 889 657 q 882 654 885 657 q 881 649 878 650 q 883 643 881 646 q 892 638 886 638 q 911 626 906 632 q 919 613 917 622 m 132 558 q 161 561 149 563 q 188 556 176 561 q 211 540 200 549 q 228 518 222 529 q 238 490 235 507 q 238 461 242 475 q 231 440 236 454 q 217 421 225 429 q 194 407 210 413 q 169 401 183 403 l 165 401 l 156 401 q 150 401 153 401 q 144 400 147 400 q 139 401 142 400 q 133 401 136 401 l 125 401 q 122 403 122 403 l 121 403 l 121 444 l 121 493 q 121 542 124 518 l 121 549 q 122 551 121 550 q 122 553 122 551 q 125 556 125 556 q 132 558 126 556 m 197 432 q 207 461 204 444 q 204 489 208 475 q 199 510 201 503 q 193 519 196 515 q 186 528 190 524 q 183 531 183 531 q 179 534 181 533 q 175 538 178 535 q 172 540 174 539 q 168 543 171 540 q 165 545 165 544 q 161 547 164 546 q 154 549 158 549 l 153 547 q 152 546 153 546 q 151 544 151 546 l 151 539 l 151 524 q 150 515 150 521 q 150 504 150 510 q 149 493 150 499 q 149 481 149 488 l 149 457 q 150 446 150 451 q 150 436 150 440 q 151 427 151 432 q 153 419 151 422 q 156 411 156 411 l 157 411 q 160 410 158 410 q 172 410 165 408 q 177 412 175 411 q 182 414 179 413 q 187 419 185 417 q 192 424 189 421 q 197 432 194 429 m 328 422 q 328 419 328 421 q 329 417 329 418 l 329 411 q 322 408 325 410 q 314 406 318 407 q 299 403 303 403 q 290 401 293 401 q 282 400 286 400 q 274 401 278 400 q 267 403 271 401 q 253 411 258 403 q 244 424 246 417 q 243 442 243 431 q 247 457 243 449 q 250 463 249 460 q 254 468 251 465 q 260 473 257 471 q 265 478 263 475 q 279 483 274 482 q 293 485 288 486 q 306 481 299 485 q 315 471 310 479 q 316 468 315 469 q 317 465 317 467 q 319 460 319 460 q 320 456 319 457 q 321 453 321 454 q 320 451 321 451 q 319 449 319 450 q 313 444 318 447 q 303 443 307 444 l 293 443 q 283 442 286 443 q 278 439 279 442 q 276 432 275 436 q 286 415 278 421 q 307 414 293 411 q 318 419 313 418 q 323 421 321 421 q 328 422 325 421 m 289 461 q 283 467 286 467 q 281 467 282 468 q 278 464 279 465 q 276 461 278 463 q 276 457 276 458 q 276 453 275 456 l 276 451 q 279 450 278 451 l 282 450 q 285 451 283 450 l 288 451 q 289 461 290 457 m 400 431 q 400 411 403 421 q 389 400 397 406 q 371 397 378 397 q 354 403 365 397 q 340 413 347 404 q 333 431 333 422 q 336 432 335 432 l 342 432 l 349 432 l 350 432 q 355 424 353 426 q 360 419 357 422 q 369 419 367 417 q 376 424 372 419 q 372 432 376 428 q 367 435 369 433 q 360 438 364 436 q 354 442 357 440 q 349 446 351 443 q 339 456 340 451 q 338 471 336 461 q 341 476 340 474 q 344 481 342 478 q 350 485 347 483 q 357 488 353 486 q 369 490 360 490 q 383 486 376 490 q 393 478 388 483 q 399 463 399 472 l 389 463 l 378 463 q 372 471 375 471 q 368 474 369 474 q 364 471 367 474 q 361 467 361 471 q 364 461 361 464 q 372 454 369 456 q 392 443 388 449 q 400 431 400 439 m 450 447 l 450 431 q 451 415 451 425 l 451 400 l 419 400 l 419 432 l 419 465 l 450 465 l 450 447 m 447 524 q 439 524 443 525 q 431 522 433 524 q 424 519 428 519 q 419 515 419 517 l 419 510 q 422 509 421 510 q 425 508 424 508 q 433 510 429 508 l 440 510 q 444 512 443 511 q 449 514 446 513 q 451 518 451 517 q 451 521 453 519 q 447 524 449 524 m 540 474 q 546 465 546 468 l 546 454 l 546 419 l 546 381 q 545 373 546 376 q 544 365 544 369 q 542 353 544 358 q 539 345 540 349 q 536 339 538 342 q 531 332 533 335 q 526 326 529 329 q 515 321 524 324 q 499 321 508 319 q 485 324 493 321 q 478 325 481 324 q 472 329 475 326 q 465 339 468 333 q 471 343 468 342 q 478 347 474 344 q 488 353 483 353 q 496 346 490 351 q 503 338 497 343 q 510 354 507 343 q 513 371 513 365 q 513 388 515 381 l 513 404 q 500 403 507 403 q 489 400 497 403 q 474 403 481 399 q 468 413 468 404 l 468 431 q 478 450 472 440 q 489 468 481 457 q 506 481 497 476 q 524 483 515 485 q 540 474 532 483 m 513 424 l 513 449 q 510 461 513 458 q 506 463 508 465 q 499 456 500 460 q 493 444 497 450 q 492 438 492 442 q 492 432 492 435 q 494 421 492 422 q 500 415 496 417 q 507 413 506 413 q 510 414 510 414 l 513 417 l 513 421 l 513 424 m 644 464 q 646 456 644 460 q 647 450 646 453 q 647 444 647 447 q 649 438 649 442 q 650 431 649 433 q 651 423 650 426 q 651 417 651 419 l 651 406 q 650 401 651 403 l 649 401 q 647 401 647 401 q 646 400 647 400 l 642 400 l 633 400 l 625 400 l 625 411 q 626 418 625 414 q 626 425 626 422 q 626 433 626 429 q 625 440 625 436 q 622 453 625 450 q 615 461 621 458 q 601 460 607 461 q 596 451 599 458 q 593 439 593 446 q 592 431 593 435 q 592 424 592 428 l 592 410 q 593 401 593 406 q 576 400 586 400 l 564 400 q 558 403 558 400 l 558 419 l 558 440 q 558 449 558 444 q 557 461 557 454 q 558 470 557 465 q 558 479 558 475 q 574 481 564 481 q 581 481 578 481 q 588 482 585 482 q 589 479 589 481 q 590 474 590 478 q 606 483 597 481 q 622 486 617 488 q 635 481 629 486 q 644 464 643 472 m 699 413 q 699 410 701 413 l 694 406 q 688 403 692 403 q 679 401 685 401 q 672 400 676 400 q 667 403 667 403 q 665 407 665 403 q 671 411 668 410 q 676 414 671 411 q 685 415 681 415 q 693 415 689 417 q 699 413 696 415 m 779 415 q 782 411 782 413 l 786 407 q 776 404 782 406 q 765 403 771 403 q 755 401 760 401 q 743 400 750 400 q 724 404 738 401 q 710 419 714 408 q 706 429 707 425 l 706 440 q 707 451 706 447 q 711 461 708 453 q 717 469 714 465 q 724 475 721 472 q 733 479 729 478 q 743 482 738 481 q 751 484 747 483 q 760 483 754 485 q 774 481 765 483 q 779 478 776 481 q 782 471 782 472 q 785 465 782 471 l 785 463 q 786 461 785 461 q 771 460 775 461 q 758 461 763 460 l 754 461 q 753 467 753 463 q 751 469 751 468 q 750 471 751 469 q 748 472 749 471 q 746 472 747 472 q 742 469 744 472 q 739 463 742 468 q 738 458 739 460 q 738 454 738 457 q 737 451 738 451 q 736 449 736 450 l 736 436 q 742 424 739 428 q 749 418 742 421 q 758 413 756 414 l 769 413 q 779 415 776 413 m 799 461 q 809 474 804 468 q 821 482 814 479 q 842 488 831 490 q 860 479 851 486 q 867 472 864 475 q 872 461 869 468 q 878 442 878 454 q 872 421 879 431 q 856 406 868 413 q 841 401 849 403 q 822 400 833 400 q 803 406 810 401 q 798 413 800 410 q 794 422 796 417 q 793 440 793 426 q 799 461 796 454 m 850 447 q 849 464 851 457 q 839 469 844 469 q 829 461 833 468 q 824 443 824 453 q 825 436 824 439 q 826 426 825 431 q 829 418 826 424 q 835 414 831 414 q 842 417 839 411 q 847 426 847 422 q 850 438 850 435 l 850 447 m 1018 478 q 1019 473 1018 475 q 1019 468 1019 471 q 1020 462 1019 465 q 1021 453 1021 458 l 1021 436 l 1021 419 q 1020 412 1021 415 q 1019 406 1019 408 q 1018 401 1019 401 l 1015 401 l 1007 401 q 999 400 1006 400 l 992 400 q 992 421 989 408 q 992 431 992 426 q 993 442 993 436 q 992 458 993 453 q 988 465 992 465 q 975 461 981 467 q 972 454 972 458 q 969 447 971 450 l 969 428 l 969 410 l 942 410 q 943 425 942 419 l 943 443 q 944 451 944 447 q 943 457 943 454 q 939 464 940 464 q 928 465 933 468 q 921 458 924 463 q 919 453 919 456 q 918 446 918 450 q 917 439 918 443 q 917 431 917 435 q 917 422 917 426 q 918 414 918 418 l 918 400 q 910 401 914 400 q 901 401 907 401 l 888 401 l 888 433 l 888 471 l 888 478 q 889 482 888 481 q 890 485 889 483 q 893 485 892 485 q 897 486 894 486 q 907 488 900 488 q 912 488 910 488 q 917 489 914 489 q 917 486 917 488 q 918 483 918 485 l 918 479 q 928 488 922 482 q 939 490 933 490 l 947 490 q 954 489 953 490 q 960 485 957 489 q 963 482 963 483 q 967 479 964 481 q 969 481 968 481 q 972 483 971 482 q 978 486 978 486 q 985 489 981 489 q 992 490 988 490 l 1000 490 q 1007 488 1004 490 q 1014 482 1013 485 q 1017 480 1017 481 q 1018 478 1017 479 z "},",":{"ha":265,"x_min":-15,"x_max":225,"o":"m 225 149 q 196 69 210 106 q 169 -1 182 32 q 145 -67 157 -35 q 121 -133 133 -99 q 54 -108 88 -121 q -15 -79 21 -94 q 36 56 10 -10 q 97 200 63 121 q 161 174 129 188 q 225 149 193 161 z "},"%":{"ha":1157,"x_min":32,"x_max":1110,"o":"m 571 -3 q 361 39 461 -3 q 190 154 267 81 q 75 325 114 231 q 43 428 54 376 q 32 535 32 481 q 43 642 32 590 q 75 746 54 694 q 190 917 114 840 q 361 1031 268 992 q 571 1074 460 1074 q 781 1031 682 1074 q 951 917 878 990 q 1067 746 1028 840 q 1099 642 1088 694 q 1110 535 1110 590 q 1099 428 1110 481 q 1067 325 1088 376 q 951 154 1028 231 q 781 39 879 82 q 571 -3 681 -3 m 571 1054 q 369 1014 467 1054 q 281 967 322 994 q 203 903 240 939 q 93 738 131 828 q 63 638 74 689 q 51 535 51 588 q 63 432 51 482 q 93 333 74 382 q 140 245 113 286 q 203 168 167 204 q 369 57 276 96 q 571 17 467 17 q 772 57 676 17 q 939 168 868 97 q 1002 245 975 204 q 1049 333 1029 286 q 1090 535 1090 429 q 1049 738 1090 642 q 939 903 1011 828 q 772 1014 865 975 q 571 1054 676 1054 m 318 628 q 315 604 322 614 q 299 589 308 593 q 272 581 289 583 q 260 581 265 581 q 247 583 254 581 q 236 589 240 586 q 226 596 232 592 q 217 618 217 606 l 247 618 q 251 608 247 614 q 260 599 253 606 q 271 592 264 593 q 282 593 278 589 q 289 601 288 599 q 290 613 290 606 q 286 624 290 617 q 281 636 283 628 q 272 646 275 642 q 265 651 268 650 q 256 658 261 656 q 246 665 251 661 q 226 678 236 671 q 220 685 224 682 q 214 696 217 689 q 210 719 207 704 q 218 736 211 726 q 226 742 222 739 q 233 746 229 744 q 254 750 246 750 q 274 747 264 751 q 288 736 281 746 q 292 717 292 732 l 263 717 q 260 722 263 717 q 256 728 258 725 q 251 735 253 733 q 246 738 249 738 q 239 725 240 732 q 240 708 239 715 q 245 700 243 704 q 251 693 247 696 q 258 686 254 689 q 265 681 261 683 q 282 669 272 675 q 290 664 286 667 q 297 658 293 661 q 304 652 300 656 q 311 646 308 649 q 318 628 317 635 m 433 583 q 431 583 432 583 q 428 582 431 582 l 418 582 l 408 582 q 400 583 404 583 l 400 586 q 399 589 399 589 q 397 593 399 592 l 397 594 q 394 592 394 593 q 390 590 393 592 q 388 589 389 589 l 383 585 q 379 582 382 585 q 374 581 376 582 q 368 581 371 581 q 356 582 360 581 q 350 583 353 582 q 344 586 347 585 q 336 594 338 590 q 332 606 332 599 q 332 617 329 610 q 335 628 332 622 q 340 638 336 633 q 358 654 347 649 q 379 664 369 663 q 400 661 388 665 q 413 643 410 654 q 415 637 414 640 q 418 629 417 633 q 420 622 419 626 q 424 614 421 617 q 426 606 425 610 q 429 599 428 601 q 433 583 431 592 m 382 603 q 383 606 382 604 q 383 610 383 607 q 384 615 383 613 q 385 621 385 618 q 384 628 385 625 q 383 633 383 631 q 382 638 382 636 q 381 643 382 640 q 376 647 378 647 q 369 643 371 647 q 363 635 364 638 q 360 625 360 629 q 358 615 358 621 q 359 610 358 613 q 360 606 360 608 q 365 601 363 603 q 371 599 368 599 l 378 599 q 382 603 379 599 m 526 671 q 522 661 526 669 q 519 654 521 658 q 517 644 518 650 q 512 634 514 639 q 507 624 510 629 q 499 604 501 610 q 496 596 497 600 q 493 589 494 592 q 488 582 489 582 l 457 582 l 449 603 q 446 614 447 608 q 442 626 444 619 q 436 650 439 640 q 429 671 432 661 l 458 671 q 464 657 461 665 q 466 650 465 654 q 468 643 467 646 q 469 638 468 640 q 469 632 469 635 q 475 624 471 628 q 478 622 475 622 q 479 625 478 624 q 482 629 482 628 q 483 633 483 631 q 488 640 485 635 q 492 654 488 646 q 494 660 493 657 q 497 667 496 664 l 497 669 q 499 671 497 671 q 513 671 506 672 l 526 671 m 635 583 q 632 583 633 583 q 628 582 631 582 l 618 582 l 607 582 q 600 583 604 583 q 599 586 600 585 l 599 589 q 597 593 597 590 q 596 594 596 594 l 592 590 q 588 589 590 589 q 586 587 586 588 q 583 585 586 586 q 578 582 583 585 q 574 581 576 582 q 567 581 571 581 q 556 582 560 581 q 550 583 553 582 q 544 586 547 585 q 536 594 538 590 q 532 606 532 599 l 532 617 q 536 628 535 626 q 540 638 536 635 q 548 647 544 643 q 557 654 551 651 q 569 660 564 657 q 578 664 574 663 q 599 661 589 665 q 614 643 608 656 q 615 637 615 640 q 618 629 615 633 q 621 622 619 626 q 624 614 622 617 q 629 599 626 603 q 635 583 631 589 m 582 603 q 583 610 583 604 q 585 621 585 614 q 583 633 585 629 q 581 643 583 638 q 576 647 578 647 q 568 643 571 647 q 565 639 565 640 q 563 635 565 638 q 560 630 561 632 q 558 625 560 628 q 557 615 557 621 q 561 606 557 610 q 565 601 561 603 q 571 599 568 599 l 576 599 q 582 603 579 599 m 728 647 q 728 642 728 644 q 729 638 729 640 q 732 628 732 635 l 732 613 q 733 599 733 608 q 735 589 735 596 q 734 585 735 586 q 733 583 733 585 q 731 582 732 583 l 724 582 l 717 582 l 708 582 q 710 593 708 589 l 710 608 l 710 622 q 706 636 708 628 q 702 640 703 639 q 699 643 701 642 q 683 642 692 646 q 682 639 683 640 q 679 635 681 638 q 676 621 676 626 q 675 607 675 617 l 675 592 q 676 583 675 586 q 660 582 669 582 l 647 582 q 642 585 642 582 l 642 601 l 642 622 l 642 643 l 642 661 q 649 663 644 663 q 657 664 653 663 q 665 665 661 664 q 672 665 668 665 q 673 663 672 664 q 674 661 674 663 l 674 657 q 690 667 685 665 q 706 668 700 669 q 718 663 713 668 q 728 647 724 657 m 843 583 q 841 583 842 583 q 838 582 840 582 l 828 582 l 818 582 q 810 583 814 583 l 810 586 q 808 589 808 589 q 807 593 808 592 l 807 594 q 801 590 804 593 q 797 589 800 589 l 793 585 q 789 582 794 585 q 783 581 786 582 q 778 581 781 581 q 765 582 769 581 q 760 583 763 582 q 754 586 757 585 q 749 590 751 589 q 746 594 747 592 q 742 606 742 599 l 742 617 q 744 628 742 622 q 751 638 747 635 q 768 654 756 646 q 789 664 778 661 q 810 661 797 665 q 817 654 814 658 q 822 643 821 650 q 825 637 824 640 q 828 629 826 633 q 831 622 831 626 q 833 614 831 617 q 836 606 835 610 q 839 599 838 601 q 843 583 840 592 m 792 603 q 792 606 792 604 q 793 610 793 607 q 794 615 793 613 q 794 621 794 618 q 794 628 794 625 q 793 633 793 631 q 792 643 792 638 q 786 647 789 647 q 779 643 782 647 q 772 635 774 638 q 769 625 772 631 q 768 615 768 621 q 771 606 768 611 q 772 603 772 604 q 775 601 772 603 q 782 599 778 599 l 788 599 q 792 603 792 599 m 919 613 q 920 601 921 606 q 918 593 919 597 q 907 582 914 586 q 899 580 903 581 q 890 579 896 579 q 882 581 886 579 q 872 585 878 582 q 866 590 869 588 q 860 596 863 592 q 854 603 856 599 q 851 613 853 608 q 854 614 853 614 l 860 614 l 867 614 l 869 614 q 879 601 874 604 q 889 601 885 600 q 894 607 892 601 q 890 614 897 610 q 879 619 889 617 l 867 628 q 858 638 861 631 q 857 653 853 646 q 864 664 858 658 q 875 669 867 667 q 889 672 879 672 q 901 668 897 672 q 908 665 906 667 q 913 660 910 663 q 917 646 917 656 l 908 646 l 896 646 q 892 654 896 650 q 889 656 889 656 q 886 657 889 657 q 882 654 885 657 q 881 649 878 650 q 883 643 881 646 q 892 638 886 638 q 911 626 906 632 q 919 613 917 622 m 132 558 q 161 561 149 563 q 188 556 176 561 q 211 540 200 549 q 228 518 222 529 q 238 490 235 507 q 238 461 242 475 q 231 440 236 454 q 217 421 225 429 q 194 407 210 413 q 169 401 183 403 l 165 401 l 156 401 q 150 401 153 401 q 144 400 147 400 q 139 401 142 400 q 133 401 136 401 l 125 401 q 122 403 122 403 l 121 403 l 121 444 l 121 493 q 121 542 124 518 l 121 549 q 122 551 121 550 q 122 553 122 551 q 125 556 125 556 q 132 558 126 556 m 197 432 q 207 461 204 444 q 204 489 208 475 q 199 510 201 503 q 193 519 196 515 q 186 528 190 524 q 183 531 183 531 q 179 534 181 533 q 175 538 178 535 q 172 540 174 539 q 168 543 171 540 q 165 545 165 544 q 161 547 164 546 q 154 549 158 549 l 153 547 q 152 546 153 546 q 151 544 151 546 l 151 539 l 151 524 q 150 515 150 521 q 150 504 150 510 q 149 493 150 499 q 149 481 149 488 l 149 457 q 150 446 150 451 q 150 436 150 440 q 151 427 151 432 q 153 419 151 422 q 156 411 156 411 l 157 411 q 160 410 158 410 q 172 410 165 408 q 177 412 175 411 q 182 414 179 413 q 187 419 185 417 q 192 424 189 421 q 197 432 194 429 m 328 422 q 328 419 328 421 q 329 417 329 418 l 329 411 q 322 408 325 410 q 314 406 318 407 q 299 403 303 403 q 290 401 293 401 q 282 400 286 400 q 274 401 278 400 q 267 403 271 401 q 253 411 258 403 q 244 424 246 417 q 243 442 243 431 q 247 457 243 449 q 250 463 249 460 q 254 468 251 465 q 260 473 257 471 q 265 478 263 475 q 279 483 274 482 q 293 485 288 486 q 306 481 299 485 q 315 471 310 479 q 316 468 315 469 q 317 465 317 467 q 319 460 319 460 q 320 456 319 457 q 321 453 321 454 q 320 451 321 451 q 319 449 319 450 q 313 444 318 447 q 303 443 307 444 l 293 443 q 283 442 286 443 q 278 439 279 442 q 276 432 275 436 q 286 415 278 421 q 307 414 293 411 q 318 419 313 418 q 323 421 321 421 q 328 422 325 421 m 289 461 q 283 467 286 467 q 281 467 282 468 q 278 464 279 465 q 276 461 278 463 q 276 457 276 458 q 276 453 275 456 l 276 451 q 279 450 278 451 l 282 450 q 285 451 283 450 l 288 451 q 289 461 290 457 m 400 431 q 400 411 403 421 q 389 400 397 406 q 371 397 378 397 q 354 403 365 397 q 340 413 347 404 q 333 431 333 422 q 336 432 335 432 l 342 432 l 349 432 l 350 432 q 355 424 353 426 q 360 419 357 422 q 369 419 367 417 q 376 424 372 419 q 372 432 376 428 q 367 435 369 433 q 360 438 364 436 q 354 442 357 440 q 349 446 351 443 q 339 456 340 451 q 338 471 336 461 q 341 476 340 474 q 344 481 342 478 q 350 485 347 483 q 357 488 353 486 q 369 490 360 490 q 383 486 376 490 q 393 478 388 483 q 399 463 399 472 l 389 463 l 378 463 q 372 471 375 471 q 368 474 369 474 q 364 471 367 474 q 361 467 361 471 q 364 461 361 464 q 372 454 369 456 q 392 443 388 449 q 400 431 400 439 m 450 447 l 450 431 q 451 415 451 425 l 451 400 l 419 400 l 419 432 l 419 465 l 450 465 l 450 447 m 447 524 q 439 524 443 525 q 431 522 433 524 q 424 519 428 519 q 419 515 419 517 l 419 510 q 422 509 421 510 q 425 508 424 508 q 433 510 429 508 l 440 510 q 444 512 443 511 q 449 514 446 513 q 451 518 451 517 q 451 521 453 519 q 447 524 449 524 m 540 474 q 546 465 546 468 l 546 454 l 546 419 l 546 381 q 545 373 546 376 q 544 365 544 369 q 542 353 544 358 q 539 345 540 349 q 536 339 538 342 q 531 332 533 335 q 526 326 529 329 q 515 321 524 324 q 499 321 508 319 q 485 324 493 321 q 478 325 481 324 q 472 329 475 326 q 465 339 468 333 q 471 343 468 342 q 478 347 474 344 q 488 353 483 353 q 496 346 490 351 q 503 338 497 343 q 510 354 507 343 q 513 371 513 365 q 513 388 515 381 l 513 404 q 500 403 507 403 q 489 400 497 403 q 474 403 481 399 q 468 413 468 404 l 468 431 q 478 450 472 440 q 489 468 481 457 q 506 481 497 476 q 524 483 515 485 q 540 474 532 483 m 513 424 l 513 449 q 510 461 513 458 q 506 463 508 465 q 499 456 500 460 q 493 444 497 450 q 492 438 492 442 q 492 432 492 435 q 494 421 492 422 q 500 415 496 417 q 507 413 506 413 q 510 414 510 414 l 513 417 l 513 421 l 513 424 m 644 464 q 646 456 644 460 q 647 450 646 453 q 647 444 647 447 q 649 438 649 442 q 650 431 649 433 q 651 423 650 426 q 651 417 651 419 l 651 406 q 650 401 651 403 l 649 401 q 647 401 647 401 q 646 400 647 400 l 642 400 l 633 400 l 625 400 l 625 411 q 626 418 625 414 q 626 425 626 422 q 626 433 626 429 q 625 440 625 436 q 622 453 625 450 q 615 461 621 458 q 601 460 607 461 q 596 451 599 458 q 593 439 593 446 q 592 431 593 435 q 592 424 592 428 l 592 410 q 593 401 593 406 q 576 400 586 400 l 564 400 q 558 403 558 400 l 558 419 l 558 440 q 558 449 558 444 q 557 461 557 454 q 558 470 557 465 q 558 479 558 475 q 574 481 564 481 q 581 481 578 481 q 588 482 585 482 q 589 479 589 481 q 590 474 590 478 q 606 483 597 481 q 622 486 617 488 q 635 481 629 486 q 644 464 643 472 m 699 413 q 699 410 701 413 l 694 406 q 688 403 692 403 q 679 401 685 401 q 672 400 676 400 q 667 403 667 403 q 665 407 665 403 q 671 411 668 410 q 676 414 671 411 q 685 415 681 415 q 693 415 689 417 q 699 413 696 415 m 779 415 q 782 411 782 413 l 786 407 q 776 404 782 406 q 765 403 771 403 q 755 401 760 401 q 743 400 750 400 q 724 404 738 401 q 710 419 714 408 q 706 429 707 425 l 706 440 q 707 451 706 447 q 711 461 708 453 q 717 469 714 465 q 724 475 721 472 q 733 479 729 478 q 743 482 738 481 q 751 484 747 483 q 760 483 754 485 q 774 481 765 483 q 779 478 776 481 q 782 471 782 472 q 785 465 782 471 l 785 463 q 786 461 785 461 q 771 460 775 461 q 758 461 763 460 l 754 461 q 753 467 753 463 q 751 469 751 468 q 750 471 751 469 q 748 472 749 471 q 746 472 747 472 q 742 469 744 472 q 739 463 742 468 q 738 458 739 460 q 738 454 738 457 q 737 451 738 451 q 736 449 736 450 l 736 436 q 742 424 739 428 q 749 418 742 421 q 758 413 756 414 l 769 413 q 779 415 776 413 m 799 461 q 809 474 804 468 q 821 482 814 479 q 842 488 831 490 q 860 479 851 486 q 867 472 864 475 q 872 461 869 468 q 878 442 878 454 q 872 421 879 431 q 856 406 868 413 q 841 401 849 403 q 822 400 833 400 q 803 406 810 401 q 798 413 800 410 q 794 422 796 417 q 793 440 793 426 q 799 461 796 454 m 850 447 q 849 464 851 457 q 839 469 844 469 q 829 461 833 468 q 824 443 824 453 q 825 436 824 439 q 826 426 825 431 q 829 418 826 424 q 835 414 831 414 q 842 417 839 411 q 847 426 847 422 q 850 438 850 435 l 850 447 m 1018 478 q 1019 473 1018 475 q 1019 468 1019 471 q 1020 462 1019 465 q 1021 453 1021 458 l 1021 436 l 1021 419 q 1020 412 1021 415 q 1019 406 1019 408 q 1018 401 1019 401 l 1015 401 l 1007 401 q 999 400 1006 400 l 992 400 q 992 421 989 408 q 992 431 992 426 q 993 442 993 436 q 992 458 993 453 q 988 465 992 465 q 975 461 981 467 q 972 454 972 458 q 969 447 971 450 l 969 428 l 969 410 l 942 410 q 943 425 942 419 l 943 443 q 944 451 944 447 q 943 457 943 454 q 939 464 940 464 q 928 465 933 468 q 921 458 924 463 q 919 453 919 456 q 918 446 918 450 q 917 439 918 443 q 917 431 917 435 q 917 422 917 426 q 918 414 918 418 l 918 400 q 910 401 914 400 q 901 401 907 401 l 888 401 l 888 433 l 888 471 l 888 478 q 889 482 888 481 q 890 485 889 483 q 893 485 892 485 q 897 486 894 486 q 907 488 900 488 q 912 488 910 488 q 917 489 914 489 q 917 486 917 488 q 918 483 918 485 l 918 479 q 928 488 922 482 q 939 490 933 490 l 947 490 q 954 489 953 490 q 960 485 957 489 q 963 482 963 483 q 967 479 964 481 q 969 481 968 481 q 972 483 971 482 q 978 486 978 486 q 985 489 981 489 q 992 490 988 490 l 1000 490 q 1007 488 1004 490 q 1014 482 1013 485 q 1017 480 1017 481 q 1018 478 1017 479 z "},"$":{"ha":1157,"x_min":32,"x_max":1110,"o":"m 571 -3 q 361 39 461 -3 q 190 154 267 81 q 75 325 114 231 q 43 428 54 376 q 32 535 32 481 q 43 642 32 590 q 75 746 54 694 q 190 917 114 840 q 361 1031 268 992 q 571 1074 460 1074 q 781 1031 682 1074 q 951 917 878 990 q 1067 746 1028 840 q 1099 642 1088 694 q 1110 535 1110 590 q 1099 428 1110 481 q 1067 325 1088 376 q 951 154 1028 231 q 781 39 879 82 q 571 -3 681 -3 m 571 1054 q 369 1014 467 1054 q 281 967 322 994 q 203 903 240 939 q 93 738 131 828 q 63 638 74 689 q 51 535 51 588 q 63 432 51 482 q 93 333 74 382 q 140 245 113 286 q 203 168 167 204 q 369 57 276 96 q 571 17 467 17 q 772 57 676 17 q 939 168 868 97 q 1002 245 975 204 q 1049 333 1029 286 q 1090 535 1090 429 q 1049 738 1090 642 q 939 903 1011 828 q 772 1014 865 975 q 571 1054 676 1054 m 318 628 q 315 604 322 614 q 299 589 308 593 q 272 581 289 583 q 260 581 265 581 q 247 583 254 581 q 236 589 240 586 q 226 596 232 592 q 217 618 217 606 l 247 618 q 251 608 247 614 q 260 599 253 606 q 271 592 264 593 q 282 593 278 589 q 289 601 288 599 q 290 613 290 606 q 286 624 290 617 q 281 636 283 628 q 272 646 275 642 q 265 651 268 650 q 256 658 261 656 q 246 665 251 661 q 226 678 236 671 q 220 685 224 682 q 214 696 217 689 q 210 719 207 704 q 218 736 211 726 q 226 742 222 739 q 233 746 229 744 q 254 750 246 750 q 274 747 264 751 q 288 736 281 746 q 292 717 292 732 l 263 717 q 260 722 263 717 q 256 728 258 725 q 251 735 253 733 q 246 738 249 738 q 239 725 240 732 q 240 708 239 715 q 245 700 243 704 q 251 693 247 696 q 258 686 254 689 q 265 681 261 683 q 282 669 272 675 q 290 664 286 667 q 297 658 293 661 q 304 652 300 656 q 311 646 308 649 q 318 628 317 635 m 433 583 q 431 583 432 583 q 428 582 431 582 l 418 582 l 408 582 q 400 583 404 583 l 400 586 q 399 589 399 589 q 397 593 399 592 l 397 594 q 394 592 394 593 q 390 590 393 592 q 388 589 389 589 l 383 585 q 379 582 382 585 q 374 581 376 582 q 368 581 371 581 q 356 582 360 581 q 350 583 353 582 q 344 586 347 585 q 336 594 338 590 q 332 606 332 599 q 332 617 329 610 q 335 628 332 622 q 340 638 336 633 q 358 654 347 649 q 379 664 369 663 q 400 661 388 665 q 413 643 410 654 q 415 637 414 640 q 418 629 417 633 q 420 622 419 626 q 424 614 421 617 q 426 606 425 610 q 429 599 428 601 q 433 583 431 592 m 382 603 q 383 606 382 604 q 383 610 383 607 q 384 615 383 613 q 385 621 385 618 q 384 628 385 625 q 383 633 383 631 q 382 638 382 636 q 381 643 382 640 q 376 647 378 647 q 369 643 371 647 q 363 635 364 638 q 360 625 360 629 q 358 615 358 621 q 359 610 358 613 q 360 606 360 608 q 365 601 363 603 q 371 599 368 599 l 378 599 q 382 603 379 599 m 526 671 q 522 661 526 669 q 519 654 521 658 q 517 644 518 650 q 512 634 514 639 q 507 624 510 629 q 499 604 501 610 q 496 596 497 600 q 493 589 494 592 q 488 582 489 582 l 457 582 l 449 603 q 446 614 447 608 q 442 626 444 619 q 436 650 439 640 q 429 671 432 661 l 458 671 q 464 657 461 665 q 466 650 465 654 q 468 643 467 646 q 469 638 468 640 q 469 632 469 635 q 475 624 471 628 q 478 622 475 622 q 479 625 478 624 q 482 629 482 628 q 483 633 483 631 q 488 640 485 635 q 492 654 488 646 q 494 660 493 657 q 497 667 496 664 l 497 669 q 499 671 497 671 q 513 671 506 672 l 526 671 m 635 583 q 632 583 633 583 q 628 582 631 582 l 618 582 l 607 582 q 600 583 604 583 q 599 586 600 585 l 599 589 q 597 593 597 590 q 596 594 596 594 l 592 590 q 588 589 590 589 q 586 587 586 588 q 583 585 586 586 q 578 582 583 585 q 574 581 576 582 q 567 581 571 581 q 556 582 560 581 q 550 583 553 582 q 544 586 547 585 q 536 594 538 590 q 532 606 532 599 l 532 617 q 536 628 535 626 q 540 638 536 635 q 548 647 544 643 q 557 654 551 651 q 569 660 564 657 q 578 664 574 663 q 599 661 589 665 q 614 643 608 656 q 615 637 615 640 q 618 629 615 633 q 621 622 619 626 q 624 614 622 617 q 629 599 626 603 q 635 583 631 589 m 582 603 q 583 610 583 604 q 585 621 585 614 q 583 633 585 629 q 581 643 583 638 q 576 647 578 647 q 568 643 571 647 q 565 639 565 640 q 563 635 565 638 q 560 630 561 632 q 558 625 560 628 q 557 615 557 621 q 561 606 557 610 q 565 601 561 603 q 571 599 568 599 l 576 599 q 582 603 579 599 m 728 647 q 728 642 728 644 q 729 638 729 640 q 732 628 732 635 l 732 613 q 733 599 733 608 q 735 589 735 596 q 734 585 735 586 q 733 583 733 585 q 731 582 732 583 l 724 582 l 717 582 l 708 582 q 710 593 708 589 l 710 608 l 710 622 q 706 636 708 628 q 702 640 703 639 q 699 643 701 642 q 683 642 692 646 q 682 639 683 640 q 679 635 681 638 q 676 621 676 626 q 675 607 675 617 l 675 592 q 676 583 675 586 q 660 582 669 582 l 647 582 q 642 585 642 582 l 642 601 l 642 622 l 642 643 l 642 661 q 649 663 644 663 q 657 664 653 663 q 665 665 661 664 q 672 665 668 665 q 673 663 672 664 q 674 661 674 663 l 674 657 q 690 667 685 665 q 706 668 700 669 q 718 663 713 668 q 728 647 724 657 m 843 583 q 841 583 842 583 q 838 582 840 582 l 828 582 l 818 582 q 810 583 814 583 l 810 586 q 808 589 808 589 q 807 593 808 592 l 807 594 q 801 590 804 593 q 797 589 800 589 l 793 585 q 789 582 794 585 q 783 581 786 582 q 778 581 781 581 q 765 582 769 581 q 760 583 763 582 q 754 586 757 585 q 749 590 751 589 q 746 594 747 592 q 742 606 742 599 l 742 617 q 744 628 742 622 q 751 638 747 635 q 768 654 756 646 q 789 664 778 661 q 810 661 797 665 q 817 654 814 658 q 822 643 821 650 q 825 637 824 640 q 828 629 826 633 q 831 622 831 626 q 833 614 831 617 q 836 606 835 610 q 839 599 838 601 q 843 583 840 592 m 792 603 q 792 606 792 604 q 793 610 793 607 q 794 615 793 613 q 794 621 794 618 q 794 628 794 625 q 793 633 793 631 q 792 643 792 638 q 786 647 789 647 q 779 643 782 647 q 772 635 774 638 q 769 625 772 631 q 768 615 768 621 q 771 606 768 611 q 772 603 772 604 q 775 601 772 603 q 782 599 778 599 l 788 599 q 792 603 792 599 m 919 613 q 920 601 921 606 q 918 593 919 597 q 907 582 914 586 q 899 580 903 581 q 890 579 896 579 q 882 581 886 579 q 872 585 878 582 q 866 590 869 588 q 860 596 863 592 q 854 603 856 599 q 851 613 853 608 q 854 614 853 614 l 860 614 l 867 614 l 869 614 q 879 601 874 604 q 889 601 885 600 q 894 607 892 601 q 890 614 897 610 q 879 619 889 617 l 867 628 q 858 638 861 631 q 857 653 853 646 q 864 664 858 658 q 875 669 867 667 q 889 672 879 672 q 901 668 897 672 q 908 665 906 667 q 913 660 910 663 q 917 646 917 656 l 908 646 l 896 646 q 892 654 896 650 q 889 656 889 656 q 886 657 889 657 q 882 654 885 657 q 881 649 878 650 q 883 643 881 646 q 892 638 886 638 q 911 626 906 632 q 919 613 917 622 m 132 558 q 161 561 149 563 q 188 556 176 561 q 211 540 200 549 q 228 518 222 529 q 238 490 235 507 q 238 461 242 475 q 231 440 236 454 q 217 421 225 429 q 194 407 210 413 q 169 401 183 403 l 165 401 l 156 401 q 150 401 153 401 q 144 400 147 400 q 139 401 142 400 q 133 401 136 401 l 125 401 q 122 403 122 403 l 121 403 l 121 444 l 121 493 q 121 542 124 518 l 121 549 q 122 551 121 550 q 122 553 122 551 q 125 556 125 556 q 132 558 126 556 m 197 432 q 207 461 204 444 q 204 489 208 475 q 199 510 201 503 q 193 519 196 515 q 186 528 190 524 q 183 531 183 531 q 179 534 181 533 q 175 538 178 535 q 172 540 174 539 q 168 543 171 540 q 165 545 165 544 q 161 547 164 546 q 154 549 158 549 l 153 547 q 152 546 153 546 q 151 544 151 546 l 151 539 l 151 524 q 150 515 150 521 q 150 504 150 510 q 149 493 150 499 q 149 481 149 488 l 149 457 q 150 446 150 451 q 150 436 150 440 q 151 427 151 432 q 153 419 151 422 q 156 411 156 411 l 157 411 q 160 410 158 410 q 172 410 165 408 q 177 412 175 411 q 182 414 179 413 q 187 419 185 417 q 192 424 189 421 q 197 432 194 429 m 328 422 q 328 419 328 421 q 329 417 329 418 l 329 411 q 322 408 325 410 q 314 406 318 407 q 299 403 303 403 q 290 401 293 401 q 282 400 286 400 q 274 401 278 400 q 267 403 271 401 q 253 411 258 403 q 244 424 246 417 q 243 442 243 431 q 247 457 243 449 q 250 463 249 460 q 254 468 251 465 q 260 473 257 471 q 265 478 263 475 q 279 483 274 482 q 293 485 288 486 q 306 481 299 485 q 315 471 310 479 q 316 468 315 469 q 317 465 317 467 q 319 460 319 460 q 320 456 319 457 q 321 453 321 454 q 320 451 321 451 q 319 449 319 450 q 313 444 318 447 q 303 443 307 444 l 293 443 q 283 442 286 443 q 278 439 279 442 q 276 432 275 436 q 286 415 278 421 q 307 414 293 411 q 318 419 313 418 q 323 421 321 421 q 328 422 325 421 m 289 461 q 283 467 286 467 q 281 467 282 468 q 278 464 279 465 q 276 461 278 463 q 276 457 276 458 q 276 453 275 456 l 276 451 q 279 450 278 451 l 282 450 q 285 451 283 450 l 288 451 q 289 461 290 457 m 400 431 q 400 411 403 421 q 389 400 397 406 q 371 397 378 397 q 354 403 365 397 q 340 413 347 404 q 333 431 333 422 q 336 432 335 432 l 342 432 l 349 432 l 350 432 q 355 424 353 426 q 360 419 357 422 q 369 419 367 417 q 376 424 372 419 q 372 432 376 428 q 367 435 369 433 q 360 438 364 436 q 354 442 357 440 q 349 446 351 443 q 339 456 340 451 q 338 471 336 461 q 341 476 340 474 q 344 481 342 478 q 350 485 347 483 q 357 488 353 486 q 369 490 360 490 q 383 486 376 490 q 393 478 388 483 q 399 463 399 472 l 389 463 l 378 463 q 372 471 375 471 q 368 474 369 474 q 364 471 367 474 q 361 467 361 471 q 364 461 361 464 q 372 454 369 456 q 392 443 388 449 q 400 431 400 439 m 450 447 l 450 431 q 451 415 451 425 l 451 400 l 419 400 l 419 432 l 419 465 l 450 465 l 450 447 m 447 524 q 439 524 443 525 q 431 522 433 524 q 424 519 428 519 q 419 515 419 517 l 419 510 q 422 509 421 510 q 425 508 424 508 q 433 510 429 508 l 440 510 q 444 512 443 511 q 449 514 446 513 q 451 518 451 517 q 451 521 453 519 q 447 524 449 524 m 540 474 q 546 465 546 468 l 546 454 l 546 419 l 546 381 q 545 373 546 376 q 544 365 544 369 q 542 353 544 358 q 539 345 540 349 q 536 339 538 342 q 531 332 533 335 q 526 326 529 329 q 515 321 524 324 q 499 321 508 319 q 485 324 493 321 q 478 325 481 324 q 472 329 475 326 q 465 339 468 333 q 471 343 468 342 q 478 347 474 344 q 488 353 483 353 q 496 346 490 351 q 503 338 497 343 q 510 354 507 343 q 513 371 513 365 q 513 388 515 381 l 513 404 q 500 403 507 403 q 489 400 497 403 q 474 403 481 399 q 468 413 468 404 l 468 431 q 478 450 472 440 q 489 468 481 457 q 506 481 497 476 q 524 483 515 485 q 540 474 532 483 m 513 424 l 513 449 q 510 461 513 458 q 506 463 508 465 q 499 456 500 460 q 493 444 497 450 q 492 438 492 442 q 492 432 492 435 q 494 421 492 422 q 500 415 496 417 q 507 413 506 413 q 510 414 510 414 l 513 417 l 513 421 l 513 424 m 644 464 q 646 456 644 460 q 647 450 646 453 q 647 444 647 447 q 649 438 649 442 q 650 431 649 433 q 651 423 650 426 q 651 417 651 419 l 651 406 q 650 401 651 403 l 649 401 q 647 401 647 401 q 646 400 647 400 l 642 400 l 633 400 l 625 400 l 625 411 q 626 418 625 414 q 626 425 626 422 q 626 433 626 429 q 625 440 625 436 q 622 453 625 450 q 615 461 621 458 q 601 460 607 461 q 596 451 599 458 q 593 439 593 446 q 592 431 593 435 q 592 424 592 428 l 592 410 q 593 401 593 406 q 576 400 586 400 l 564 400 q 558 403 558 400 l 558 419 l 558 440 q 558 449 558 444 q 557 461 557 454 q 558 470 557 465 q 558 479 558 475 q 574 481 564 481 q 581 481 578 481 q 588 482 585 482 q 589 479 589 481 q 590 474 590 478 q 606 483 597 481 q 622 486 617 488 q 635 481 629 486 q 644 464 643 472 m 699 413 q 699 410 701 413 l 694 406 q 688 403 692 403 q 679 401 685 401 q 672 400 676 400 q 667 403 667 403 q 665 407 665 403 q 671 411 668 410 q 676 414 671 411 q 685 415 681 415 q 693 415 689 417 q 699 413 696 415 m 779 415 q 782 411 782 413 l 786 407 q 776 404 782 406 q 765 403 771 403 q 755 401 760 401 q 743 400 750 400 q 724 404 738 401 q 710 419 714 408 q 706 429 707 425 l 706 440 q 707 451 706 447 q 711 461 708 453 q 717 469 714 465 q 724 475 721 472 q 733 479 729 478 q 743 482 738 481 q 751 484 747 483 q 760 483 754 485 q 774 481 765 483 q 779 478 776 481 q 782 471 782 472 q 785 465 782 471 l 785 463 q 786 461 785 461 q 771 460 775 461 q 758 461 763 460 l 754 461 q 753 467 753 463 q 751 469 751 468 q 750 471 751 469 q 748 472 749 471 q 746 472 747 472 q 742 469 744 472 q 739 463 742 468 q 738 458 739 460 q 738 454 738 457 q 737 451 738 451 q 736 449 736 450 l 736 436 q 742 424 739 428 q 749 418 742 421 q 758 413 756 414 l 769 413 q 779 415 776 413 m 799 461 q 809 474 804 468 q 821 482 814 479 q 842 488 831 490 q 860 479 851 486 q 867 472 864 475 q 872 461 869 468 q 878 442 878 454 q 872 421 879 431 q 856 406 868 413 q 841 401 849 403 q 822 400 833 400 q 803 406 810 401 q 798 413 800 410 q 794 422 796 417 q 793 440 793 426 q 799 461 796 454 m 850 447 q 849 464 851 457 q 839 469 844 469 q 829 461 833 468 q 824 443 824 453 q 825 436 824 439 q 826 426 825 431 q 829 418 826 424 q 835 414 831 414 q 842 417 839 411 q 847 426 847 422 q 850 438 850 435 l 850 447 m 1018 478 q 1019 473 1018 475 q 1019 468 1019 471 q 1020 462 1019 465 q 1021 453 1021 458 l 1021 436 l 1021 419 q 1020 412 1021 415 q 1019 406 1019 408 q 1018 401 1019 401 l 1015 401 l 1007 401 q 999 400 1006 400 l 992 400 q 992 421 989 408 q 992 431 992 426 q 993 442 993 436 q 992 458 993 453 q 988 465 992 465 q 975 461 981 467 q 972 454 972 458 q 969 447 971 450 l 969 428 l 969 410 l 942 410 q 943 425 942 419 l 943 443 q 944 451 944 447 q 943 457 943 454 q 939 464 940 464 q 928 465 933 468 q 921 458 924 463 q 919 453 919 456 q 918 446 918 450 q 917 439 918 443 q 917 431 917 435 q 917 422 917 426 q 918 414 918 418 l 918 400 q 910 401 914 400 q 901 401 907 401 l 888 401 l 888 433 l 888 471 l 888 478 q 889 482 888 481 q 890 485 889 483 q 893 485 892 485 q 897 486 894 486 q 907 488 900 488 q 912 488 910 488 q 917 489 914 489 q 917 486 917 488 q 918 483 918 485 l 918 479 q 928 488 922 482 q 939 490 933 490 l 947 490 q 954 489 953 490 q 960 485 957 489 q 963 482 963 483 q 967 479 964 481 q 969 481 968 481 q 972 483 971 482 q 978 486 978 486 q 985 489 981 489 q 992 490 988 490 l 1000 490 q 1007 488 1004 490 q 1014 482 1013 485 q 1017 480 1017 481 q 1018 478 1017 479 z "},"#":{"ha":1157,"x_min":32,"x_max":1110,"o":"m 571 -3 q 361 39 461 -3 q 190 154 267 81 q 75 325 114 231 q 43 428 54 376 q 32 535 32 481 q 43 642 32 590 q 75 746 54 694 q 190 917 114 840 q 361 1031 268 992 q 571 1074 460 1074 q 781 1031 682 1074 q 951 917 878 990 q 1067 746 1028 840 q 1099 642 1088 694 q 1110 535 1110 590 q 1099 428 1110 481 q 1067 325 1088 376 q 951 154 1028 231 q 781 39 879 82 q 571 -3 681 -3 m 571 1054 q 369 1014 467 1054 q 281 967 322 994 q 203 903 240 939 q 93 738 131 828 q 63 638 74 689 q 51 535 51 588 q 63 432 51 482 q 93 333 74 382 q 140 245 113 286 q 203 168 167 204 q 369 57 276 96 q 571 17 467 17 q 772 57 676 17 q 939 168 868 97 q 1002 245 975 204 q 1049 333 1029 286 q 1090 535 1090 429 q 1049 738 1090 642 q 939 903 1011 828 q 772 1014 865 975 q 571 1054 676 1054 m 318 628 q 315 604 322 614 q 299 589 308 593 q 272 581 289 583 q 260 581 265 581 q 247 583 254 581 q 236 589 240 586 q 226 596 232 592 q 217 618 217 606 l 247 618 q 251 608 247 614 q 260 599 253 606 q 271 592 264 593 q 282 593 278 589 q 289 601 288 599 q 290 613 290 606 q 286 624 290 617 q 281 636 283 628 q 272 646 275 642 q 265 651 268 650 q 256 658 261 656 q 246 665 251 661 q 226 678 236 671 q 220 685 224 682 q 214 696 217 689 q 210 719 207 704 q 218 736 211 726 q 226 742 222 739 q 233 746 229 744 q 254 750 246 750 q 274 747 264 751 q 288 736 281 746 q 292 717 292 732 l 263 717 q 260 722 263 717 q 256 728 258 725 q 251 735 253 733 q 246 738 249 738 q 239 725 240 732 q 240 708 239 715 q 245 700 243 704 q 251 693 247 696 q 258 686 254 689 q 265 681 261 683 q 282 669 272 675 q 290 664 286 667 q 297 658 293 661 q 304 652 300 656 q 311 646 308 649 q 318 628 317 635 m 433 583 q 431 583 432 583 q 428 582 431 582 l 418 582 l 408 582 q 400 583 404 583 l 400 586 q 399 589 399 589 q 397 593 399 592 l 397 594 q 394 592 394 593 q 390 590 393 592 q 388 589 389 589 l 383 585 q 379 582 382 585 q 374 581 376 582 q 368 581 371 581 q 356 582 360 581 q 350 583 353 582 q 344 586 347 585 q 336 594 338 590 q 332 606 332 599 q 332 617 329 610 q 335 628 332 622 q 340 638 336 633 q 358 654 347 649 q 379 664 369 663 q 400 661 388 665 q 413 643 410 654 q 415 637 414 640 q 418 629 417 633 q 420 622 419 626 q 424 614 421 617 q 426 606 425 610 q 429 599 428 601 q 433 583 431 592 m 382 603 q 383 606 382 604 q 383 610 383 607 q 384 615 383 613 q 385 621 385 618 q 384 628 385 625 q 383 633 383 631 q 382 638 382 636 q 381 643 382 640 q 376 647 378 647 q 369 643 371 647 q 363 635 364 638 q 360 625 360 629 q 358 615 358 621 q 359 610 358 613 q 360 606 360 608 q 365 601 363 603 q 371 599 368 599 l 378 599 q 382 603 379 599 m 526 671 q 522 661 526 669 q 519 654 521 658 q 517 644 518 650 q 512 634 514 639 q 507 624 510 629 q 499 604 501 610 q 496 596 497 600 q 493 589 494 592 q 488 582 489 582 l 457 582 l 449 603 q 446 614 447 608 q 442 626 444 619 q 436 650 439 640 q 429 671 432 661 l 458 671 q 464 657 461 665 q 466 650 465 654 q 468 643 467 646 q 469 638 468 640 q 469 632 469 635 q 475 624 471 628 q 478 622 475 622 q 479 625 478 624 q 482 629 482 628 q 483 633 483 631 q 488 640 485 635 q 492 654 488 646 q 494 660 493 657 q 497 667 496 664 l 497 669 q 499 671 497 671 q 513 671 506 672 l 526 671 m 635 583 q 632 583 633 583 q 628 582 631 582 l 618 582 l 607 582 q 600 583 604 583 q 599 586 600 585 l 599 589 q 597 593 597 590 q 596 594 596 594 l 592 590 q 588 589 590 589 q 586 587 586 588 q 583 585 586 586 q 578 582 583 585 q 574 581 576 582 q 567 581 571 581 q 556 582 560 581 q 550 583 553 582 q 544 586 547 585 q 536 594 538 590 q 532 606 532 599 l 532 617 q 536 628 535 626 q 540 638 536 635 q 548 647 544 643 q 557 654 551 651 q 569 660 564 657 q 578 664 574 663 q 599 661 589 665 q 614 643 608 656 q 615 637 615 640 q 618 629 615 633 q 621 622 619 626 q 624 614 622 617 q 629 599 626 603 q 635 583 631 589 m 582 603 q 583 610 583 604 q 585 621 585 614 q 583 633 585 629 q 581 643 583 638 q 576 647 578 647 q 568 643 571 647 q 565 639 565 640 q 563 635 565 638 q 560 630 561 632 q 558 625 560 628 q 557 615 557 621 q 561 606 557 610 q 565 601 561 603 q 571 599 568 599 l 576 599 q 582 603 579 599 m 728 647 q 728 642 728 644 q 729 638 729 640 q 732 628 732 635 l 732 613 q 733 599 733 608 q 735 589 735 596 q 734 585 735 586 q 733 583 733 585 q 731 582 732 583 l 724 582 l 717 582 l 708 582 q 710 593 708 589 l 710 608 l 710 622 q 706 636 708 628 q 702 640 703 639 q 699 643 701 642 q 683 642 692 646 q 682 639 683 640 q 679 635 681 638 q 676 621 676 626 q 675 607 675 617 l 675 592 q 676 583 675 586 q 660 582 669 582 l 647 582 q 642 585 642 582 l 642 601 l 642 622 l 642 643 l 642 661 q 649 663 644 663 q 657 664 653 663 q 665 665 661 664 q 672 665 668 665 q 673 663 672 664 q 674 661 674 663 l 674 657 q 690 667 685 665 q 706 668 700 669 q 718 663 713 668 q 728 647 724 657 m 843 583 q 841 583 842 583 q 838 582 840 582 l 828 582 l 818 582 q 810 583 814 583 l 810 586 q 808 589 808 589 q 807 593 808 592 l 807 594 q 801 590 804 593 q 797 589 800 589 l 793 585 q 789 582 794 585 q 783 581 786 582 q 778 581 781 581 q 765 582 769 581 q 760 583 763 582 q 754 586 757 585 q 749 590 751 589 q 746 594 747 592 q 742 606 742 599 l 742 617 q 744 628 742 622 q 751 638 747 635 q 768 654 756 646 q 789 664 778 661 q 810 661 797 665 q 817 654 814 658 q 822 643 821 650 q 825 637 824 640 q 828 629 826 633 q 831 622 831 626 q 833 614 831 617 q 836 606 835 610 q 839 599 838 601 q 843 583 840 592 m 792 603 q 792 606 792 604 q 793 610 793 607 q 794 615 793 613 q 794 621 794 618 q 794 628 794 625 q 793 633 793 631 q 792 643 792 638 q 786 647 789 647 q 779 643 782 647 q 772 635 774 638 q 769 625 772 631 q 768 615 768 621 q 771 606 768 611 q 772 603 772 604 q 775 601 772 603 q 782 599 778 599 l 788 599 q 792 603 792 599 m 919 613 q 920 601 921 606 q 918 593 919 597 q 907 582 914 586 q 899 580 903 581 q 890 579 896 579 q 882 581 886 579 q 872 585 878 582 q 866 590 869 588 q 860 596 863 592 q 854 603 856 599 q 851 613 853 608 q 854 614 853 614 l 860 614 l 867 614 l 869 614 q 879 601 874 604 q 889 601 885 600 q 894 607 892 601 q 890 614 897 610 q 879 619 889 617 l 867 628 q 858 638 861 631 q 857 653 853 646 q 864 664 858 658 q 875 669 867 667 q 889 672 879 672 q 901 668 897 672 q 908 665 906 667 q 913 660 910 663 q 917 646 917 656 l 908 646 l 896 646 q 892 654 896 650 q 889 656 889 656 q 886 657 889 657 q 882 654 885 657 q 881 649 878 650 q 883 643 881 646 q 892 638 886 638 q 911 626 906 632 q 919 613 917 622 m 132 558 q 161 561 149 563 q 188 556 176 561 q 211 540 200 549 q 228 518 222 529 q 238 490 235 507 q 238 461 242 475 q 231 440 236 454 q 217 421 225 429 q 194 407 210 413 q 169 401 183 403 l 165 401 l 156 401 q 150 401 153 401 q 144 400 147 400 q 139 401 142 400 q 133 401 136 401 l 125 401 q 122 403 122 403 l 121 403 l 121 444 l 121 493 q 121 542 124 518 l 121 549 q 122 551 121 550 q 122 553 122 551 q 125 556 125 556 q 132 558 126 556 m 197 432 q 207 461 204 444 q 204 489 208 475 q 199 510 201 503 q 193 519 196 515 q 186 528 190 524 q 183 531 183 531 q 179 534 181 533 q 175 538 178 535 q 172 540 174 539 q 168 543 171 540 q 165 545 165 544 q 161 547 164 546 q 154 549 158 549 l 153 547 q 152 546 153 546 q 151 544 151 546 l 151 539 l 151 524 q 150 515 150 521 q 150 504 150 510 q 149 493 150 499 q 149 481 149 488 l 149 457 q 150 446 150 451 q 150 436 150 440 q 151 427 151 432 q 153 419 151 422 q 156 411 156 411 l 157 411 q 160 410 158 410 q 172 410 165 408 q 177 412 175 411 q 182 414 179 413 q 187 419 185 417 q 192 424 189 421 q 197 432 194 429 m 328 422 q 328 419 328 421 q 329 417 329 418 l 329 411 q 322 408 325 410 q 314 406 318 407 q 299 403 303 403 q 290 401 293 401 q 282 400 286 400 q 274 401 278 400 q 267 403 271 401 q 253 411 258 403 q 244 424 246 417 q 243 442 243 431 q 247 457 243 449 q 250 463 249 460 q 254 468 251 465 q 260 473 257 471 q 265 478 263 475 q 279 483 274 482 q 293 485 288 486 q 306 481 299 485 q 315 471 310 479 q 316 468 315 469 q 317 465 317 467 q 319 460 319 460 q 320 456 319 457 q 321 453 321 454 q 320 451 321 451 q 319 449 319 450 q 313 444 318 447 q 303 443 307 444 l 293 443 q 283 442 286 443 q 278 439 279 442 q 276 432 275 436 q 286 415 278 421 q 307 414 293 411 q 318 419 313 418 q 323 421 321 421 q 328 422 325 421 m 289 461 q 283 467 286 467 q 281 467 282 468 q 278 464 279 465 q 276 461 278 463 q 276 457 276 458 q 276 453 275 456 l 276 451 q 279 450 278 451 l 282 450 q 285 451 283 450 l 288 451 q 289 461 290 457 m 400 431 q 400 411 403 421 q 389 400 397 406 q 371 397 378 397 q 354 403 365 397 q 340 413 347 404 q 333 431 333 422 q 336 432 335 432 l 342 432 l 349 432 l 350 432 q 355 424 353 426 q 360 419 357 422 q 369 419 367 417 q 376 424 372 419 q 372 432 376 428 q 367 435 369 433 q 360 438 364 436 q 354 442 357 440 q 349 446 351 443 q 339 456 340 451 q 338 471 336 461 q 341 476 340 474 q 344 481 342 478 q 350 485 347 483 q 357 488 353 486 q 369 490 360 490 q 383 486 376 490 q 393 478 388 483 q 399 463 399 472 l 389 463 l 378 463 q 372 471 375 471 q 368 474 369 474 q 364 471 367 474 q 361 467 361 471 q 364 461 361 464 q 372 454 369 456 q 392 443 388 449 q 400 431 400 439 m 450 447 l 450 431 q 451 415 451 425 l 451 400 l 419 400 l 419 432 l 419 465 l 450 465 l 450 447 m 447 524 q 439 524 443 525 q 431 522 433 524 q 424 519 428 519 q 419 515 419 517 l 419 510 q 422 509 421 510 q 425 508 424 508 q 433 510 429 508 l 440 510 q 444 512 443 511 q 449 514 446 513 q 451 518 451 517 q 451 521 453 519 q 447 524 449 524 m 540 474 q 546 465 546 468 l 546 454 l 546 419 l 546 381 q 545 373 546 376 q 544 365 544 369 q 542 353 544 358 q 539 345 540 349 q 536 339 538 342 q 531 332 533 335 q 526 326 529 329 q 515 321 524 324 q 499 321 508 319 q 485 324 493 321 q 478 325 481 324 q 472 329 475 326 q 465 339 468 333 q 471 343 468 342 q 478 347 474 344 q 488 353 483 353 q 496 346 490 351 q 503 338 497 343 q 510 354 507 343 q 513 371 513 365 q 513 388 515 381 l 513 404 q 500 403 507 403 q 489 400 497 403 q 474 403 481 399 q 468 413 468 404 l 468 431 q 478 450 472 440 q 489 468 481 457 q 506 481 497 476 q 524 483 515 485 q 540 474 532 483 m 513 424 l 513 449 q 510 461 513 458 q 506 463 508 465 q 499 456 500 460 q 493 444 497 450 q 492 438 492 442 q 492 432 492 435 q 494 421 492 422 q 500 415 496 417 q 507 413 506 413 q 510 414 510 414 l 513 417 l 513 421 l 513 424 m 644 464 q 646 456 644 460 q 647 450 646 453 q 647 444 647 447 q 649 438 649 442 q 650 431 649 433 q 651 423 650 426 q 651 417 651 419 l 651 406 q 650 401 651 403 l 649 401 q 647 401 647 401 q 646 400 647 400 l 642 400 l 633 400 l 625 400 l 625 411 q 626 418 625 414 q 626 425 626 422 q 626 433 626 429 q 625 440 625 436 q 622 453 625 450 q 615 461 621 458 q 601 460 607 461 q 596 451 599 458 q 593 439 593 446 q 592 431 593 435 q 592 424 592 428 l 592 410 q 593 401 593 406 q 576 400 586 400 l 564 400 q 558 403 558 400 l 558 419 l 558 440 q 558 449 558 444 q 557 461 557 454 q 558 470 557 465 q 558 479 558 475 q 574 481 564 481 q 581 481 578 481 q 588 482 585 482 q 589 479 589 481 q 590 474 590 478 q 606 483 597 481 q 622 486 617 488 q 635 481 629 486 q 644 464 643 472 m 699 413 q 699 410 701 413 l 694 406 q 688 403 692 403 q 679 401 685 401 q 672 400 676 400 q 667 403 667 403 q 665 407 665 403 q 671 411 668 410 q 676 414 671 411 q 685 415 681 415 q 693 415 689 417 q 699 413 696 415 m 779 415 q 782 411 782 413 l 786 407 q 776 404 782 406 q 765 403 771 403 q 755 401 760 401 q 743 400 750 400 q 724 404 738 401 q 710 419 714 408 q 706 429 707 425 l 706 440 q 707 451 706 447 q 711 461 708 453 q 717 469 714 465 q 724 475 721 472 q 733 479 729 478 q 743 482 738 481 q 751 484 747 483 q 760 483 754 485 q 774 481 765 483 q 779 478 776 481 q 782 471 782 472 q 785 465 782 471 l 785 463 q 786 461 785 461 q 771 460 775 461 q 758 461 763 460 l 754 461 q 753 467 753 463 q 751 469 751 468 q 750 471 751 469 q 748 472 749 471 q 746 472 747 472 q 742 469 744 472 q 739 463 742 468 q 738 458 739 460 q 738 454 738 457 q 737 451 738 451 q 736 449 736 450 l 736 436 q 742 424 739 428 q 749 418 742 421 q 758 413 756 414 l 769 413 q 779 415 776 413 m 799 461 q 809 474 804 468 q 821 482 814 479 q 842 488 831 490 q 860 479 851 486 q 867 472 864 475 q 872 461 869 468 q 878 442 878 454 q 872 421 879 431 q 856 406 868 413 q 841 401 849 403 q 822 400 833 400 q 803 406 810 401 q 798 413 800 410 q 794 422 796 417 q 793 440 793 426 q 799 461 796 454 m 850 447 q 849 464 851 457 q 839 469 844 469 q 829 461 833 468 q 824 443 824 453 q 825 436 824 439 q 826 426 825 431 q 829 418 826 424 q 835 414 831 414 q 842 417 839 411 q 847 426 847 422 q 850 438 850 435 l 850 447 m 1018 478 q 1019 473 1018 475 q 1019 468 1019 471 q 1020 462 1019 465 q 1021 453 1021 458 l 1021 436 l 1021 419 q 1020 412 1021 415 q 1019 406 1019 408 q 1018 401 1019 401 l 1015 401 l 1007 401 q 999 400 1006 400 l 992 400 q 992 421 989 408 q 992 431 992 426 q 993 442 993 436 q 992 458 993 453 q 988 465 992 465 q 975 461 981 467 q 972 454 972 458 q 969 447 971 450 l 969 428 l 969 410 l 942 410 q 943 425 942 419 l 943 443 q 944 451 944 447 q 943 457 943 454 q 939 464 940 464 q 928 465 933 468 q 921 458 924 463 q 919 453 919 456 q 918 446 918 450 q 917 439 918 443 q 917 431 917 435 q 917 422 917 426 q 918 414 918 418 l 918 400 q 910 401 914 400 q 901 401 907 401 l 888 401 l 888 433 l 888 471 l 888 478 q 889 482 888 481 q 890 485 889 483 q 893 485 892 485 q 897 486 894 486 q 907 488 900 488 q 912 488 910 488 q 917 489 914 489 q 917 486 917 488 q 918 483 918 485 l 918 479 q 928 488 922 482 q 939 490 933 490 l 947 490 q 954 489 953 490 q 960 485 957 489 q 963 482 963 483 q 967 479 964 481 q 969 481 968 481 q 972 483 971 482 q 978 486 978 486 q 985 489 981 489 q 992 490 988 490 l 1000 490 q 1007 488 1004 490 q 1014 482 1013 485 q 1017 480 1017 481 q 1018 478 1017 479 z "},"\"":{"ha":414,"x_min":-50,"x_max":388,"o":"m 190 1111 q 161 1031 175 1068 q 135 961 147 994 q 110 896 122 928 q 86 829 99 864 q 19 855 53 842 q -50 883 -14 868 q 1 1018 -25 953 q 63 1163 28 1083 q 126 1137 94 1150 q 190 1111 158 1124 m 388 1106 q 358 1026 372 1063 q 332 956 344 989 q 308 890 319 922 q 283 824 296 858 q 217 849 250 836 q 147 878 183 863 q 199 1013 172 947 q 260 1157 225 1078 q 324 1131 292 1144 q 388 1106 356 1118 z "},"'":{"ha":176,"x_min":-50,"x_max":190,"o":"m 190 1111 q 161 1031 175 1068 q 135 961 147 994 q 110 896 122 928 q 86 829 99 864 q 19 855 53 842 q -50 883 -14 868 q 1 1018 -25 953 q 63 1163 28 1083 q 126 1137 94 1150 q 190 1111 158 1124 z "},"":{"ha":297,"x_min":35,"x_max":240,"o":"m 226 589 q 218 514 240 544 q 161 472 196 483 q 92 473 126 461 q 46 525 57 485 q 55 599 35 564 q 108 649 75 633 q 175 654 140 665 q 226 589 210 643 z "}}}
